<?xml version="1.0" encoding="UTF-8" standalone="no"?>
<svg
   id="sztp-mok-eu"
   width="195.10001"
   height="78.278999"
   viewBox="0 0 195.10001 78.279"
   version="1.1"
   sodipodi:docname="mok-eu.svg"
   inkscape:version="1.3.2 (091e20e, 2023-11-25)"
   xmlns:inkscape="http://www.inkscape.org/namespaces/inkscape"
   xmlns:sodipodi="http://sodipodi.sourceforge.net/DTD/sodipodi-0.dtd"
   xmlns="http://www.w3.org/2000/svg"
   xmlns:svg="http://www.w3.org/2000/svg">
  <sodipodi:namedview
     id="namedview1"
     pagecolor="#ffffff"
     bordercolor="#000000"
     borderopacity="0.25"
     inkscape:showpageshadow="2"
     inkscape:pageopacity="0.0"
     inkscape:pagecheckerboard="0"
     inkscape:deskcolor="#d1d1d1"
     inkscape:zoom="2.0458789"
     inkscape:cx="52.055868"
     inkscape:cy="35.192699"
     inkscape:window-width="1440"
     inkscape:window-height="449"
     inkscape:window-x="0"
     inkscape:window-y="25"
     inkscape:window-maximized="0"
     inkscape:current-layer="sztp-mok-eu" />
  <defs
     id="defs1">
    <clipPath
       id="clip-path">
      <rect
         id="Rectangle_13430"
         data-name="Rectangle 13430"
         width="138.15199"
         height="55.459"
         fill="none"
         x="0"
         y="0" />
    </clipPath>
  </defs>
  <rect
     id="Rectangle_14955"
     data-name="Rectangle 14955"
     width="78.278999"
     height="0.58200002"
     transform="rotate(-90)"
     fill="#003399"
     x="-78.278999"
     y="194.51701" />
  <g
     id="alkotoelem-02"
     transform="translate(11.306723,5.049)">
    <g
       id="Group_37130"
       data-name="Group 37130"
       transform="translate(32.512,7.77)">
      <path
         id="Path_42383"
         data-name="Path 42383"
         d="m 1160,2287.878 a 0.368,0.368 0 1 1 0.368,-0.367 0.368,0.368 0 0 1 -0.368,0.367 z m 0,-1.018 a 0.649,0.649 0 1 0 0.651,0.65 0.65,0.65 0 0 0 -0.651,-0.65 z"
         transform="translate(-1159.351,-2286.86)"
         fill="#174895" />
    </g>
    <g
       id="Group_37131"
       data-name="Group 37131"
       transform="translate(30.119,8.249)">
      <path
         id="Path_42384"
         data-name="Path 42384"
         d="m 1109.177,2297.744 a 0.234,0.234 0 1 1 0,-0.467 0.234,0.234 0 0 1 0,0.467 z m 0,-0.747 a 0.514,0.514 0 1 0 0.512,0.512 0.513,0.513 0 0 0 -0.512,-0.509 z"
         transform="translate(-1108.663,-2296.998)"
         fill="#174895" />
    </g>
    <g
       id="Group_37132"
       data-name="Group 37132"
       transform="translate(35.334,13.479)">
      <path
         id="Path_42385"
         data-name="Path 42385"
         d="m 1220.677,2409.727 c -0.439,0 -1.264,-0.123 -1.264,-0.593 a 1.286,1.286 0 0 1 2.531,0 c 0,0.466 -0.828,0.593 -1.267,0.593 z m 0,-1.929 a 1.577,1.577 0 0 0 -1.547,1.336 c 0,0.645 0.834,0.873 1.547,0.873 0.713,0 1.546,-0.228 1.546,-0.873 a 1.575,1.575 0 0 0 -1.546,-1.334 z"
         transform="translate(-1219.13,-2407.798)"
         fill="#174895" />
    </g>
    <g
       id="Group_37133"
       data-name="Group 37133"
       transform="translate(39.952,7.77)">
      <path
         id="Path_42386"
         data-name="Path 42386"
         d="m 1317.592,2287.878 a 0.368,0.368 0 1 1 0.369,-0.367 0.368,0.368 0 0 1 -0.369,0.367 z m 0,-1.018 a 0.649,0.649 0 1 0 0.652,0.65 0.65,0.65 0 0 0 -0.652,-0.65 z"
         transform="translate(-1316.943,-2286.86)"
         fill="#174895" />
    </g>
    <g
       id="Group_37134"
       data-name="Group 37134"
       transform="translate(42.618,8.249)">
      <path
         id="Path_42387"
         data-name="Path 42387"
         d="m 1373.94,2297.744 a 0.234,0.234 0 1 1 0.233,-0.234 0.233,0.233 0 0 1 -0.233,0.234 z m 0,-0.747 a 0.514,0.514 0 1 0 0.513,0.512 0.515,0.515 0 0 0 -0.513,-0.509 z"
         transform="translate(-1373.426,-2296.998)"
         fill="#174895" />
    </g>
    <g
       id="Group_37135"
       data-name="Group 37135"
       transform="translate(39.871,13.583)">
      <path
         id="Path_42388"
         data-name="Path 42388"
         d="m 1317.185,2411.719 h -1.668 v -1.439 h 1.668 z m 0.142,-1.721 h -1.952 a 0.14,0.14 0 0 0 -0.141,0.139 v 1.72 a 0.144,0.144 0 0 0 0.141,0.144 h 1.952 a 0.141,0.141 0 0 0 0.138,-0.144 v -1.72 a 0.137,0.137 0 0 0 -0.138,-0.137 z"
         transform="translate(-1315.234,-2409.998)"
         fill="#174895" />
    </g>
    <g
       id="Group_37136"
       data-name="Group 37136"
       transform="translate(42.585,13.585)">
      <path
         id="Path_42389"
         data-name="Path 42389"
         d="m 1374,2411.489 a 0.261,0.261 0 0 1 -0.262,0.262 h -0.461 a 0.264,0.264 0 0 1 -0.264,-0.262 v -0.915 a 0.267,0.267 0 0 1 0.264,-0.264 h 0.461 a 0.264,0.264 0 0 1 0.262,0.264 z m -0.262,-1.458 h -0.461 a 0.544,0.544 0 0 0 -0.544,0.543 v 0.915 a 0.546,0.546 0 0 0 0.544,0.543 h 0.461 a 0.546,0.546 0 0 0 0.543,-0.543 v -0.915 a 0.544,0.544 0 0 0 -0.546,-0.543 z"
         transform="translate(-1372.73,-2410.031)"
         fill="#174895" />
    </g>
    <g
       id="Group_37137"
       data-name="Group 37137"
       transform="translate(26.233)">
      <path
         id="Path_42390"
         data-name="Path 42390"
         d="m 1047.271,2157.8 a 1.459,1.459 0 0 0 -0.587,-0.311 v -18.292 h 0.64 c 0,1.569 0.035,15.718 0.035,17.25 a 10.5,10.5 0 0 1 -0.088,1.353 z m -0.179,0.969 -1.01,-1.012 a 1.046,1.046 0 0 1 0.255,-0.033 1.156,1.156 0 0 1 0.88,0.422 c -0.035,0.208 -0.078,0.417 -0.125,0.619 z m -0.363,1.14 -1.49,-1.493 a 0.14,0.14 0 0 0 0.071,-0.062 1.231,1.231 0 0 1 0.484,-0.485 l 1.214,1.213 a 8.547,8.547 0 0 1 -0.279,0.823 z m -0.481,1.017 -3.681,-3.68 h 1.1 l 2.944,2.942 a 7.944,7.944 0 0 1 -0.364,0.734 z m -0.587,0.91 -4.592,-4.591 h 1.1 l 3.934,3.93 q -0.212,0.343 -0.443,0.657 z m -0.683,0.818 -5.143,-5.142 a 2.778,2.778 0 0 1 0.157,-0.267 h 0.679 l 4.816,4.817 c -0.164,0.204 -0.335,0.4 -0.51,0.588 z m -0.77,0.732 -5.626,-5.625 a 1.2,1.2 0 0 1 0.717,0.519 0.145,0.145 0 0 0 0.142,0.06 0.139,0.139 0 0 0 0.112,-0.1 3.623,3.623 0 0 1 0.153,-0.454 l 5.076,5.075 c -0.188,0.177 -0.382,0.355 -0.575,0.52 z m -0.848,0.652 -5.912,-5.914 a 1.192,1.192 0 0 1 0.715,-0.388 l 5.829,5.829 c -0.212,0.167 -0.419,0.32 -0.633,0.469 z m -0.919,0.58 -5.336,-5.337 v -0.24 a 1.37,1.37 0 0 1 0.18,-0.683 l 5.839,5.84 c -0.23,0.148 -0.46,0.288 -0.683,0.416 z m -1,0.5 -4.339,-4.335 v -1.1 l 5.081,5.08 c -0.248,0.123 -0.493,0.244 -0.739,0.352 z m -1.075,0.426 -3.264,-3.265 v -1.1 l 4.06,4.061 c -0.262,0.106 -0.532,0.207 -0.793,0.301 z m -1.134,0.369 -2.13,-2.133 v -1.1 l 2.968,2.97 c -0.281,0.088 -0.563,0.177 -0.835,0.26 z m -0.562,0.167 c -0.206,0.06 -0.4,0.119 -0.591,0.176 l -0.977,-0.977 v -1.1 l 1.827,1.825 c -0.085,0.022 -0.17,0.046 -0.257,0.074 z m -1.568,0.511 v -0.915 l 0.676,0.673 c -0.241,0.077 -0.466,0.151 -0.678,0.24 z m 0.8,-27.4 v 18.312 a 1.488,1.488 0 0 0 -0.8,0.6 v -18.915 z m -9.891,-0.668 h 17.958 v 0.387 h -17.958 z m 8.811,3.835 h -0.769 v -3.167 h 0.769 z m -1.818,-3.167 h 0.768 v 3.167 h -0.768 z m -1.049,0 h 0.769 v 3.167 h -0.769 z m -1.051,0 h 0.768 v 3.167 h -0.768 z m -1.047,0 h 0.769 v 3.167 h -0.769 z m -1.048,0 h 0.768 v 3.167 h -0.768 z m -1.051,0 h 0.768 v 3.167 h -0.768 z m -1.051,0 h 0.769 v 3.167 h -0.769 z m 8.116,6.6 h -10.179 c 0,-1.123 0,-2.2 0.01,-3.154 h 10.172 z m 0,3.438 h -0.769 v -3.154 h 0.769 z m -1.818,-3.154 h 0.768 v 3.154 h -0.768 z m -1.049,0 h 0.769 v 3.154 h -0.769 z m -1.051,0 h 0.768 v 3.154 h -0.768 z m -1.047,0 h 0.769 v 3.154 h -0.769 z m -1.048,0 h 0.768 v 3.154 h -0.768 z m -1.051,0 h 0.768 v 3.154 h -0.768 z m -1.051,0 h 0.769 v 3.154 h -0.769 z m -1.047,0 h 0.767 v 3.154 h -0.767 z m 9.163,6.592 h -10.192 c 0,-0.964 0,-2.04 0.01,-3.158 h 10.185 z m 0,3.434 h -0.769 v -3.155 h 0.769 z m -1.818,-3.155 h 0.768 v 3.155 h -0.768 z m -1.049,0 h 0.769 v 3.155 h -0.769 z m -1.051,0 h 0.768 v 3.155 h -0.768 z m -1.047,0 h 0.769 v 3.155 h -0.769 z m -1.048,0 h 0.768 v 3.155 h -0.768 z m -1.051,0 h 0.768 v 3.155 h -0.768 z m -1.051,0 h 0.769 v 3.155 h -0.769 z m -1.047,0 h 0.767 v 3.155 h -0.767 z m 9.163,6.594 h -9.7 a 9.4,9.4 0 0 1 -0.5,-3.1 v -0.055 h 10.2 z m 0,3.436 h -0.769 v -3.155 h 0.769 z m -1.818,-3.156 h 0.768 v 3.155 h -0.768 z m -1.049,0 h 0.769 v 3.155 h -0.769 z m -1.051,0 h 0.768 v 3.155 h -0.768 z m -1.047,0 h 0.769 v 3.155 h -0.769 z m -1.048,0 h 0.768 v 3.155 h -0.768 z m -1.051,0 h 0.768 v 3.155 h -0.768 z m 7.065,6.741 c -0.432,-0.168 -0.94,-0.32 -1.514,-0.488 a 17.584,17.584 0 0 1 -3.679,-1.415 11.333,11.333 0 0 1 -1.991,-1.4 h 7.185 z m -7.346,-3.584 h -0.141 c -0.215,-0.208 -0.427,-0.427 -0.628,-0.664 v -2.493 h 0.77 z m -1.049,-1.011 a 8.471,8.471 0 0 1 -0.767,-1.189 v -0.956 h 0.767 z m -1.048,-1.77 c -0.056,-0.122 -0.106,-0.247 -0.158,-0.375 h 0.158 z m -0.748,-7.25 h 0.748 v 3.155 h -0.755 c 0,-0.595 0,-1.733 0,-3.15 z m 0.013,-6.871 h 0.735 v 3.154 h -0.741 c 0,-1.04 -10e-4,-2.112 0,-3.15 z m 0.015,-6.885 h 0.72 v 3.167 h -0.727 c -10e-4,-1.581 0,-2.769 0,-3.163 z m 1,0 h 0.767 v 3.167 h -0.767 z m 0.039,-7.211 a 0.173,0.173 0 1 1 0.173,0.175 0.172,0.172 0 0 1 -0.175,-0.171 z m 0.313,4.154 h 0.962 v 1.438 h -0.962 z m 1.1,1.72 a 0.14,0.14 0 0 0 0.141,-0.139 V 2136 a 0.139,0.139 0 0 0 -0.141,-0.14 h -1.1 v -0.387 h 6.621 v 2.775 h -6.621 v -0.387 z m 9.952,0.387 h -4.152 v -2.775 h 4.152 z m 6.9,-3.056 h -17.958 v -0.544 h 17.958 z m -17.172,-2.512 0.549,1.687 h -1.1 z m -0.233,-1.1 a 0.2335,0.2335 0 1 1 0.467,0 0.2335,0.2335 0 0 1 -0.467,0 z m 3.119,1.29 v 1.5 h -1.881 v -1.5 a 0.9405,0.9405 0 0 1 1.881,0 z m 2.6,1.5 h -2.028 l 1.014,-2.49 z m -4.98,-2.693 a 7.345,7.345 0 0 1 5.329,-4.074 v 6.767 h -0.045 l -1.187,-2.914 a 0.14,0.14 0 0 0 -0.13,-0.088 0.134,0.134 0 0 0 -0.128,0.088 l -1.177,2.89 v -1.473 a 1.221,1.221 0 0 0 -2.441,0 v 1.129 l -0.593,-1.819 a 0.135,0.135 0 0 0 -0.1,-0.089 0.514,0.514 0 0 0 0.471,-0.417 z m 0.22,-1.8 4.3,-2.955 h 0.806 v 0.392 a 7.822,7.822 0 0 0 -5.442,3.919 z m 5.392,2.579 a 2.076,2.076 0 0 1 4.152,0 v 1.915 h -4.152 z m 0,-5.534 h 0.633 v 3.673 a 2.354,2.354 0 0 0 -0.633,0.744 z m 2.073,2.9 a 0.471,0.471 0 1 1 0.527,-0.469 0.5,0.5 0 0 1 -0.524,0.469 z m -1.16,-2.9 h 2.325 v 3.485 a 2.358,2.358 0 0 0 -1.106,-0.307 0.8,0.8 0 1 0 -0.115,0 2.353,2.353 0 0 0 -1.1,0.307 z m 0.03,-2.313 h -0.014 a 0.255,0.255 0 0 1 -0.119,-0.028 l -0.879,0.583 -0.012,0.056 a 0.331,0.331 0 0 1 -0.141,0.2 0.335,0.335 0 0 1 -0.471,-0.095 0.338,0.338 0 0 1 0.45,-0.479 l 0.074,0.044 0.825,-0.548 a 0.042,0.042 0 0 1 0,-0.012 0.258,0.258 0 0 1 0.028,-0.121 l -0.646,-0.977 h -0.073 a 0.331,0.331 0 0 1 -0.269,-0.152 0.337,0.337 0 0 1 0.281,-0.523 0.336,0.336 0 0 1 0.317,0.451 l -0.023,0.068 0.648,0.979 h 0.012 a 0.286,0.286 0 0 1 0.118,0.027 l 0.82,-0.542 -0.01,-0.087 a 0.336,0.336 0 0 1 0.148,-0.321 0.341,0.341 0 0 1 0.186,-0.056 0.335,0.335 0 0 1 0.282,0.153 0.34,0.34 0 0 1 -0.1,0.469 0.336,0.336 0 0 1 -0.245,0.047 l -0.056,-0.01 -0.874,0.579 v 0.015 a 0.255,0.255 0 0 1 -0.027,0.118 l 0.723,1.095 0.089,-0.013 a 0.536,0.536 0 0 1 0.528,0.231 0.52,0.52 0 0 1 0.079,0.4 0.539,0.539 0 0 1 -0.228,0.343 0.55,0.55 0 0 1 -0.3,0.087 0.535,0.535 0 0 1 -0.447,-0.239 0.541,0.541 0 0 1 -0.01,-0.581 l 0.047,-0.076 z m 2.577,2.313 h 0.633 v 4.417 a 2.4,2.4 0 0 0 -0.633,-0.744 z m 3.289,7.448 h -2.022 l 1.012,-2.49 z m 2.454,-1.5 v 1.5 h -1.88 v -1.5 a 0.94,0.94 0 1 1 1.88,0 z m -4.83,-5.27 a 7.342,7.342 0 0 1 5.33,4.074 0.517,0.517 0 0 0 0.47,0.417 0.134,0.134 0 0 0 -0.1,0.089 l -0.59,1.819 v -1.129 a 1.221,1.221 0 0 0 -2.441,0 v 1.473 l -1.178,-2.89 a 0.138,0.138 0 0 0 -0.132,-0.088 0.14,0.14 0 0 0 -0.13,0.088 l -1.185,2.914 h -0.047 z m 0,-0.681 h 0.811 l 4.3,2.955 0.334,1.356 a 7.823,7.823 0 0 0 -5.444,-3.919 z m 5.837,4.427 a 0.235,0.235 0 0 1 0.232,0.235 0.234,0.234 0 0 1 -0.468,0 0.237,0.237 0 0 1 0.239,-0.232 z m 0.546,3.022 h -1.1 l 0.55,-1.687 z m 0.239,3.214 h -0.964 v -1.438 h 0.964 z m -1.1,-1.72 a 0.14,0.14 0 0 0 -0.14,0.14 v 1.722 a 0.14,0.14 0 0 0 0.14,0.139 h 1.1 v 0.387 h -6.622 v -2.775 h 6.622 v 0.387 z m -0.589,12.724 h -0.9 v -2.5 h 0.9 z m 1.062,-2.259 v 2.259 h -0.783 v -2.5 h 0.114 a 0.917,0.917 0 0 1 0.668,0.243 z m -0.783,-2.485 v -4.643 h 0.783 v 4.4 a 0.934,0.934 0 0 1 -0.669,0.242 z m -0.947,-3.281 a 0.145,0.145 0 0 0 -0.113,-0.068 v -1.294 h 0.782 v 4.643 h -0.895 v -2.273 a 2.026,2.026 0 0 1 0.228,-0.866 0.138,0.138 0 0 0 0,-0.139 z m -1.177,-1.362 h 0.783 v 1.294 h -0.783 z m -1.063,0 h 0.783 v 1.294 h -0.783 z m -0.4,1.5 a 2.046,2.046 0 0 1 0.229,0.866 v 2.273 h -0.894 v -4.643 h 0.779 v 1.294 a 0.143,0.143 0 0 0 -0.113,0.068 0.141,0.141 0 0 0 0,0.151 z m -1.731,2.9 v -4.4 h 0.783 v 4.643 h -0.11 a 0.942,0.942 0 0 1 -0.67,-0.24 z m 1.066,2.485 h 0.895 v 2.5 h -0.895 z m -1.066,2.5 v -2.259 a 0.936,0.936 0 0 1 0.673,-0.242 h 0.11 v 2.5 z m -1.062,-0.247 v -9.139 h 0.782 v 9.386 h -0.129 a 0.873,0.873 0 0 1 -0.649,-0.243 z m 0.782,2.488 v 6.783 a 1.39,1.39 0 0 0 -0.647,-0.162 c -0.046,0 -0.089,0 -0.135,0 v -6.393 a 0.891,0.891 0 0 1 0.653,-0.232 z m 6.306,3.449 a 0.6,0.6 0 0 0 -0.277,-0.071 0.583,0.583 0 0 0 -0.436,0.216 v -3.594 h 0.783 v 3.54 a 0.15,0.15 0 0 0 -0.066,-0.087 z m -0.433,2.828 a 5.154,5.154 0 0 1 0.482,-2.625 0.132,0.132 0 0 0 0.022,-0.044 v 3.424 c -0.032,0.033 -0.065,0.066 -0.094,0.1 a 3.476,3.476 0 0 0 -0.406,-0.849 z m -0.24,0.143 a 3.151,3.151 0 0 1 0.424,0.954 l -0.953,-0.954 z m -0.018,-0.853 c -0.012,0.179 -0.022,0.366 -0.024,0.571 h -4.526 c 0,-0.2 -0.012,-0.392 -0.024,-0.571 z m -3.361,-0.283 h -0.458 a 0.3,0.3 0 0 1 0.258,-0.121 0.334,0.334 0 0 1 0.188,0.111 c 0,0 0.013,0.01 0.016,0.015 z m -0.014,-1.724 a 1.071,1.071 0 0 0 -0.323,0.616 c 0,0.084 0.188,0.727 0.612,0.727 a 0.78,0.78 0 0 0 0.129,-0.01 c -0.024,0.027 -0.044,0.055 -0.069,0.078 a 0.539,0.539 0 0 1 -0.136,0.115 l -0.012,-0.014 a 0.6,0.6 0 0 0 -0.386,-0.19 0.578,0.578 0 0 0 -0.426,0.17 0.784,0.784 0 0 0 -0.063,-0.052 0.412,0.412 0 0 0 0.218,-0.275 c 0.141,-0.4 0.139,-0.483 0.09,-0.592 v -0.012 c 0,0 -0.2,-0.5 -0.524,-0.552 v -3.57 h 0.894 z m 2.623,1.724 h -0.461 l 0.011,-0.01 a 0.351,0.351 0 0 1 0.188,-0.111 0.3,0.3 0 0 1 0.265,0.125 z m 0.452,-1.715 c -0.318,0.047 -0.525,0.545 -0.529,0.552 l -0.01,0.013 c -0.042,0.107 -0.045,0.188 0.094,0.59 a 0.417,0.417 0 0 0 0.22,0.275 l -0.066,0.048 a 0.546,0.546 0 0 0 -0.811,0.026 0.07,0.07 0 0 0 -0.013,0.013 0.541,0.541 0 0 1 -0.135,-0.117 0.955,0.955 0 0 1 -0.07,-0.078 0.81,0.81 0 0 0 0.129,0.01 c 0.408,0 0.615,-0.605 0.615,-0.727 a 1.082,1.082 0 0 0 -0.324,-0.616 v -3.561 h 0.895 z m 0.194,1.008 a 0.137,0.137 0 0 0 -0.166,0.045 0.322,0.322 0 0 1 -0.144,0.115 c -0.01,0 -0.035,-0.028 -0.062,-0.1 -0.117,-0.341 -0.1,-0.375 -0.094,-0.392 l 0.01,-0.02 c 0.045,-0.109 0.21,-0.377 0.316,-0.377 0.027,0 0.067,0.033 0.1,0.089 a 0.14,0.14 0 0 0 0.244,-0.02 c 0,0 0.125,-0.255 0.317,-0.255 v 0 a 5,5 0 0 0 -0.4,1.625 h -0.455 a 0.967,0.967 0 0 0 0.409,-0.557 0.14,0.14 0 0 0 -0.067,-0.147 z m -2.573,-1.092 a 0.212,0.212 0 0 1 -0.054,-0.174 c 0,-0.164 0.339,-0.311 0.447,-0.335 0.094,0.023 0.449,0.162 0.449,0.335 a 0.229,0.229 0 0 1 -0.056,0.177 0.281,0.281 0 0 0 -0.076,0.188 v 0.04 a 0.134,0.134 0 0 0 0.049,0.108 0.141,0.141 0 0 0 0.116,0.031 0.3,0.3 0 0 0 0.139,-0.074 0.227,0.227 0 0 1 0.178,-0.054 0.189,0.189 0 0 1 0.041,0.01 0.129,0.129 0 0 0 0.078,0.046 0.92,0.92 0 0 1 0.213,0.4 c -0.02,0.094 -0.16,0.446 -0.332,0.446 a 0.228,0.228 0 0 1 -0.178,-0.055 0.28,0.28 0 0 0 -0.185,-0.075 h -0.105 a 0.142,0.142 0 0 0 -0.121,0.067 0.153,0.153 0 0 0 0,0.137 2.684,2.684 0 0 0 0.325,0.466 1.056,1.056 0 0 0 0.136,0.122 h -1.338 a 0.8,0.8 0 0 0 0.137,-0.122 2.708,2.708 0 0 0 0.325,-0.466 0.141,0.141 0 0 0 0,-0.137 0.137,0.137 0 0 0 -0.121,-0.067 h -0.1 a 0.284,0.284 0 0 0 -0.186,0.075 0.227,0.227 0 0 1 -0.178,0.055 c -0.171,0 -0.312,-0.354 -0.332,-0.446 a 0.9,0.9 0 0 1 0.217,-0.4 0.139,0.139 0 0 0 0.074,-0.046 0.178,0.178 0 0 1 0.041,-0.01 0.225,0.225 0 0 1 0.178,0.054 0.317,0.317 0 0 0 0.14,0.074 0.144,0.144 0 0 0 0.167,-0.14 v -0.04 a 0.284,0.284 0 0 0 -0.084,-0.185 z m -2.312,0.174 v 0 c 0.192,0 0.315,0.252 0.317,0.255 a 0.135,0.135 0 0 0 0.115,0.081 0.15,0.15 0 0 0 0.126,-0.061 c 0.039,-0.057 0.077,-0.09 0.108,-0.09 0.106,0 0.271,0.263 0.311,0.377 l 0.01,0.023 c 0.01,0.013 0.021,0.048 -0.1,0.389 a 0.223,0.223 0 0 1 -0.058,0.1 0.307,0.307 0 0 1 -0.144,-0.113 0.134,0.134 0 0 0 -0.166,-0.047 0.136,0.136 0 0 0 -0.085,0.148 0.953,0.953 0 0 0 0.408,0.559 h -0.456 a 4.964,4.964 0 0 0 -0.382,-1.617 z m -0.345,-0.119 v -3.54 h 0.783 v 3.594 a 0.569,0.569 0 0 0 -0.434,-0.216 0.608,0.608 0 0 0 -0.277,0.071 0.17,0.17 0 0 0 -0.068,0.095 z m 0.024,0.113 a 5.126,5.126 0 0 1 0.481,2.623 3.428,3.428 0 0 0 -0.391,0.8 1.476,1.476 0 0 0 -0.114,-0.105 v -3.365 a 0.132,0.132 0 0 0 0.028,0.051 z m 7.137,-3.42 v 6.39 h -0.067 a 1.432,1.432 0 0 0 -0.567,0.119 c 0,0 0,0 -0.01,0 -0.047,0.021 -0.1,0.046 -0.142,0.071 v -6.814 h 0.128 a 0.894,0.894 0 0 1 0.655,0.237 z m -0.654,-0.514 h -2.507 a 0.143,0.143 0 0 0 -0.142,0.141 v 3.588 h -0.01 c -0.03,0 -0.058,0 -0.084,0 a 0.646,0.646 0 0 0 0.013,-0.138 c 0,-0.425 -0.64,-0.616 -0.728,-0.616 -0.125,0 -0.728,0.207 -0.728,0.616 a 0.651,0.651 0 0 0 0.012,0.138 c -0.025,0 -0.054,0 -0.084,0 h -0.01 v -3.588 a 0.141,0.141 0 0 0 -0.14,-0.141 h -2.508 a 1.252,1.252 0 0 0 -0.653,0.167 v -2.018 a 1.25,1.25 0 0 0 0.653,0.17 h 2.508 a 0.139,0.139 0 0 0 0.14,-0.138 v -2.782 a 0.141,0.141 0 0 0 -0.14,-0.143 h -1.427 a 1.308,1.308 0 0 0 -0.673,0.175 v -2.026 a 1.33,1.33 0 0 0 0.673,0.172 h 1.427 a 0.141,0.141 0 0 0 0.14,-0.143 v -2.41 a 2.219,2.219 0 0 0 -0.165,-0.794 h 1.95 a 2.24,2.24 0 0 0 -0.168,0.794 v 2.41 a 0.142,0.142 0 0 0 0.142,0.143 h 1.429 a 1.315,1.315 0 0 0 0.669,-0.172 v 2.026 a 1.293,1.293 0 0 0 -0.669,-0.175 h -1.429 a 0.143,0.143 0 0 0 -0.142,0.143 v 2.782 a 0.141,0.141 0 0 0 0.142,0.138 h 2.507 a 1.248,1.248 0 0 0 0.654,-0.17 v 2.018 a 1.25,1.25 0 0 0 -0.652,-0.164 z m 0.654,-11.345 v 9.139 a 0.873,0.873 0 0 1 -0.654,0.247 h -0.128 v -9.386 z m -0.465,-7.211 a 0.172,0.172 0 1 1 0.173,0.175 0.172,0.172 0 0 1 -0.169,-0.172 z m 1.666,7.07 a 0.141,0.141 0 0 0 -0.14,-0.141 h -1.214 v -6.5 a 0.453,0.453 0 1 0 -0.281,0 v 1.774 l -0.652,-2.012 a 0.14,0.14 0 0 0 -0.1,-0.089 0.513,0.513 0 0 0 -0.035,-1.025 0.53,0.53 0 0 0 -0.139,0.02 l -0.326,-1.33 a 0.178,0.178 0 0 0 -0.057,-0.084 l -4.384,-3.009 a 0.148,0.148 0 0 0 -0.078,-0.022 h -2.64 a 0.816,0.816 0 0 0 -0.607,-1.4 l -0.526,-0.8 0.632,-0.417 h 0.048 a 0.618,0.618 0 1 0 0,-1.236 0.636,0.636 0 0 0 -0.343,0.1 0.619,0.619 0 0 0 -0.277,0.5 l -0.524,0.348 -0.471,-0.711 a 0.626,0.626 0 0 0 -0.087,-0.482 0.619,0.619 0 0 0 -1.032,0.683 0.632,0.632 0 0 0 0.418,0.269 l 0.469,0.707 -0.531,0.352 a 0.635,0.635 0 0 0 -0.567,0.061 0.619,0.619 0 0 0 0.684,1.031 0.637,0.637 0 0 0 0.246,-0.32 l 0.632,-0.419 0.526,0.791 a 0.822,0.822 0 0 0 0.056,0.8 1,1 0 0 0 0.108,0.128 h -2.634 a 0.16,0.16 0 0 0 -0.079,0.022 l -4.38,3.009 a 0.131,0.131 0 0 0 -0.057,0.084 l -0.327,1.33 a 0.549,0.549 0 0 0 -0.14,-0.02 0.513,0.513 0 0 0 -0.036,1.025 0.146,0.146 0 0 0 -0.1,0.089 l -0.652,2.012 v -1.774 a 0.454,0.454 0 1 0 -0.281,0 v 6.5 h -1.213 a 0.141,0.141 0 0 0 -0.14,0.141 c 0,0.157 -0.036,15.779 -0.036,17.392 a 9.354,9.354 0 0 0 5.15,8.464 17.936,17.936 0 0 0 3.739,1.439 15.515,15.515 0 0 1 1.7,0.569 0.173,0.173 0 0 0 0.055,0.011 0.142,0.142 0 0 0 0.058,-0.011 15.532,15.532 0 0 1 1.708,-0.569 17.989,17.989 0 0 0 3.737,-1.439 9.35,9.35 0 0 0 5.147,-8.464 c 0.01,-1.595 -0.028,-17.217 -0.028,-17.374 z"
         transform="translate(-1026.343,-2122.272)"
         fill="#174895" />
    </g>
    <g
       id="Group_37138"
       data-name="Group 37138"
       transform="translate(31.66,13.583)">
      <path
         id="Path_42391"
         data-name="Path 42391"
         d="m 1141.6,2410.28 h 1.667 v 1.439 h -1.667 z m -0.142,1.721 h 1.95 a 0.143,0.143 0 0 0 0.14,-0.144 v -1.72 a 0.139,0.139 0 0 0 -0.14,-0.139 h -1.95 a 0.139,0.139 0 0 0 -0.142,0.139 v 1.72 a 0.143,0.143 0 0 0 0.139,0.143 z"
         transform="translate(-1141.313,-2409.998)"
         fill="#174895" />
    </g>
    <g
       id="Group_37139"
       data-name="Group 37139"
       transform="translate(29.631,13.583)">
      <path
         id="Path_42392"
         data-name="Path 42392"
         d="m 1098.611,2410.538 a 0.261,0.261 0 0 1 0.261,-0.262 h 0.462 a 0.262,0.262 0 0 1 0.262,0.262 v 0.917 a 0.264,0.264 0 0 1 -0.262,0.261 h -0.462 a 0.262,0.262 0 0 1 -0.261,-0.261 z m 0.261,1.46 h 0.462 a 0.544,0.544 0 0 0 0.542,-0.543 v -0.917 a 0.544,0.544 0 0 0 -0.542,-0.544 h -0.462 a 0.545,0.545 0 0 0 -0.542,0.544 v 0.917 a 0.546,0.546 0 0 0 0.542,0.545 z"
         transform="translate(-1098.33,-2409.994)"
         fill="#174895" />
    </g>
    <g
       id="Group_37140"
       data-name="Group 37140"
       transform="translate(0,49.868)">
      <path
         id="Path_42393"
         data-name="Path 42393"
         d="m 478.652,3184.48 c 0.037,0.33 0.1,0.844 0.5,0.971 a 1.965,1.965 0 0 0 0.6,0.083 c 0.044,0 0.072,0.01 0.072,0.044 0,0.055 -0.08,0.083 -0.192,0.083 -0.2,0 -1.192,-0.028 -1.529,-0.054 -0.211,-0.018 -0.257,-0.045 -0.257,-0.091 0,-0.046 0.016,-0.055 0.065,-0.066 0.049,-0.011 0.053,-0.166 0.036,-0.329 l -0.44,-4.73 h -0.029 l -2.246,4.764 c -0.192,0.405 -0.218,0.488 -0.3,0.488 -0.064,0 -0.109,-0.093 -0.282,-0.422 -0.241,-0.449 -1.027,-2.035 -1.074,-2.125 -0.08,-0.168 -1.108,-2.365 -1.209,-2.614 h -0.035 l -0.37,4.253 c -0.007,0.147 -0.007,0.312 -0.007,0.47 a 0.29,0.29 0 0 0 0.238,0.281 1.618,1.618 0 0 0 0.349,0.047 c 0.037,0 0.073,0.017 0.073,0.044 0,0.066 -0.055,0.083 -0.165,0.083 -0.34,0 -0.78,-0.028 -0.854,-0.028 -0.074,0 -0.52,0.028 -0.77,0.028 -0.09,0 -0.154,-0.017 -0.154,-0.083 0,-0.027 0.044,-0.044 0.092,-0.044 a 1.185,1.185 0 0 0 0.273,-0.027 c 0.3,-0.057 0.331,-0.414 0.366,-0.761 l 0.662,-5.975 c 0.009,-0.1 0.045,-0.165 0.1,-0.165 0.055,0 0.091,0.035 0.136,0.137 l 2.806,5.764 2.694,-5.755 c 0.037,-0.082 0.072,-0.146 0.137,-0.146 0.065,0 0.093,0.072 0.111,0.247 z"
         transform="translate(-470.663,-3178.606)"
         fill="#174895" />
    </g>
    <g
       id="Group_37141"
       data-name="Group 37141"
       transform="translate(8.972,50.883)">
      <path
         id="Path_42394"
         data-name="Path 42394"
         d="m 664.489,3203.655 c 0.037,0 0.037,-0.019 0.029,-0.055 l -0.8,-2.136 c -0.045,-0.118 -0.093,-0.118 -0.138,0 l -0.751,2.136 c -0.008,0.037 0,0.055 0.028,0.055 z m -0.9,-3.242 c 0.1,-0.257 0.138,-0.307 0.192,-0.307 0.083,0 0.109,0.112 0.192,0.285 0.148,0.332 1.44,3.548 1.934,4.731 0.293,0.7 0.512,0.8 0.687,0.852 a 1.109,1.109 0 0 0 0.32,0.046 c 0.046,0 0.1,0.018 0.1,0.065 0,0.047 -0.093,0.063 -0.186,0.063 -0.118,0 -0.712,0 -1.274,-0.019 -0.152,-0.01 -0.282,-0.01 -0.282,-0.053 0,-0.045 0.018,-0.037 0.054,-0.055 a 0.149,0.149 0 0 0 0.075,-0.211 l -0.726,-1.787 c -0.018,-0.036 -0.027,-0.046 -0.075,-0.046 h -1.858 a 0.082,0.082 0 0 0 -0.081,0.065 l -0.459,1.246 a 1.608,1.608 0 0 0 -0.119,0.522 c 0,0.155 0.137,0.211 0.275,0.211 h 0.073 c 0.065,0 0.082,0.029 0.082,0.065 0,0.036 -0.046,0.063 -0.117,0.063 -0.193,0 -0.635,-0.027 -0.726,-0.027 -0.091,0 -0.484,0.027 -0.814,0.027 -0.1,0 -0.156,-0.019 -0.156,-0.063 a 0.07,0.07 0 0 1 0.072,-0.065 1.94,1.94 0 0 0 0.24,-0.02 c 0.365,-0.045 0.522,-0.318 0.678,-0.712 z"
         transform="translate(-660.705,-3200.106)"
         fill="#174895" />
    </g>
    <g
       id="Group_37142"
       data-name="Group 37142"
       transform="translate(15.018,50.922)">
      <path
         id="Path_42395"
         data-name="Path 42395"
         d="m 793.5,3204.953 c 0,-0.633 -0.02,-0.723 -0.348,-0.789 -0.065,-0.01 -0.2,-0.017 -0.275,-0.017 a 0.079,0.079 0 0 1 -0.065,-0.066 c 0,-0.056 0.036,-0.063 0.129,-0.063 0.365,0 0.907,0.016 0.954,0.016 0.047,0 0.539,-0.016 0.787,-0.016 0.089,0 0.128,0.01 0.128,0.063 a 0.083,0.083 0 0 1 -0.064,0.066 0.978,0.978 0 0 0 -0.2,0.017 c -0.22,0.037 -0.286,0.156 -0.3,0.432 -0.009,0.248 -0.009,0.474 -0.009,0.807 v 0.868 c 0,0.359 -0.009,0.368 -0.111,0.424 a 4.565,4.565 0 0 1 -4.372,-0.487 2.981,2.981 0 0 1 -0.962,-2.218 2.914,2.914 0 0 1 1.348,-2.556 4.054,4.054 0 0 1 2.145,-0.494 6.686,6.686 0 0 1 1.24,0.128 3.467,3.467 0 0 0 0.648,0.081 c 0.082,0 0.1,0.037 0.1,0.075 0,0.109 -0.044,0.321 -0.044,1.1 0,0.126 -0.038,0.166 -0.091,0.166 -0.053,0 -0.056,-0.046 -0.056,-0.119 a 1.162,1.162 0 0 0 -0.182,-0.515 2.313,2.313 0 0 0 -1.862,-0.6 2.555,2.555 0 0 0 -1.685,0.506 2.413,2.413 0 0 0 -0.8,1.958 3.107,3.107 0 0 0 0.852,2.155 2.885,2.885 0 0 0 2.062,0.816 2.048,2.048 0 0 0 0.873,-0.148 c 0.1,-0.053 0.164,-0.092 0.164,-0.237 z"
         transform="translate(-788.784,-3200.94)"
         fill="#174895" />
    </g>
    <g
       id="Group_37143"
       data-name="Group 37143"
       transform="translate(21.317,51.031)">
      <path
         id="Path_42396"
         data-name="Path 42396"
         d="m 924.76,3207.116 a 1.414,1.414 0 0 0 -0.173,-0.8 c -0.065,-0.12 -1.155,-1.85 -1.433,-2.263 a 1.969,1.969 0 0 0 -0.529,-0.567 0.83,0.83 0 0 0 -0.339,-0.111 0.078,0.078 0 0 1 -0.082,-0.072 c 0,-0.037 0.026,-0.055 0.1,-0.055 0.156,0 0.762,0.018 0.8,0.018 0.052,0 0.386,-0.018 0.7,-0.018 0.093,0 0.109,0.018 0.109,0.055 0,0.037 -0.054,0.055 -0.128,0.081 -0.074,0.026 -0.1,0.066 -0.1,0.129 a 0.636,0.636 0 0 0 0.11,0.3 l 1.465,2.429 c 0.167,-0.33 1.173,-2 1.321,-2.255 a 0.859,0.859 0 0 0 0.137,-0.4 0.183,0.183 0 0 0 -0.128,-0.2 c -0.074,-0.02 -0.121,-0.054 -0.121,-0.09 0,-0.036 0.047,-0.046 0.129,-0.046 0.211,0 0.5,0.018 0.56,0.018 0.06,0 0.633,-0.018 0.788,-0.018 0.057,0 0.1,0.018 0.1,0.046 a 0.094,0.094 0 0 1 -0.1,0.081 0.838,0.838 0 0 0 -0.374,0.1 1.386,1.386 0 0 0 -0.405,0.385 c -0.263,0.312 -1.4,2.144 -1.567,2.474 a 1.563,1.563 0 0 0 -0.1,0.78 v 0.668 c 0,0.13 0,0.459 0.027,0.778 0.018,0.231 0.073,0.379 0.311,0.415 a 3.3,3.3 0 0 0 0.369,0.036 0.063,0.063 0 0 1 0.064,0.065 c 0,0.036 -0.046,0.064 -0.129,0.064 -0.45,0 -0.972,-0.028 -1.018,-0.028 -0.046,0 -0.55,0.028 -0.789,0.028 -0.09,0 -0.128,-0.019 -0.128,-0.064 a 0.062,0.062 0 0 1 0.066,-0.065 1.086,1.086 0 0 0 0.236,-0.036 c 0.166,-0.036 0.222,-0.183 0.238,-0.415 0.019,-0.319 0.019,-0.648 0.019,-0.778 z"
         transform="translate(-922.205,-3203.248)"
         fill="#174895" />
    </g>
    <g
       id="Group_37144"
       data-name="Group 37144"
       transform="translate(26.43,50.883)">
      <path
         id="Path_42397"
         data-name="Path 42397"
         d="m 1034.3,3203.655 c 0.037,0 0.037,-0.019 0.03,-0.055 l -0.8,-2.136 c -0.044,-0.118 -0.093,-0.118 -0.137,0 l -0.751,2.136 c -0.01,0.037 0,0.055 0.027,0.055 z m -0.9,-3.242 c 0.1,-0.257 0.138,-0.307 0.193,-0.307 0.083,0 0.11,0.112 0.192,0.285 0.148,0.332 1.44,3.548 1.934,4.731 0.293,0.7 0.513,0.8 0.687,0.852 a 1.111,1.111 0 0 0 0.32,0.046 c 0.045,0 0.1,0.018 0.1,0.065 0,0.047 -0.093,0.063 -0.186,0.063 -0.117,0 -0.711,0 -1.271,-0.019 -0.154,-0.01 -0.284,-0.01 -0.284,-0.053 0,-0.045 0.018,-0.037 0.054,-0.055 a 0.149,0.149 0 0 0 0.075,-0.211 l -0.725,-1.787 c -0.019,-0.036 -0.029,-0.046 -0.073,-0.046 h -1.861 c -0.036,0 -0.063,0.018 -0.081,0.065 l -0.459,1.246 a 1.616,1.616 0 0 0 -0.119,0.522 c 0,0.155 0.137,0.211 0.277,0.211 h 0.071 c 0.065,0 0.084,0.029 0.084,0.065 0,0.036 -0.045,0.063 -0.119,0.063 -0.193,0 -0.635,-0.027 -0.723,-0.027 -0.088,0 -0.488,0.027 -0.817,0.027 -0.1,0 -0.156,-0.019 -0.156,-0.063 a 0.071,0.071 0 0 1 0.074,-0.065 1.926,1.926 0 0 0 0.238,-0.02 c 0.364,-0.045 0.522,-0.318 0.68,-0.712 z"
         transform="translate(-1030.513,-3200.106)"
         fill="#174895" />
    </g>
    <g
       id="Group_37145"
       data-name="Group 37145"
       transform="translate(33.295,51.031)">
      <path
         id="Path_42398"
         data-name="Path 42398"
         d="m 1177.311,3206.147 a 0.116,0.116 0 0 0 0.054,0.1 2.693,2.693 0 0 0 0.888,0.12 1.048,1.048 0 0 0 0.6,-0.137 1.392,1.392 0 0 0 0.486,-1.194 1.344,1.344 0 0 0 -1.392,-1.53 3.822,3.822 0 0 0 -0.578,0.045 0.1,0.1 0 0 0 -0.063,0.091 z m -0.7,-0.66 c 0,-1.209 0,-1.429 -0.019,-1.678 -0.019,-0.249 -0.064,-0.392 -0.329,-0.428 a 2.139,2.139 0 0 0 -0.274,-0.02 0.075,0.075 0 0 1 -0.066,-0.064 c 0,-0.046 0.036,-0.064 0.13,-0.064 0.367,0 0.905,0.019 0.952,0.019 0.081,0 0.759,-0.019 1.008,-0.019 a 2.633,2.633 0 0 1 1.5,0.339 1.368,1.368 0 0 1 0.559,1.064 2.271,2.271 0 0 1 -0.989,1.779 c 0.66,0.824 1.218,1.529 1.685,2.014 a 1.47,1.47 0 0 0 0.9,0.541 1.409,1.409 0 0 0 0.286,0.029 0.068,0.068 0 0 1 0.072,0.064 c 0,0.045 -0.046,0.064 -0.193,0.064 h -0.5 a 1.613,1.613 0 0 1 -0.86,-0.158 4.081,4.081 0 0 1 -1.1,-1.145 c -0.339,-0.422 -0.7,-0.926 -0.871,-1.137 a 0.125,0.125 0 0 0 -0.109,-0.046 l -1.027,-0.016 c -0.035,0 -0.054,0.016 -0.054,0.063 v 0.183 c 0,0.752 0,1.357 0.035,1.677 0.028,0.23 0.074,0.375 0.321,0.413 a 3.237,3.237 0 0 0 0.358,0.037 0.058,0.058 0 0 1 0.066,0.064 c 0,0.035 -0.039,0.064 -0.131,0.064 -0.438,0 -0.952,-0.029 -0.99,-0.029 -0.01,0 -0.547,0.029 -0.8,0.029 -0.083,0 -0.128,-0.019 -0.128,-0.064 a 0.06,0.06 0 0 1 0.063,-0.064 1.227,1.227 0 0 0 0.248,-0.037 c 0.155,-0.038 0.174,-0.183 0.211,-0.413 a 15.753,15.753 0 0 0 0.046,-1.687 z"
         transform="translate(-1175.926,-3203.232)"
         fill="#174895" />
    </g>
    <g
       id="Group_37146"
       data-name="Group 37146"
       transform="translate(39.105,50.921)">
      <path
         id="Path_42399"
         data-name="Path 42399"
         d="m 1302.386,3206.7 c 0.723,0 2.18,-0.386 2.18,-2.64 0,-1.869 -1.136,-2.85 -2.408,-2.85 a 2.237,2.237 0 0 0 -2.319,2.539 c 0,1.813 1.09,2.951 2.547,2.951 z m -0.183,-5.783 a 2.914,2.914 0 0 1 3.188,2.926 3.122,3.122 0 0 1 -3.234,3.178 2.988,2.988 0 0 1 -3.152,-3.061 3.084,3.084 0 0 1 3.195,-3.045 z"
         transform="translate(-1299.005,-3200.915)"
         fill="#174895" />
    </g>
    <g
       id="Group_37147"
       data-name="Group 37147"
       transform="translate(46.427,51.031)">
      <path
         id="Path_42400"
         data-name="Path 42400"
         d="m 1455.479,3206.147 a 0.116,0.116 0 0 0 0.055,0.1 2.7,2.7 0 0 0 0.888,0.12 1.061,1.061 0 0 0 0.607,-0.137 1.394,1.394 0 0 0 0.483,-1.194 1.344,1.344 0 0 0 -1.392,-1.53 3.779,3.779 0 0 0 -0.577,0.045 0.1,0.1 0 0 0 -0.064,0.091 z m -0.7,-0.66 c 0,-1.209 0,-1.429 -0.018,-1.678 -0.018,-0.249 -0.065,-0.392 -0.331,-0.428 a 2.11,2.11 0 0 0 -0.274,-0.02 0.074,0.074 0 0 1 -0.062,-0.064 c 0,-0.046 0.035,-0.064 0.127,-0.064 0.366,0 0.907,0.019 0.954,0.019 0.079,0 0.758,-0.019 1.007,-0.019 a 2.631,2.631 0 0 1 1.5,0.339 1.371,1.371 0 0 1 0.559,1.064 2.274,2.274 0 0 1 -0.989,1.779 c 0.66,0.824 1.217,1.529 1.685,2.014 a 1.472,1.472 0 0 0 0.9,0.541 1.416,1.416 0 0 0 0.286,0.029 0.067,0.067 0 0 1 0.071,0.064 c 0,0.045 -0.046,0.064 -0.192,0.064 h -0.5 a 1.613,1.613 0 0 1 -0.861,-0.158 4.065,4.065 0 0 1 -1.1,-1.145 c -0.341,-0.422 -0.7,-0.926 -0.873,-1.137 a 0.123,0.123 0 0 0 -0.107,-0.046 l -1.028,-0.016 c -0.035,0 -0.055,0.016 -0.055,0.063 v 0.183 c 0,0.752 0,1.357 0.035,1.677 0.029,0.23 0.074,0.375 0.321,0.413 a 3.19,3.19 0 0 0 0.359,0.037 0.057,0.057 0 0 1 0.064,0.064 c 0,0.035 -0.038,0.064 -0.128,0.064 -0.439,0 -0.952,-0.029 -0.99,-0.029 -0.01,0 -0.549,0.029 -0.8,0.029 -0.084,0 -0.129,-0.019 -0.129,-0.064 a 0.061,0.061 0 0 1 0.064,-0.064 1.2,1.2 0 0 0 0.247,-0.037 c 0.156,-0.038 0.174,-0.183 0.211,-0.413 a 15.753,15.753 0 0 0 0.046,-1.687 z"
         transform="translate(-1454.097,-3203.232)"
         fill="#174895" />
    </g>
    <g
       id="Group_37148"
       data-name="Group 37148"
       transform="translate(52.893,50.912)">
      <path
         id="Path_42401"
         data-name="Path 42401"
         d="m 1591.192,3206.628 c -0.111,-0.054 -0.12,-0.083 -0.12,-0.292 0,-0.385 0.036,-0.7 0.046,-0.826 0,-0.082 0.018,-0.129 0.064,-0.129 0.046,0 0.073,0.03 0.073,0.093 a 1.118,1.118 0 0 0 0.029,0.285 1.184,1.184 0 0 0 1.274,0.769 c 0.8,0 1.21,-0.447 1.21,-1.034 0,-0.56 -0.3,-0.824 -1.017,-1.356 l -0.369,-0.276 c -0.868,-0.652 -1.154,-1.127 -1.154,-1.668 0,-0.918 0.723,-1.466 1.787,-1.466 a 3.749,3.749 0 0 1 0.835,0.093 1.051,1.051 0 0 0 0.283,0.036 c 0.065,0 0.082,0.01 0.082,0.055 a 8.179,8.179 0 0 0 -0.037,0.824 c 0,0.118 -0.01,0.176 -0.064,0.176 -0.057,0 -0.065,-0.039 -0.072,-0.1 a 1.445,1.445 0 0 0 -0.12,-0.386 c -0.055,-0.09 -0.321,-0.384 -1.043,-0.384 -0.587,0 -1.074,0.294 -1.074,0.844 0,0.493 0.248,0.779 1.045,1.317 l 0.23,0.157 c 0.979,0.671 1.318,1.21 1.318,1.878 a 1.512,1.512 0 0 1 -0.75,1.327 2.467,2.467 0 0 1 -1.282,0.276 2.954,2.954 0 0 1 -1.174,-0.213 z"
         transform="translate(-1591.072,-3200.728)"
         fill="#174895" />
    </g>
    <g
       id="Group_37149"
       data-name="Group 37149"
       transform="translate(57.251,50.975)">
      <path
         id="Path_42402"
         data-name="Path 42402"
         d="m 1686.48,3207.64 c 0.853,0 1.071,-0.14 1.255,-0.358 a 1.324,1.324 0 0 0 0.167,-0.422 c 0.017,-0.074 0.044,-0.119 0.09,-0.119 0.046,0 0.063,0.029 0.063,0.174 a 4.37,4.37 0 0 1 -0.163,0.9 c -0.046,0.192 -0.055,0.2 -0.238,0.2 -1.349,0 -2.714,-0.037 -4.125,-0.037 -0.092,0 -0.149,-0.01 -0.149,-0.063 0,-0.039 0.01,-0.093 0.113,-0.24 1.209,-1.749 2.4,-3.481 3.509,-5.213 h -1.702 a 2.867,2.867 0 0 0 -1.146,0.128 0.882,0.882 0 0 0 -0.457,0.612 c -0.02,0.119 -0.065,0.139 -0.11,0.139 -0.045,0 -0.045,-0.038 -0.045,-0.1 0,-0.092 0.119,-0.8 0.166,-1.037 0.01,-0.111 0.026,-0.148 0.071,-0.148 a 2.822,2.822 0 0 0 0.34,0.055 c 0.77,0.029 1.155,0.02 1.411,0.02 h 2.255 c 0.12,0 0.164,0.017 0.164,0.065 a 0.234,0.234 0 0 1 -0.044,0.137 c -1.175,1.8 -2.348,3.537 -3.567,5.307 z"
         transform="translate(-1683.38,-3202.057)"
         fill="#174895" />
    </g>
    <g
       id="Group_37150"
       data-name="Group 37150"
       transform="translate(62.278,49.317)">
      <path
         id="Path_42403"
         data-name="Path 42403"
         d="m 1794.381,3167.425 c 0.044,0.084 0,0.11 -0.037,0.11 a 1.288,1.288 0 0 0 -0.276,0 6.016,6.016 0 0 0 -1.393,0.383 0.487,0.487 0 0 1 -0.137,0.049 0.054,0.054 0 0 1 -0.047,-0.058 c 0,-0.026 0.018,-0.043 0.065,-0.071 0.33,-0.23 1.182,-0.743 1.247,-0.778 0.156,-0.093 0.212,-0.121 0.256,-0.121 0.044,0 0.045,0.019 0.093,0.082 0.065,0.094 0.129,0.221 0.229,0.404 z m -0.715,4.63 c 0.037,0 0.037,-0.02 0.028,-0.057 l -0.8,-2.136 c -0.044,-0.117 -0.09,-0.117 -0.137,0 l -0.752,2.136 c -0.01,0.037 0,0.057 0.031,0.057 z m -0.9,-3.246 c 0.1,-0.258 0.136,-0.3 0.191,-0.3 0.082,0 0.11,0.11 0.192,0.285 0.148,0.331 1.44,3.545 1.934,4.729 0.293,0.7 0.513,0.8 0.687,0.852 a 1.141,1.141 0 0 0 0.32,0.045 c 0.048,0 0.1,0.018 0.1,0.065 0,0.047 -0.092,0.064 -0.183,0.064 -0.12,0 -0.714,0 -1.275,-0.019 -0.156,-0.01 -0.284,-0.01 -0.284,-0.053 0,-0.044 0.019,-0.038 0.057,-0.057 a 0.148,0.148 0 0 0 0.072,-0.211 l -0.724,-1.787 c -0.019,-0.036 -0.027,-0.044 -0.072,-0.044 h -1.862 a 0.079,0.079 0 0 0 -0.079,0.064 l -0.46,1.245 a 1.588,1.588 0 0 0 -0.12,0.523 c 0,0.155 0.136,0.211 0.275,0.211 h 0.073 c 0.064,0 0.083,0.027 0.083,0.065 0,0.038 -0.044,0.064 -0.12,0.064 -0.191,0 -0.633,-0.028 -0.723,-0.028 -0.09,0 -0.484,0.028 -0.816,0.028 -0.1,0 -0.156,-0.019 -0.156,-0.064 a 0.071,0.071 0 0 1 0.073,-0.065 2.28,2.28 0 0 0 0.24,-0.019 c 0.366,-0.046 0.523,-0.32 0.679,-0.715 z"
         transform="translate(-1789.881,-3166.94)"
         fill="#174895" />
    </g>
    <g
       id="Group_37151"
       data-name="Group 37151"
       transform="translate(68.189,50.922)">
      <path
         id="Path_42404"
         data-name="Path 42404"
         d="m 1919.791,3204.953 c 0,-0.633 -0.019,-0.723 -0.349,-0.789 -0.063,-0.01 -0.2,-0.017 -0.272,-0.017 a 0.079,0.079 0 0 1 -0.065,-0.066 c 0,-0.056 0.036,-0.063 0.129,-0.063 0.365,0 0.907,0.016 0.954,0.016 0.047,0 0.539,-0.016 0.787,-0.016 0.09,0 0.129,0.01 0.129,0.063 a 0.083,0.083 0 0 1 -0.064,0.066 0.973,0.973 0 0 0 -0.2,0.017 c -0.22,0.037 -0.286,0.156 -0.3,0.432 -0.01,0.248 -0.01,0.474 -0.01,0.807 v 0.868 c 0,0.359 -0.01,0.368 -0.111,0.424 a 4.565,4.565 0 0 1 -4.372,-0.487 2.981,2.981 0 0 1 -0.962,-2.218 2.914,2.914 0 0 1 1.348,-2.556 4.054,4.054 0 0 1 2.145,-0.494 6.689,6.689 0 0 1 1.24,0.128 3.462,3.462 0 0 0 0.648,0.081 c 0.082,0 0.1,0.037 0.1,0.075 0,0.109 -0.044,0.321 -0.044,1.1 0,0.126 -0.038,0.166 -0.093,0.166 -0.055,0 -0.055,-0.046 -0.055,-0.119 a 1.173,1.173 0 0 0 -0.182,-0.515 2.314,2.314 0 0 0 -1.862,-0.6 2.555,2.555 0 0 0 -1.685,0.506 2.413,2.413 0 0 0 -0.8,1.958 3.1,3.1 0 0 0 0.852,2.155 2.884,2.884 0 0 0 2.061,0.816 2.051,2.051 0 0 0 0.873,-0.148 c 0.1,-0.053 0.163,-0.092 0.163,-0.237 z"
         transform="translate(-1915.08,-3200.94)"
         fill="#174895" />
    </g>
    <g
       id="Group_37152"
       data-name="Group 37152"
       transform="translate(10.757,59.731)">
      <path
         id="Path_42405"
         data-name="Path 42405"
         d="m 699.314,3390.185 c 0,-1.431 0,-1.687 -0.019,-1.979 -0.017,-0.312 -0.09,-0.457 -0.394,-0.523 a 1.69,1.69 0 0 0 -0.311,-0.028 c -0.035,0 -0.073,-0.016 -0.073,-0.055 0,-0.039 0.046,-0.073 0.147,-0.073 0.412,0 0.952,0.028 1.006,0.028 0.084,0 0.616,-0.028 0.89,-0.028 0.1,0 0.147,0.02 0.147,0.073 0,0.053 -0.037,0.055 -0.075,0.055 a 1.362,1.362 0 0 0 -0.227,0.028 c -0.248,0.045 -0.321,0.2 -0.34,0.523 -0.016,0.292 -0.016,0.548 -0.016,1.979 v 0.55 h 0.036 c 0.156,-0.175 1.815,-1.86 2.146,-2.216 0.256,-0.267 0.493,-0.5 0.493,-0.662 a 0.181,0.181 0 0 0 -0.118,-0.192 c -0.047,-0.017 -0.083,-0.036 -0.083,-0.073 0,-0.037 0.045,-0.065 0.111,-0.065 0.182,0 0.466,0.028 0.688,0.028 0.045,0 0.647,-0.028 0.879,-0.028 0.1,0 0.137,0.02 0.137,0.065 0,0.045 -0.018,0.064 -0.09,0.064 a 1.377,1.377 0 0 0 -0.514,0.129 3.393,3.393 0 0 0 -0.989,0.789 c -0.232,0.219 -1.823,1.776 -2.018,2.008 0.24,0.264 2.145,2.235 2.521,2.583 a 4.243,4.243 0 0 0 1.366,1.044 1.661,1.661 0 0 0 0.568,0.119 c 0.064,0 0.118,0.019 0.118,0.056 0,0.037 -0.046,0.071 -0.2,0.071 h -0.468 c -0.257,0 -0.43,0 -0.632,-0.015 a 1.9,1.9 0 0 1 -1.11,-0.562 c -0.411,-0.337 -2.354,-2.438 -2.794,-2.976 h -0.045 v 0.9 c 0,0.881 0,1.605 0.045,1.99 0.027,0.265 0.083,0.468 0.356,0.5 a 2.96,2.96 0 0 0 0.358,0.036 c 0.058,0 0.074,0.028 0.074,0.056 0,0.046 -0.046,0.071 -0.147,0.071 -0.447,0 -0.979,-0.026 -1.054,-0.026 -0.075,0 -0.6,0.026 -0.879,0.026 -0.1,0 -0.147,-0.015 -0.147,-0.071 0,-0.029 0.019,-0.056 0.074,-0.056 a 1.323,1.323 0 0 0 0.274,-0.036 c 0.183,-0.036 0.229,-0.239 0.266,-0.5 0.046,-0.384 0.046,-1.109 0.046,-1.99 z"
         transform="translate(-698.517,-3387.527)"
         fill="#174895" />
    </g>
    <g
       id="Group_37153"
       data-name="Group 37153"
       transform="translate(17.256,60.657)">
      <path
         id="Path_42406"
         data-name="Path 42406"
         d="m 839.56,3412.935 c 0.723,0 2.18,-0.386 2.18,-2.639 0,-1.87 -1.136,-2.851 -2.408,-2.851 a 2.237,2.237 0 0 0 -2.319,2.539 c 0,1.816 1.087,2.951 2.547,2.951 z m -0.184,-5.783 a 2.915,2.915 0 0 1 3.19,2.924 3.123,3.123 0 0 1 -3.234,3.18 2.988,2.988 0 0 1 -3.152,-3.061 3.083,3.083 0 0 1 3.196,-3.043 z"
         transform="translate(-836.18,-3407.152)"
         fill="#174895" />
    </g>
    <g
       id="Group_37154"
       data-name="Group 37154"
       transform="translate(24.578,60.767)">
      <path
         id="Path_42407"
         data-name="Path 42407"
         d="m 992.676,3412.385 a 0.116,0.116 0 0 0 0.055,0.1 2.692,2.692 0 0 0 0.888,0.121 1.062,1.062 0 0 0 0.607,-0.137 1.4,1.4 0 0 0 0.484,-1.193 1.345,1.345 0 0 0 -1.392,-1.53 3.5,3.5 0 0 0 -0.578,0.045 0.1,0.1 0 0 0 -0.063,0.09 z m -0.7,-0.661 c 0,-1.207 0,-1.428 -0.019,-1.677 -0.019,-0.249 -0.063,-0.392 -0.329,-0.428 a 2.111,2.111 0 0 0 -0.274,-0.021 0.074,0.074 0 0 1 -0.064,-0.064 c 0,-0.045 0.035,-0.065 0.128,-0.065 0.366,0 0.9,0.019 0.954,0.019 0.079,0 0.758,-0.019 1.006,-0.019 a 2.636,2.636 0 0 1 1.5,0.339 1.372,1.372 0 0 1 0.559,1.064 2.273,2.273 0 0 1 -0.99,1.779 c 0.659,0.824 1.218,1.529 1.686,2.014 a 1.483,1.483 0 0 0 0.9,0.541 1.439,1.439 0 0 0 0.286,0.029 0.068,0.068 0 0 1 0.071,0.065 c 0,0.043 -0.046,0.063 -0.192,0.063 h -0.5 a 1.618,1.618 0 0 1 -0.86,-0.156 4.078,4.078 0 0 1 -1.1,-1.145 c -0.34,-0.422 -0.7,-0.926 -0.871,-1.138 a 0.121,0.121 0 0 0 -0.109,-0.047 l -1.026,-0.015 c -0.035,0 -0.055,0.015 -0.055,0.062 v 0.184 c 0,0.752 0,1.357 0.035,1.677 0.028,0.23 0.074,0.375 0.321,0.413 a 3.145,3.145 0 0 0 0.357,0.037 0.058,0.058 0 0 1 0.066,0.065 c 0,0.035 -0.039,0.063 -0.13,0.063 -0.438,0 -0.951,-0.027 -0.991,-0.027 -0.009,0 -0.547,0.027 -0.794,0.027 -0.084,0 -0.129,-0.019 -0.129,-0.062 a 0.061,0.061 0 0 1 0.063,-0.065 1.209,1.209 0 0 0 0.248,-0.037 c 0.156,-0.038 0.174,-0.183 0.211,-0.413 a 16.089,16.089 0 0 0 0.045,-1.687 z"
         transform="translate(-991.292,-3409.469)"
         fill="#174895" />
    </g>
    <g
       id="Group_37155"
       data-name="Group 37155"
       transform="translate(30.931,60.658)">
      <path
         id="Path_42408"
         data-name="Path 42408"
         d="m 1132.924,3412.154 c 0.028,0.277 0.083,0.7 0.413,0.806 a 1.711,1.711 0 0 0 0.521,0.073 c 0.038,0 0.066,0.02 0.066,0.056 0,0.036 -0.073,0.073 -0.166,0.073 -0.182,0 -1.08,-0.016 -1.374,-0.043 -0.193,-0.02 -0.229,-0.046 -0.229,-0.086 a 0.068,0.068 0 0 1 0.055,-0.062 c 0.045,-0.01 0.055,-0.128 0.037,-0.274 l -0.386,-3.942 h -0.018 l -1.943,3.978 c -0.165,0.34 -0.213,0.413 -0.284,0.413 -0.071,0 -0.12,-0.073 -0.275,-0.359 -0.212,-0.384 -0.744,-1.382 -0.943,-1.805 -0.239,-0.493 -0.891,-1.8 -1.027,-2.125 h -0.039 l -0.31,3.521 c -0.01,0.117 -0.01,0.264 -0.01,0.393 a 0.217,0.217 0 0 0 0.193,0.219 1.206,1.206 0 0 0 0.311,0.045 c 0.028,0 0.066,0.029 0.066,0.056 0,0.057 -0.055,0.073 -0.148,0.073 -0.3,0 -0.686,-0.026 -0.751,-0.026 -0.065,0 -0.459,0.026 -0.677,0.026 -0.083,0 -0.139,-0.016 -0.139,-0.073 0,-0.027 0.038,-0.056 0.084,-0.056 a 1.491,1.491 0 0 0 0.235,-0.025 c 0.266,-0.048 0.277,-0.331 0.313,-0.624 l 0.586,-5.085 c 0.01,-0.084 0.045,-0.138 0.093,-0.138 a 0.181,0.181 0 0 1 0.164,0.12 l 2.438,4.839 2.346,-4.83 c 0.038,-0.075 0.074,-0.129 0.128,-0.129 0.054,0 0.1,0.065 0.122,0.211 z"
         transform="translate(-1125.868,-3407.16)"
         fill="#174895" />
    </g>
    <g
       id="Group_37156"
       data-name="Group 37156"
       transform="translate(39.273,59.055)">
      <path
         id="Path_42409"
         data-name="Path 42409"
         d="m 1307.058,3373.682 c 0.044,0.084 0,0.111 -0.037,0.111 a 1.219,1.219 0 0 0 -0.276,0 5.847,5.847 0 0 0 -1.391,0.384 0.572,0.572 0 0 1 -0.139,0.047 0.054,0.054 0 0 1 -0.047,-0.056 c 0,-0.028 0.02,-0.045 0.066,-0.071 0.329,-0.23 1.181,-0.745 1.246,-0.78 0.156,-0.092 0.212,-0.119 0.256,-0.119 0.044,0 0.045,0.017 0.092,0.08 0.065,0.093 0.129,0.222 0.23,0.404 z m -0.715,4.63 c 0.037,0 0.037,-0.018 0.028,-0.056 l -0.8,-2.135 c -0.044,-0.118 -0.091,-0.118 -0.136,0 l -0.753,2.135 c -0.01,0.038 0,0.056 0.031,0.056 z m -0.9,-3.244 c 0.1,-0.257 0.137,-0.3 0.191,-0.3 0.084,0 0.11,0.109 0.192,0.284 0.148,0.332 1.44,3.547 1.935,4.729 0.292,0.7 0.514,0.8 0.688,0.852 a 1.061,1.061 0 0 0 0.32,0.046 c 0.047,0 0.1,0.019 0.1,0.064 0,0.045 -0.094,0.064 -0.184,0.064 -0.12,0 -0.714,0 -1.275,-0.019 -0.156,-0.01 -0.284,-0.01 -0.284,-0.053 0,-0.044 0.02,-0.037 0.057,-0.056 a 0.147,0.147 0 0 0 0.072,-0.211 l -0.724,-1.787 c -0.018,-0.037 -0.026,-0.045 -0.073,-0.045 h -1.858 a 0.082,0.082 0 0 0 -0.079,0.065 l -0.46,1.243 a 1.591,1.591 0 0 0 -0.119,0.524 c 0,0.156 0.136,0.211 0.274,0.211 h 0.073 c 0.064,0 0.083,0.028 0.083,0.064 0,0.036 -0.045,0.064 -0.119,0.064 -0.192,0 -0.634,-0.028 -0.725,-0.028 -0.091,0 -0.482,0.028 -0.815,0.028 -0.1,0 -0.154,-0.019 -0.154,-0.064 a 0.07,0.07 0 0 1 0.071,-0.064 2.074,2.074 0 0 0 0.24,-0.018 c 0.367,-0.045 0.523,-0.32 0.679,-0.716 z"
         transform="translate(-1302.559,-3373.198)"
         fill="#174895" />
    </g>
    <g
       id="Group_37157"
       data-name="Group 37157"
       transform="translate(46.134,60.657)">
      <path
         id="Path_42410"
         data-name="Path 42410"
         d="m 1449.03,3412.083 c 0.018,0.642 0.092,0.835 0.311,0.888 a 1.767,1.767 0 0 0 0.4,0.046 0.064,0.064 0 0 1 0.066,0.066 c 0,0.046 -0.055,0.063 -0.148,0.063 -0.458,0 -0.779,-0.025 -0.852,-0.025 -0.073,0 -0.41,0.025 -0.778,0.025 -0.083,0 -0.13,-0.01 -0.13,-0.063 a 0.065,0.065 0 0 1 0.066,-0.066 1.159,1.159 0 0 0 0.328,-0.046 c 0.2,-0.052 0.23,-0.264 0.23,-0.969 v -4.463 c 0,-0.31 0.045,-0.395 0.109,-0.395 0.092,0 0.229,0.156 0.311,0.237 0.129,0.13 1.3,1.377 2.549,2.658 0.8,0.824 1.659,1.751 1.906,2.008 l -0.083,-3.905 c -0.01,-0.5 -0.056,-0.678 -0.3,-0.722 a 2.3,2.3 0 0 0 -0.394,-0.039 0.063,0.063 0 0 1 -0.065,-0.072 c 0,-0.046 0.065,-0.055 0.157,-0.055 0.365,0 0.749,0.019 0.841,0.019 0.092,0 0.359,-0.019 0.687,-0.019 0.082,0 0.147,0.01 0.147,0.055 a 0.089,0.089 0 0 1 -0.092,0.072 0.836,0.836 0 0 0 -0.191,0.02 c -0.267,0.055 -0.286,0.211 -0.286,0.676 l -0.016,4.566 c 0,0.511 -0.01,0.561 -0.065,0.561 -0.082,0 -0.167,-0.066 -0.614,-0.478 -0.084,-0.074 -1.246,-1.218 -2.1,-2.108 -0.934,-0.981 -1.84,-1.932 -2.089,-2.208 z"
         transform="translate(-1447.901,-3407.145)"
         fill="#174895" />
    </g>
    <g
       id="Group_37158"
       data-name="Group 37158"
       transform="translate(53.193,60.766)">
      <path
         id="Path_42411"
         data-name="Path 42411"
         d="m 1599.973,3413.33 a 1.415,1.415 0 0 0 -0.173,-0.8 c -0.065,-0.12 -1.155,-1.851 -1.433,-2.264 a 1.962,1.962 0 0 0 -0.53,-0.567 0.777,0.777 0 0 0 -0.338,-0.111 0.079,0.079 0 0 1 -0.082,-0.073 c 0,-0.036 0.025,-0.055 0.1,-0.055 0.156,0 0.762,0.02 0.8,0.02 0.038,0 0.385,-0.02 0.7,-0.02 0.091,0 0.108,0.02 0.108,0.055 0,0.035 -0.052,0.056 -0.126,0.083 a 0.134,0.134 0 0 0 -0.1,0.128 0.646,0.646 0 0 0 0.11,0.3 l 1.466,2.428 c 0.167,-0.329 1.173,-2 1.32,-2.254 a 0.848,0.848 0 0 0 0.138,-0.4 0.18,0.18 0 0 0 -0.127,-0.2 c -0.074,-0.02 -0.121,-0.055 -0.121,-0.092 0,-0.037 0.047,-0.046 0.129,-0.046 0.211,0 0.5,0.02 0.56,0.02 0.06,0 0.632,-0.02 0.787,-0.02 0.057,0 0.1,0.02 0.1,0.046 a 0.093,0.093 0 0 1 -0.1,0.083 0.821,0.821 0 0 0 -0.374,0.1 1.377,1.377 0 0 0 -0.406,0.385 c -0.263,0.312 -1.4,2.144 -1.567,2.475 a 1.559,1.559 0 0 0 -0.1,0.779 v 0.67 c 0,0.129 0,0.459 0.029,0.778 0.019,0.232 0.072,0.377 0.311,0.415 a 3.3,3.3 0 0 0 0.367,0.036 0.063,0.063 0 0 1 0.065,0.065 c 0,0.036 -0.046,0.062 -0.129,0.062 -0.449,0 -0.972,-0.025 -1.016,-0.025 -0.044,0 -0.551,0.025 -0.791,0.025 -0.09,0 -0.126,-0.016 -0.126,-0.062 a 0.062,0.062 0 0 1 0.066,-0.065 1.117,1.117 0 0 0 0.235,-0.036 c 0.165,-0.038 0.222,-0.183 0.238,-0.415 0.02,-0.319 0.02,-0.648 0.02,-0.778 z"
         transform="translate(-1597.418,-3409.461)"
         fill="#174895" />
    </g>
    <g
       id="Group_37159"
       data-name="Group 37159"
       transform="translate(58.305,60.619)">
      <path
         id="Path_42412"
         data-name="Path 42412"
         d="m 1709.489,3409.892 c 0.037,0 0.037,-0.02 0.029,-0.055 l -0.8,-2.136 c -0.044,-0.118 -0.091,-0.118 -0.137,0 l -0.751,2.136 c -0.01,0.035 0,0.055 0.028,0.055 z m -0.9,-3.243 c 0.1,-0.258 0.138,-0.306 0.191,-0.306 0.084,0 0.11,0.113 0.193,0.285 0.148,0.332 1.438,3.548 1.934,4.729 0.293,0.7 0.513,0.8 0.688,0.852 a 1.116,1.116 0 0 0 0.319,0.046 c 0.047,0 0.1,0.019 0.1,0.064 0,0.045 -0.094,0.065 -0.186,0.065 -0.118,0 -0.712,0 -1.273,-0.02 -0.154,-0.01 -0.282,-0.01 -0.282,-0.053 0,-0.045 0.019,-0.037 0.054,-0.056 a 0.148,0.148 0 0 0 0.074,-0.21 l -0.725,-1.787 c -0.019,-0.037 -0.027,-0.045 -0.075,-0.045 h -1.858 a 0.085,0.085 0 0 0 -0.082,0.064 l -0.458,1.246 a 1.627,1.627 0 0 0 -0.119,0.523 c 0,0.155 0.137,0.21 0.274,0.21 h 0.073 c 0.065,0 0.082,0.028 0.082,0.064 0,0.036 -0.046,0.065 -0.117,0.065 -0.193,0 -0.636,-0.028 -0.726,-0.028 -0.09,0 -0.485,0.028 -0.814,0.028 -0.1,0 -0.156,-0.02 -0.156,-0.065 a 0.07,0.07 0 0 1 0.072,-0.064 2.267,2.267 0 0 0 0.24,-0.019 c 0.365,-0.046 0.521,-0.319 0.678,-0.714 z"
         transform="translate(-1705.705,-3406.344)"
         fill="#174895" />
    </g>
    <g
       id="Group_37160"
       data-name="Group 37160"
       transform="translate(96.461,0.015)">
      <rect
         id="Rectangle_15693"
         data-name="Rectangle 15693"
         width="66.505997"
         height="44.452999"
         fill="#174895"
         x="0"
         y="0" />
    </g>
    <g
       id="Group_37161"
       data-name="Group 37161"
       transform="translate(127.311,4.78)">
      <path
         id="Path_42413"
         data-name="Path 42413"
         d="m 3169.9,2227.073 -1.5,1.03 0.575,-1.691 -1.541,-1.091 h 1.915 l 0.608,-1.789 0.559,1.789 h 1.905 l -1.567,1.1 0.519,1.7 z"
         transform="translate(-3167.428,-2223.531)"
         fill="#ffcb27" />
    </g>
    <g
       id="Group_37162"
       data-name="Group 37162"
       transform="translate(127.311,35.16)">
      <path
         id="Path_42414"
         data-name="Path 42414"
         d="m 3169.9,2870.6 -1.5,1.033 0.575,-1.692 -1.541,-1.093 h 1.915 l 0.608,-1.792 0.559,1.792 h 1.905 l -1.567,1.095 0.519,1.7 z"
         transform="translate(-3167.428,-2867.057)"
         fill="#ffcb27" />
    </g>
    <g
       id="Group_37163"
       data-name="Group 37163"
       transform="translate(112.158,19.949)">
      <path
         id="Path_42415"
         data-name="Path 42415"
         d="m 2848.937,2548.377 -1.5,1.032 0.575,-1.691 -1.544,-1.094 h 1.918 l 0.608,-1.79 0.557,1.79 h 1.906 l -1.564,1.1 0.515,1.7 z"
         transform="translate(-2846.464,-2544.835)"
         fill="#ffcb27" />
    </g>
    <g
       id="Group_37164"
       data-name="Group 37164"
       transform="translate(114.315,12.211)">
      <path
         id="Path_42416"
         data-name="Path 42416"
         d="m 2894.627,2384.47 -1.505,1.031 0.577,-1.691 -1.543,-1.091 h 1.916 l 0.608,-1.792 0.556,1.792 h 1.908 l -1.567,1.095 0.517,1.7 z"
         transform="translate(-2892.156,-2380.927)"
         fill="#ffcb27" />
    </g>
    <g
       id="Group_37165"
       data-name="Group 37165"
       transform="translate(119.669,6.769)">
      <path
         id="Path_42417"
         data-name="Path 42417"
         d="m 3008.035,2269.189 -1.5,1.033 0.576,-1.693 -1.543,-1.091 h 1.918 l 0.6,-1.791 0.558,1.791 h 1.91 l -1.567,1.095 0.519,1.7 z"
         transform="translate(-3005.565,-2265.647)"
         fill="#ffcb27" />
    </g>
    <g
       id="Group_37166"
       data-name="Group 37166"
       transform="translate(134.689,6.769)">
      <path
         id="Path_42418"
         data-name="Path 42418"
         d="m 3326.189,2269.189 -1.5,1.033 0.576,-1.693 -1.543,-1.091 h 1.917 l 0.6,-1.791 0.558,1.791 h 1.91 l -1.567,1.095 0.515,1.7 z"
         transform="translate(-3323.719,-2265.647)"
         fill="#ffcb27" />
    </g>
    <g
       id="Group_37167"
       data-name="Group 37167"
       transform="translate(140.174,12.211)">
      <path
         id="Path_42419"
         data-name="Path 42419"
         d="m 3442.388,2384.47 -1.505,1.031 0.577,-1.691 -1.545,-1.091 h 1.917 l 0.608,-1.792 0.558,1.792 h 1.908 l -1.567,1.095 0.516,1.7 z"
         transform="translate(-3439.915,-2380.927)"
         fill="#ffcb27" />
    </g>
    <g
       id="Group_37168"
       data-name="Group 37168"
       transform="translate(114.25,27.49)">
      <path
         id="Path_42420"
         data-name="Path 42420"
         d="m 2893.244,2708.115 -1.505,1.034 0.575,-1.7 -1.541,-1.09 h 1.914 l 0.609,-1.792 0.559,1.792 h 1.905 l -1.567,1.094 0.519,1.7 z"
         transform="translate(-2890.773,-2704.573)"
         fill="#ffcb27" />
    </g>
    <g
       id="Group_37169"
       data-name="Group 37169"
       transform="translate(119.605,33.13)">
      <path
         id="Path_42421"
         data-name="Path 42421"
         d="m 3006.671,2827.588 -1.5,1.034 0.575,-1.693 -1.541,-1.092 h 1.915 l 0.608,-1.789 0.557,1.789 h 1.909 l -1.57,1.1 0.518,1.7 z"
         transform="translate(-3004.202,-2824.048)"
         fill="#ffcb27" />
    </g>
    <g
       id="Group_37170"
       data-name="Group 37170"
       transform="translate(134.822,33.13)">
      <path
         id="Path_42422"
         data-name="Path 42422"
         d="m 3329,2827.588 -1.507,1.034 0.577,-1.693 -1.541,-1.092 h 1.913 l 0.61,-1.789 0.559,1.789 h 1.905 l -1.567,1.1 0.518,1.7 z"
         transform="translate(-3326.531,-2824.048)"
         fill="#ffcb27" />
    </g>
    <g
       id="Group_37171"
       data-name="Group 37171"
       transform="translate(140.242,27.49)">
      <path
         id="Path_42423"
         data-name="Path 42423"
         d="m 3443.813,2708.115 -1.5,1.034 0.575,-1.7 -1.542,-1.09 h 1.914 l 0.608,-1.792 0.557,1.792 h 1.907 l -1.565,1.094 0.515,1.7 z"
         transform="translate(-3441.344,-2704.573)"
         fill="#ffcb27" />
    </g>
    <g
       id="Group_37172"
       data-name="Group 37172"
       transform="translate(142.265,19.949)">
      <path
         id="Path_42424"
         data-name="Path 42424"
         d="m 3486.669,2548.377 -1.5,1.032 0.576,-1.691 -1.543,-1.094 h 1.917 l 0.606,-1.79 0.558,1.79 h 1.909 l -1.571,1.1 0.518,1.7 z"
         transform="translate(-3484.198,-2544.835)"
         fill="#ffcb27" />
    </g>
    <g
       id="Group_37173"
       data-name="Group 37173"
       transform="translate(96.455,50.977)">
      <path
         id="Path_42425"
         data-name="Path 42425"
         d="m 2515.543,3205.591 h 2.016 l -0.62,-1.648 q -0.284,-0.75 -0.422,-1.233 a 7.516,7.516 0 0 1 -0.321,1.137 z m -1.716,2.443 2.284,-5.949 h 0.848 l 2.435,5.949 h -0.9 l -0.694,-1.8 h -2.488 l -0.652,1.8 z"
         transform="translate(-2513.827,-3202.085)"
         fill="#174895" />
    </g>
    <g
       id="Group_37174"
       data-name="Group 37174"
       transform="translate(102.949,52.615)">
      <path
         id="Path_42426"
         data-name="Path 42426"
         d="m 2651.394,3241.112 v -0.592 l 2.744,-3.15 c -0.312,0.016 -0.585,0.025 -0.824,0.025 h -1.757 v -0.593 h 3.523 v 0.483 l -2.334,2.735 -0.449,0.5 c 0.327,-0.025 0.634,-0.037 0.921,-0.037 h 1.993 v 0.629 z"
         transform="translate(-2651.394,-3236.802)"
         fill="#174895" />
    </g>
    <g
       id="Group_37175"
       data-name="Group 37175"
       transform="translate(110.94,50.977)">
      <path
         id="Path_42427"
         data-name="Path 42427"
         d="m 2820.665,3208.034 v -5.949 h 4.3 v 0.7 h -3.514 v 1.822 h 3.291 v 0.7 h -3.291 v 2.024 h 3.651 v 0.7 z"
         transform="translate(-2820.665,-3202.085)"
         fill="#174895" />
    </g>
    <g
       id="Group_37176"
       data-name="Group 37176"
       transform="translate(116.681,52.615)">
      <path
         id="Path_42428"
         data-name="Path 42428"
         d="m 2945.1,3241.112 v -0.633 a 1.577,1.577 0 0 1 -1.367,0.73 1.73,1.73 0 0 1 -0.712,-0.146 1.177,1.177 0 0 1 -0.492,-0.367 1.385,1.385 0 0 1 -0.225,-0.542 3.815,3.815 0 0 1 -0.044,-0.682 v -2.67 h 0.73 v 2.391 a 4.256,4.256 0 0 0 0.044,0.771 0.767,0.767 0 0 0 0.292,0.452 0.9,0.9 0 0 0 0.553,0.164 1.19,1.19 0 0 0 0.616,-0.169 0.927,0.927 0 0 0 0.408,-0.458 2.29,2.29 0 0 0 0.12,-0.842 v -2.31 h 0.729 v 4.31 z"
         transform="translate(-2942.261,-3236.802)"
         fill="#174895" />
    </g>
    <g
       id="Group_37177"
       data-name="Group 37177"
       transform="translate(121.75,52.518)">
      <path
         id="Path_42429"
         data-name="Path 42429"
         d="m 3049.631,3239.139 v -4.309 h 0.657 v 0.653 a 1.8,1.8 0 0 1 0.464,-0.6 0.82,0.82 0 0 1 0.469,-0.146 1.428,1.428 0 0 1 0.75,0.236 l -0.252,0.678 a 1.047,1.047 0 0 0 -0.535,-0.158 0.7,0.7 0 0 0 -0.43,0.144 0.783,0.783 0 0 0 -0.271,0.4 2.839,2.839 0 0 0 -0.123,0.852 v 2.256 z"
         transform="translate(-3049.631,-3234.731)"
         fill="#174895" />
    </g>
    <g
       id="Group_37178"
       data-name="Group 37178"
       transform="translate(124.731,50.944)">
      <path
         id="Path_42430"
         data-name="Path 42430"
         d="m 3114.4,3202.525 0.539,-1.135 h 0.958 l -0.892,1.135 z m -0.865,2.691 a 1.832,1.832 0 0 0 0.362,1.24 1.2,1.2 0 0 0 1.814,0 1.872,1.872 0 0 0 0.362,-1.262 1.778,1.778 0 0 0 -0.364,-1.212 1.2,1.2 0 0 0 -1.812,0 1.821,1.821 0 0 0 -0.366,1.234 z m -0.75,0 a 2.221,2.221 0 0 1 0.666,-1.773 2.008,2.008 0 0 1 1.356,-0.479 1.931,1.931 0 0 1 1.452,0.583 2.216,2.216 0 0 1 0.563,1.609 2.855,2.855 0 0 1 -0.249,1.308 1.756,1.756 0 0 1 -0.727,0.742 2.111,2.111 0 0 1 -1.04,0.263 1.937,1.937 0 0 1 -1.463,-0.58 2.315,2.315 0 0 1 -0.562,-1.673 z"
         transform="translate(-3112.781,-3201.39)"
         fill="#174895" />
    </g>
    <g
       id="Group_37179"
       data-name="Group 37179"
       transform="translate(130.11,52.517)">
      <path
         id="Path_42431"
         data-name="Path 42431"
         d="m 3227.386,3237 a 1.866,1.866 0 0 0 0.336,1.228 1.032,1.032 0 0 0 0.816,0.4 1.057,1.057 0 0 0 0.833,-0.411 1.962,1.962 0 0 0 0.347,-1.278 1.9,1.9 0 0 0 -0.339,-1.233 1.021,1.021 0 0 0 -0.81,-0.409 1.05,1.05 0 0 0 -0.825,0.436 1.948,1.948 0 0 0 -0.358,1.267 z m -0.663,3.782 v -5.963 h 0.666 v 0.561 a 1.645,1.645 0 0 1 0.533,-0.493 1.45,1.45 0 0 1 0.718,-0.166 1.706,1.706 0 0 1 0.974,0.285 1.739,1.739 0 0 1 0.636,0.8 3.11,3.11 0 0 1 -0.021,2.326 1.8,1.8 0 0 1 -1.642,1.093 1.388,1.388 0 0 1 -0.655,-0.153 1.5,1.5 0 0 1 -0.477,-0.39 v 2.1 z"
         transform="translate(-3226.723,-3234.723)"
         fill="#174895" />
    </g>
    <g
       id="Group_37180"
       data-name="Group 37180"
       transform="translate(134.933,52.517)">
      <path
         id="Path_42432"
         data-name="Path 42432"
         d="m 3331.884,3236.964 a 5.356,5.356 0 0 1 -1.192,0.277 2.741,2.741 0 0 0 -0.638,0.146 0.638,0.638 0 0 0 -0.288,0.237 0.646,0.646 0 0 0 0.12,0.834 0.952,0.952 0 0 0 0.648,0.2 1.51,1.51 0 0 0 0.75,-0.185 1.141,1.141 0 0 0 0.483,-0.505 1.786,1.786 0 0 0 0.116,-0.731 z m 0.062,1.632 a 2.714,2.714 0 0 1 -0.781,0.488 2.28,2.28 0 0 1 -0.806,0.141 1.564,1.564 0 0 1 -1.093,-0.347 1.141,1.141 0 0 1 -0.381,-0.886 1.171,1.171 0 0 1 0.144,-0.577 1.189,1.189 0 0 1 0.376,-0.421 1.79,1.79 0 0 1 0.526,-0.24 5.457,5.457 0 0 1 0.649,-0.11 6.671,6.671 0 0 0 1.3,-0.251 c 0,-0.1 0.01,-0.164 0.01,-0.19 a 0.807,0.807 0 0 0 -0.208,-0.63 1.223,1.223 0 0 0 -0.831,-0.248 1.286,1.286 0 0 0 -0.761,0.181 1.113,1.113 0 0 0 -0.365,0.64 l -0.712,-0.1 a 1.744,1.744 0 0 1 0.321,-0.739 1.39,1.39 0 0 1 0.644,-0.434 2.877,2.877 0 0 1 0.98,-0.154 2.594,2.594 0 0 1 0.9,0.131 1.188,1.188 0 0 1 0.506,0.327 1.134,1.134 0 0 1 0.228,0.5 4.206,4.206 0 0 1 0.036,0.672 v 0.976 a 9.8,9.8 0 0 0 0.049,1.289 1.607,1.607 0 0 0 0.183,0.516 h -0.762 a 1.5,1.5 0 0 1 -0.147,-0.53 z"
         transform="translate(-3328.886,-3234.719)"
         fill="#174895" />
    </g>
    <g
       id="Group_37181"
       data-name="Group 37181"
       transform="translate(140.246,50.976)">
      <path
         id="Path_42433"
         data-name="Path 42433"
         d="m 3441.427,3203.716 h 0.73 v 4.31 h -0.73 z m 0,-1.639 h 0.73 v 0.84 h -0.73 z"
         transform="translate(-3441.427,-3202.077)"
         fill="#174895" />
    </g>
    <g
       id="Group_37182"
       data-name="Group 37182"
       transform="translate(145.532,50.976)">
      <path
         id="Path_42434"
         data-name="Path 42434"
         d="m 3557.3,3202.082 h 0.788 v 3.438 a 4.054,4.054 0 0 1 -0.2,1.425 1.731,1.731 0 0 1 -0.733,0.858 2.592,2.592 0 0 1 -1.389,0.33 2.857,2.857 0 0 1 -1.368,-0.288 1.64,1.64 0 0 1 -0.759,-0.834 3.967,3.967 0 0 1 -0.227,-1.49 v -3.437 h 0.787 v 3.433 a 3.315,3.315 0 0 0 0.146,1.142 1.088,1.088 0 0 0 0.495,0.567 1.719,1.719 0 0 0 0.858,0.2 1.65,1.65 0 0 0 1.239,-0.393 2.276,2.276 0 0 0 0.368,-1.515 z"
         transform="translate(-3553.407,-3202.082)"
         fill="#174895" />
    </g>
    <g
       id="Group_37183"
       data-name="Group 37183"
       transform="translate(151.898,52.518)">
      <path
         id="Path_42435"
         data-name="Path 42435"
         d="m 3688.261,3239.139 v -4.309 h 0.657 v 0.613 a 1.552,1.552 0 0 1 1.373,-0.711 1.793,1.793 0 0 1 0.716,0.141 1.129,1.129 0 0 1 0.49,0.366 1.431,1.431 0 0 1 0.226,0.54 4.08,4.08 0 0 1 0.041,0.71 v 2.65 h -0.731 v -2.621 a 1.974,1.974 0 0 0 -0.085,-0.668 0.692,0.692 0 0 0 -0.3,-0.353 0.95,0.95 0 0 0 -0.509,-0.132 1.189,1.189 0 0 0 -0.806,0.3 1.465,1.465 0 0 0 -0.338,1.124 v 2.354 z"
         transform="translate(-3688.261,-3234.731)"
         fill="#174895" />
    </g>
    <g
       id="Group_37184"
       data-name="Group 37184"
       transform="translate(156.962,50.976)">
      <path
         id="Path_42436"
         data-name="Path 42436"
         d="m 3795.528,3203.716 h 0.73 v 4.31 h -0.73 z m 0,-1.639 h 0.73 v 0.84 h -0.73 z"
         transform="translate(-3795.528,-3202.077)"
         fill="#174895" />
    </g>
    <g
       id="Group_37185"
       data-name="Group 37185"
       transform="translate(159.03,50.944)">
      <path
         id="Path_42437"
         data-name="Path 42437"
         d="m 3840.938,3202.525 0.54,-1.135 h 0.958 l -0.893,1.135 z m -0.864,2.691 a 1.83,1.83 0 0 0 0.362,1.24 1.2,1.2 0 0 0 1.813,0 1.875,1.875 0 0 0 0.362,-1.262 1.781,1.781 0 0 0 -0.363,-1.212 1.2,1.2 0 0 0 -1.812,0 1.818,1.818 0 0 0 -0.362,1.234 z m -0.75,0 a 2.22,2.22 0 0 1 0.665,-1.773 2.007,2.007 0 0 1 1.356,-0.479 1.932,1.932 0 0 1 1.452,0.583 2.215,2.215 0 0 1 0.563,1.609 2.851,2.851 0 0 1 -0.249,1.308 1.761,1.761 0 0 1 -0.727,0.742 2.1,2.1 0 0 1 -1.039,0.263 1.937,1.937 0 0 1 -1.464,-0.58 2.317,2.317 0 0 1 -0.557,-1.673 z"
         transform="translate(-3839.324,-3201.39)"
         fill="#174895" />
    </g>
    <g
       id="Group_37186"
       data-name="Group 37186"
       transform="translate(85.317,60.9)">
      <path
         id="Path_42438"
         data-name="Path 42438"
         d="m 2279.886,3417.452 0.1,0.646 a 2.7,2.7 0 0 1 -0.552,0.063 1.259,1.259 0 0 1 -0.617,-0.125 0.7,0.7 0 0 1 -0.309,-0.33 2.611,2.611 0 0 1 -0.089,-0.862 v -2.48 h -0.535 v -0.568 h 0.535 v -1.068 l 0.726,-0.438 v 1.506 h 0.736 v 0.568 h -0.736 v 2.521 a 1.271,1.271 0 0 0 0.039,0.4 0.319,0.319 0 0 0 0.125,0.142 0.493,0.493 0 0 0 0.25,0.052 2.269,2.269 0 0 0 0.327,-0.027 z"
         transform="translate(-2277.889,-3412.29)"
         fill="#174895" />
    </g>
    <g
       id="Group_37187"
       data-name="Group 37187"
       transform="translate(88.447,60.734)">
      <path
         id="Path_42439"
         data-name="Path 42439"
         d="m 2345.775,3409.914 0.539,-1.137 h 0.959 l -0.893,1.137 z m 1.421,2.682 a 5.317,5.317 0 0 1 -1.194,0.276 2.766,2.766 0 0 0 -0.637,0.147 0.638,0.638 0 0 0 -0.168,1.071 0.952,0.952 0 0 0 0.647,0.194 1.5,1.5 0 0 0 0.751,-0.185 1.136,1.136 0 0 0 0.483,-0.5 1.794,1.794 0 0 0 0.117,-0.731 z m 0.061,1.631 a 2.719,2.719 0 0 1 -0.781,0.488 2.267,2.267 0 0 1 -0.806,0.143 1.575,1.575 0 0 1 -1.092,-0.348 1.146,1.146 0 0 1 -0.381,-0.888 1.194,1.194 0 0 1 0.143,-0.577 1.172,1.172 0 0 1 0.378,-0.419 1.744,1.744 0 0 1 0.525,-0.24 5.126,5.126 0 0 1 0.649,-0.109 6.687,6.687 0 0 0 1.3,-0.252 c 0,-0.1 0,-0.164 0,-0.191 a 0.81,0.81 0 0 0 -0.207,-0.629 1.228,1.228 0 0 0 -0.832,-0.247 1.283,1.283 0 0 0 -0.76,0.18 1.1,1.1 0 0 0 -0.364,0.64 l -0.714,-0.1 a 1.791,1.791 0 0 1 0.32,-0.741 1.4,1.4 0 0 1 0.645,-0.433 2.9,2.9 0 0 1 0.979,-0.152 2.6,2.6 0 0 1 0.9,0.13 1.2,1.2 0 0 1 0.507,0.326 1.164,1.164 0 0 1 0.226,0.5 4.014,4.014 0 0 1 0.037,0.674 v 0.974 a 10.27,10.27 0 0 0 0.046,1.289 1.605,1.605 0 0 0 0.185,0.518 h -0.763 a 1.548,1.548 0 0 1 -0.14,-0.536 z"
         transform="translate(-2344.197,-3408.777)"
         fill="#174895" />
    </g>
    <g
       id="Group_37188"
       data-name="Group 37188"
       transform="translate(93.876,62.309)">
      <path
         id="Path_42440"
         data-name="Path 42440"
         d="m 2459.2,3446.547 v -4.309 h 0.657 v 0.652 a 1.791,1.791 0 0 1 0.465,-0.6 0.813,0.813 0 0 1 0.468,-0.145 1.426,1.426 0 0 1 0.75,0.235 l -0.251,0.679 a 1.046,1.046 0 0 0 -0.535,-0.159 0.69,0.69 0 0 0 -0.43,0.145 0.775,0.775 0 0 0 -0.272,0.4 2.83,2.83 0 0 0 -0.122,0.851 v 2.257 z"
         transform="translate(-2459.197,-3442.14)"
         fill="#174895" />
    </g>
    <g
       id="Group_37189"
       data-name="Group 37189"
       transform="translate(97.029,62.309)">
      <path
         id="Path_42441"
         data-name="Path 42441"
         d="m 2525.981,3445.26 0.723,-0.113 a 1.009,1.009 0 0 0 0.339,0.666 1.183,1.183 0 0 0 0.777,0.231 1.143,1.143 0 0 0 0.748,-0.206 0.614,0.614 0 0 0 0.243,-0.48 0.444,0.444 0 0 0 -0.215,-0.39 3.181,3.181 0 0 0 -0.747,-0.247 7.039,7.039 0 0 1 -1.114,-0.351 1.062,1.062 0 0 1 -0.631,-0.989 1.115,1.115 0 0 1 0.132,-0.534 1.181,1.181 0 0 1 0.36,-0.407 1.444,1.444 0 0 1 0.464,-0.213 2.185,2.185 0 0 1 0.631,-0.087 2.525,2.525 0 0 1 0.891,0.145 1.228,1.228 0 0 1 0.566,0.4 1.552,1.552 0 0 1 0.251,0.669 l -0.714,0.1 a 0.784,0.784 0 0 0 -0.282,-0.521 1.043,1.043 0 0 0 -0.66,-0.186 1.189,1.189 0 0 0 -0.718,0.166 0.484,0.484 0 0 0 -0.215,0.39 0.4,0.4 0 0 0 0.088,0.256 0.656,0.656 0 0 0 0.28,0.194 c 0.073,0.027 0.288,0.088 0.646,0.187 a 8.973,8.973 0 0 1 1.081,0.338 1.111,1.111 0 0 1 0.481,0.384 1.081,1.081 0 0 1 0.174,0.625 1.225,1.225 0 0 1 -0.213,0.688 1.374,1.374 0 0 1 -0.615,0.5 2.25,2.25 0 0 1 -0.908,0.177 2.026,2.026 0 0 1 -1.281,-0.35 1.627,1.627 0 0 1 -0.562,-1.042 z"
         transform="translate(-2525.981,-3442.14)"
         fill="#174895" />
    </g>
    <g
       id="Group_37190"
       data-name="Group 37190"
       transform="translate(101.58,60.665)">
      <path
         id="Path_42442"
         data-name="Path 42442"
         d="m 2623.03,3413.366 v -3.743 h -0.645 v -0.567 h 0.645 v -0.459 a 1.985,1.985 0 0 1 0.077,-0.646 0.939,0.939 0 0 1 0.373,-0.46 1.34,1.34 0 0 1 0.744,-0.177 3.605,3.605 0 0 1 0.681,0.073 l -0.109,0.638 a 2.4,2.4 0 0 0 -0.43,-0.04 0.634,0.634 0 0 0 -0.47,0.141 0.77,0.77 0 0 0 -0.139,0.532 v 0.4 h 0.839 v 0.567 h -0.839 v 3.743 z"
         transform="translate(-2622.385,-3407.315)"
         fill="#174895" />
    </g>
    <g
       id="Group_37191"
       data-name="Group 37191"
       transform="translate(105.151,60.767)">
      <path
         id="Path_42443"
         data-name="Path 42443"
         d="m 2698.031,3411.112 h 0.731 v 4.31 h -0.731 z m 0,-1.639 h 0.731 v 0.839 h -0.731 z"
         transform="translate(-2698.031,-3409.473)"
         fill="#174895" />
    </g>
    <g
       id="Group_37192"
       data-name="Group 37192"
       transform="translate(107.557,62.309)">
      <path
         id="Path_42444"
         data-name="Path 42444"
         d="m 2748.989,3446.547 v -4.309 h 0.658 v 0.612 a 1.55,1.55 0 0 1 1.373,-0.71 1.793,1.793 0 0 1 0.715,0.14 1.132,1.132 0 0 1 0.49,0.367 1.409,1.409 0 0 1 0.226,0.54 4.164,4.164 0 0 1 0.04,0.71 v 2.65 h -0.729 v -2.622 a 1.941,1.941 0 0 0 -0.085,-0.667 0.7,0.7 0 0 0 -0.3,-0.353 0.952,0.952 0 0 0 -0.51,-0.133 1.185,1.185 0 0 0 -0.805,0.3 1.46,1.46 0 0 0 -0.338,1.124 v 2.354 z"
         transform="translate(-2748.989,-3442.14)"
         fill="#174895" />
    </g>
    <g
       id="Group_37193"
       data-name="Group 37193"
       transform="translate(112.497,62.309)">
      <path
         id="Path_42445"
         data-name="Path 42445"
         d="m 2856.631,3444.372 a 5.436,5.436 0 0 1 -1.194,0.276 2.75,2.75 0 0 0 -0.636,0.146 0.641,0.641 0 0 0 -0.289,0.237 0.647,0.647 0 0 0 0.119,0.834 0.954,0.954 0 0 0 0.648,0.2 1.5,1.5 0 0 0 0.75,-0.185 1.145,1.145 0 0 0 0.484,-0.5 1.779,1.779 0 0 0 0.117,-0.732 z m 0.061,1.631 a 2.73,2.73 0 0 1 -0.782,0.488 2.283,2.283 0 0 1 -0.806,0.142 1.565,1.565 0 0 1 -1.091,-0.348 1.144,1.144 0 0 1 -0.382,-0.887 1.21,1.21 0 0 1 0.521,-1 1.774,1.774 0 0 1 0.527,-0.238 5.144,5.144 0 0 1 0.647,-0.111 6.664,6.664 0 0 0 1.3,-0.252 c 0,-0.1 0,-0.164 0,-0.19 a 0.808,0.808 0 0 0 -0.207,-0.63 1.224,1.224 0 0 0 -0.832,-0.247 1.289,1.289 0 0 0 -0.76,0.181 1.094,1.094 0 0 0 -0.363,0.639 l -0.714,-0.1 a 1.766,1.766 0 0 1 0.32,-0.74 1.392,1.392 0 0 1 0.645,-0.433 2.877,2.877 0 0 1 0.979,-0.153 2.589,2.589 0 0 1 0.9,0.13 1.191,1.191 0 0 1 0.507,0.327 1.166,1.166 0 0 1 0.228,0.5 4.152,4.152 0 0 1 0.037,0.674 v 0.974 a 10.193,10.193 0 0 0 0.046,1.289 1.64,1.64 0 0 0 0.184,0.518 h -0.763 a 1.573,1.573 0 0 1 -0.141,-0.536 z"
         transform="translate(-2853.632,-3442.127)"
         fill="#174895" />
    </g>
    <g
       id="Group_37194"
       data-name="Group 37194"
       transform="translate(117.931,62.309)">
      <path
         id="Path_42446"
         data-name="Path 42446"
         d="m 2968.74,3446.547 v -4.309 h 0.657 v 0.612 a 1.549,1.549 0 0 1 1.373,-0.71 1.788,1.788 0 0 1 0.715,0.14 1.129,1.129 0 0 1 0.49,0.367 1.421,1.421 0 0 1 0.227,0.54 4.237,4.237 0 0 1 0.04,0.71 v 2.65 h -0.73 v -2.622 a 1.934,1.934 0 0 0 -0.085,-0.667 0.7,0.7 0 0 0 -0.3,-0.353 0.951,0.951 0 0 0 -0.509,-0.133 1.18,1.18 0 0 0 -0.8,0.3 1.455,1.455 0 0 0 -0.34,1.124 v 2.354 z"
         transform="translate(-2968.74,-3442.14)"
         fill="#174895" />
    </g>
    <g
       id="Group_37195"
       data-name="Group 37195"
       transform="translate(122.818,62.309)">
      <path
         id="Path_42447"
         data-name="Path 42447"
         d="m 3072.273,3445.26 0.722,-0.113 a 1.016,1.016 0 0 0 0.339,0.666 1.183,1.183 0 0 0 0.777,0.231 1.143,1.143 0 0 0 0.748,-0.206 0.609,0.609 0 0 0 0.243,-0.48 0.444,0.444 0 0 0 -0.215,-0.39 3.173,3.173 0 0 0 -0.747,-0.247 7.066,7.066 0 0 1 -1.114,-0.351 1.066,1.066 0 0 1 -0.631,-0.989 1.12,1.12 0 0 1 0.131,-0.534 1.173,1.173 0 0 1 0.36,-0.407 1.444,1.444 0 0 1 0.464,-0.213 2.183,2.183 0 0 1 0.631,-0.087 2.515,2.515 0 0 1 0.89,0.145 1.221,1.221 0 0 1 0.567,0.4 1.556,1.556 0 0 1 0.251,0.669 l -0.714,0.1 a 0.783,0.783 0 0 0 -0.282,-0.521 1.04,1.04 0 0 0 -0.659,-0.186 1.192,1.192 0 0 0 -0.718,0.166 0.483,0.483 0 0 0 -0.215,0.39 0.41,0.41 0 0 0 0.088,0.256 0.649,0.649 0 0 0 0.281,0.194 c 0.072,0.027 0.287,0.088 0.645,0.187 a 8.906,8.906 0 0 1 1.081,0.338 1.111,1.111 0 0 1 0.481,0.384 1.081,1.081 0 0 1 0.174,0.625 1.217,1.217 0 0 1 -0.214,0.688 1.365,1.365 0 0 1 -0.613,0.5 2.254,2.254 0 0 1 -0.909,0.177 2.028,2.028 0 0 1 -1.281,-0.35 1.62,1.62 0 0 1 -0.561,-1.042 z"
         transform="translate(-3072.273,-3442.14)"
         fill="#174895" />
    </g>
    <g
       id="Group_37196"
       data-name="Group 37196"
       transform="translate(127.5,62.407)">
      <path
         id="Path_42448"
         data-name="Path 42448"
         d="m 3171.444,3448.521 v -0.593 l 2.742,-3.15 c -0.31,0.018 -0.585,0.025 -0.824,0.025 h -1.757 v -0.592 h 3.523 v 0.481 l -2.333,2.736 -0.451,0.5 q 0.491,-0.037 0.922,-0.037 h 1.992 v 0.629 z"
         transform="translate(-3171.444,-3444.211)"
         fill="#174895" />
    </g>
    <g
       id="Group_37197"
       data-name="Group 37197"
       transform="translate(132.688,60.733)">
      <path
         id="Path_42449"
         data-name="Path 42449"
         d="m 3281.376,3410.425 h 0.73 v 4.31 h -0.73 z m -0.036,-0.535 0.54,-1.138 h 0.957 l -0.892,1.138 z"
         transform="translate(-3281.34,-3408.752)"
         fill="#174895" />
    </g>
    <g
       id="Group_37198"
       data-name="Group 37198"
       transform="translate(135.249,62.309)">
      <path
         id="Path_42450"
         data-name="Path 42450"
         d="m 3335.59,3446.547 v -4.309 h 0.658 v 0.652 a 1.785,1.785 0 0 1 0.465,-0.6 0.811,0.811 0 0 1 0.468,-0.145 1.425,1.425 0 0 1 0.75,0.235 l -0.252,0.679 a 1.042,1.042 0 0 0 -0.534,-0.159 0.7,0.7 0 0 0 -0.431,0.145 0.774,0.774 0 0 0 -0.272,0.4 2.83,2.83 0 0 0 -0.121,0.851 v 2.257 z"
         transform="translate(-3335.59,-3442.14)"
         fill="#174895" />
    </g>
    <g
       id="Group_37199"
       data-name="Group 37199"
       transform="translate(138.348,62.309)">
      <path
         id="Path_42451"
         data-name="Path 42451"
         d="m 3401.981,3444.4 a 1.837,1.837 0 0 0 0.361,1.24 1.2,1.2 0 0 0 1.814,0 1.871,1.871 0 0 0 0.362,-1.262 1.776,1.776 0 0 0 -0.364,-1.211 1.2,1.2 0 0 0 -1.812,0 1.827,1.827 0 0 0 -0.361,1.233 z m -0.75,0 a 2.226,2.226 0 0 1 0.665,-1.775 2.01,2.01 0 0 1 1.355,-0.477 1.929,1.929 0 0 1 1.453,0.582 2.207,2.207 0 0 1 0.565,1.608 2.867,2.867 0 0 1 -0.249,1.31 1.777,1.777 0 0 1 -0.727,0.741 2.121,2.121 0 0 1 -1.042,0.263 1.937,1.937 0 0 1 -1.462,-0.58 2.314,2.314 0 0 1 -0.558,-1.672 z"
         transform="translate(-3401.231,-3442.144)"
         fill="#174895" />
    </g>
    <g
       id="Group_37200"
       data-name="Group 37200"
       transform="translate(143.368,62.407)">
      <path
         id="Path_42452"
         data-name="Path 42452"
         d="m 3507.565,3448.521 v -0.593 l 2.742,-3.15 c -0.311,0.018 -0.585,0.025 -0.824,0.025 h -1.757 v -0.592 h 3.522 v 0.481 l -2.333,2.736 -0.45,0.5 q 0.491,-0.037 0.922,-0.037 h 1.993 v 0.629 z"
         transform="translate(-3507.565,-3444.211)"
         fill="#174895" />
    </g>
    <g
       id="Group_37201"
       data-name="Group 37201"
       transform="translate(148.313,60.734)">
      <path
         id="Path_42453"
         data-name="Path 42453"
         d="m 3613.894,3409.914 0.54,-1.137 h 0.957 l -0.892,1.137 z m 1.421,2.682 a 5.313,5.313 0 0 1 -1.194,0.276 2.758,2.758 0 0 0 -0.636,0.147 0.621,0.621 0 0 0 -0.39,0.583 0.621,0.621 0 0 0 0.221,0.488 0.949,0.949 0 0 0 0.646,0.194 1.5,1.5 0 0 0 0.751,-0.185 1.133,1.133 0 0 0 0.484,-0.5 1.772,1.772 0 0 0 0.118,-0.731 z m 0.06,1.631 a 2.7,2.7 0 0 1 -0.78,0.488 2.27,2.27 0 0 1 -0.807,0.143 1.574,1.574 0 0 1 -1.091,-0.348 1.147,1.147 0 0 1 -0.382,-0.888 1.192,1.192 0 0 1 0.144,-0.577 1.175,1.175 0 0 1 0.378,-0.419 1.744,1.744 0 0 1 0.525,-0.24 5.131,5.131 0 0 1 0.648,-0.109 6.7,6.7 0 0 0 1.3,-0.252 c 0,-0.1 0,-0.164 0,-0.191 a 0.808,0.808 0 0 0 -0.206,-0.629 1.225,1.225 0 0 0 -0.832,-0.247 1.286,1.286 0 0 0 -0.761,0.18 1.1,1.1 0 0 0 -0.364,0.64 l -0.714,-0.1 a 1.769,1.769 0 0 1 0.32,-0.741 1.4,1.4 0 0 1 0.645,-0.433 2.891,2.891 0 0 1 0.979,-0.152 2.6,2.6 0 0 1 0.9,0.13 1.193,1.193 0 0 1 0.507,0.326 1.156,1.156 0 0 1 0.228,0.5 4.057,4.057 0 0 1 0.037,0.674 v 0.974 a 10.181,10.181 0 0 0 0.046,1.289 1.608,1.608 0 0 0 0.184,0.518 h -0.762 a 1.564,1.564 0 0 1 -0.142,-0.536 z"
         transform="translate(-3612.315,-3408.777)"
         fill="#174895" />
    </g>
    <g
       id="Group_37202"
       data-name="Group 37202"
       transform="translate(153.447,62.309)">
      <path
         id="Path_42454"
         data-name="Path 42454"
         d="m 3721.057,3445.26 0.723,-0.113 a 1.015,1.015 0 0 0 0.338,0.666 1.185,1.185 0 0 0 0.778,0.231 1.139,1.139 0 0 0 0.747,-0.206 0.612,0.612 0 0 0 0.244,-0.48 0.444,0.444 0 0 0 -0.215,-0.39 3.175,3.175 0 0 0 -0.748,-0.247 7.054,7.054 0 0 1 -1.113,-0.351 1.1,1.1 0 0 1 -0.471,-0.411 1.085,1.085 0 0 1 -0.161,-0.578 1.107,1.107 0 0 1 0.133,-0.534 1.165,1.165 0 0 1 0.36,-0.407 1.426,1.426 0 0 1 0.464,-0.213 2.18,2.18 0 0 1 0.631,-0.087 2.511,2.511 0 0 1 0.89,0.145 1.228,1.228 0 0 1 0.567,0.4 1.556,1.556 0 0 1 0.251,0.669 l -0.714,0.1 a 0.788,0.788 0 0 0 -0.281,-0.521 1.043,1.043 0 0 0 -0.66,-0.186 1.2,1.2 0 0 0 -0.718,0.166 0.483,0.483 0 0 0 -0.215,0.39 0.405,0.405 0 0 0 0.09,0.256 0.644,0.644 0 0 0 0.28,0.194 c 0.073,0.027 0.288,0.088 0.646,0.187 a 8.967,8.967 0 0 1 1.082,0.338 1.11,1.11 0 0 1 0.48,0.384 1.074,1.074 0 0 1 0.174,0.625 1.225,1.225 0 0 1 -0.213,0.688 1.371,1.371 0 0 1 -0.614,0.5 2.25,2.25 0 0 1 -0.909,0.177 2.025,2.025 0 0 1 -1.28,-0.35 1.627,1.627 0 0 1 -0.566,-1.042 z"
         transform="translate(-3721.057,-3442.14)"
         fill="#174895" />
    </g>
    <g
       id="Group_37203"
       data-name="Group 37203"
       transform="translate(158.254,60.734)">
      <path
         id="Path_42455"
         data-name="Path 42455"
         d="m 3824.468,3409.914 0.54,-1.137 h 0.958 l -0.893,1.137 z m 1.42,2.682 a 5.3,5.3 0 0 1 -1.193,0.276 2.773,2.773 0 0 0 -0.637,0.147 0.616,0.616 0 0 0 -0.389,0.583 0.624,0.624 0 0 0 0.22,0.488 0.953,0.953 0 0 0 0.647,0.194 1.5,1.5 0 0 0 0.751,-0.185 1.134,1.134 0 0 0 0.484,-0.5 1.775,1.775 0 0 0 0.117,-0.731 z m 0.06,1.631 a 2.687,2.687 0 0 1 -0.78,0.488 2.264,2.264 0 0 1 -0.806,0.143 1.568,1.568 0 0 1 -1.09,-0.348 1.143,1.143 0 0 1 -0.382,-0.888 1.191,1.191 0 0 1 0.144,-0.577 1.177,1.177 0 0 1 0.378,-0.419 1.744,1.744 0 0 1 0.525,-0.24 5.186,5.186 0 0 1 0.649,-0.109 6.669,6.669 0 0 0 1.3,-0.252 c 0,-0.1 0,-0.164 0,-0.191 a 0.807,0.807 0 0 0 -0.207,-0.629 1.228,1.228 0 0 0 -0.832,-0.247 1.292,1.292 0 0 0 -0.761,0.18 1.106,1.106 0 0 0 -0.363,0.64 l -0.714,-0.1 a 1.775,1.775 0 0 1 0.32,-0.741 1.408,1.408 0 0 1 0.646,-0.433 2.886,2.886 0 0 1 0.978,-0.152 2.6,2.6 0 0 1 0.9,0.13 1.2,1.2 0 0 1 0.506,0.326 1.15,1.15 0 0 1 0.227,0.5 4.041,4.041 0 0 1 0.037,0.674 v 0.974 a 10.057,10.057 0 0 0 0.047,1.289 1.629,1.629 0 0 0 0.183,0.518 h -0.762 a 1.6,1.6 0 0 1 -0.142,-0.536 z"
         transform="translate(-3822.89,-3408.777)"
         fill="#174895" />
    </g>
    <g
       id="Group_37204"
       data-name="Group 37204"
       transform="translate(163.116,62.407)">
      <path
         id="Path_42456"
         data-name="Path 42456"
         d="m 3927.522,3448.521 -1.64,-4.309 h 0.771 l 0.926,2.58 c 0.1,0.279 0.191,0.568 0.276,0.868 q 0.1,-0.341 0.271,-0.819 l 0.958,-2.629 h 0.75 l -1.631,4.309 z"
         transform="translate(-3925.882,-3444.211)"
         fill="#174895" />
    </g>
    <g
       id="Group_37205"
       data-name="Group 37205"
       transform="translate(167.936,62.309)">
      <path
         id="Path_42457"
         data-name="Path 42457"
         d="m 4030.977,3444.372 a 5.427,5.427 0 0 1 -1.193,0.276 2.74,2.74 0 0 0 -0.636,0.146 0.645,0.645 0 0 0 -0.289,0.237 0.649,0.649 0 0 0 0.119,0.834 0.958,0.958 0 0 0 0.648,0.2 1.5,1.5 0 0 0 0.75,-0.185 1.142,1.142 0 0 0 0.484,-0.5 1.78,1.78 0 0 0 0.117,-0.732 z m 0.062,1.631 a 2.732,2.732 0 0 1 -0.782,0.488 2.28,2.28 0 0 1 -0.8,0.142 1.566,1.566 0 0 1 -1.092,-0.348 1.143,1.143 0 0 1 -0.382,-0.887 1.212,1.212 0 0 1 0.522,-1 1.773,1.773 0 0 1 0.527,-0.238 5.177,5.177 0 0 1 0.647,-0.111 6.657,6.657 0 0 0 1.3,-0.252 c 0,-0.1 0,-0.164 0,-0.19 a 0.809,0.809 0 0 0 -0.206,-0.63 1.225,1.225 0 0 0 -0.833,-0.247 1.288,1.288 0 0 0 -0.76,0.181 1.1,1.1 0 0 0 -0.363,0.639 l -0.714,-0.1 a 1.782,1.782 0 0 1 0.32,-0.74 1.391,1.391 0 0 1 0.645,-0.433 2.874,2.874 0 0 1 0.978,-0.153 2.593,2.593 0 0 1 0.9,0.13 1.2,1.2 0 0 1 0.507,0.327 1.157,1.157 0 0 1 0.228,0.5 4.219,4.219 0 0 1 0.037,0.674 v 0.974 a 10.193,10.193 0 0 0 0.046,1.289 1.64,1.64 0 0 0 0.184,0.518 h -0.763 a 1.568,1.568 0 0 1 -0.146,-0.536 z"
         transform="translate(-4027.978,-3442.127)"
         fill="#174895" />
    </g>
    <g
       id="Group_37206"
       data-name="Group 37206"
       transform="translate(173.357,60.767)">
      <rect
         id="Rectangle_15694"
         data-name="Rectangle 15694"
         width="0.73100001"
         height="5.9489999"
         fill="#174895"
         x="0"
         y="0" />
    </g>
  </g>
  <rect
     id="rect1"
     data-name="Rectangle 14955"
     width="78.278999"
     height="0.58200002"
     transform="rotate(-90)"
     fill="#003399"
     x="-78.278999"
     y="0.0074328035" />
</svg>
