<?xml version="1.0" encoding="UTF-8" standalone="no"?>
<svg
   width="159.64"
   height="78.278999"
   viewBox="0 0 233.73353 114.61054"
   version="1.1"
   id="svg4"
   sodipodi:docname="sz2020.svg"
   inkscape:version="1.3.2 (091e20e, 2023-11-25)"
   xmlns:inkscape="http://www.inkscape.org/namespaces/inkscape"
   xmlns:sodipodi="http://sodipodi.sourceforge.net/DTD/sodipodi-0.dtd"
   xmlns="http://www.w3.org/2000/svg"
   xmlns:svg="http://www.w3.org/2000/svg">
  <sodipodi:namedview
     id="namedview4"
     pagecolor="#ffffff"
     bordercolor="#000000"
     borderopacity="0.25"
     inkscape:showpageshadow="2"
     inkscape:pageopacity="0.0"
     inkscape:pagecheckerboard="0"
     inkscape:deskcolor="#d1d1d1"
     showgrid="false"
     inkscape:zoom="1.9444544"
     inkscape:cx="70.971066"
     inkscape:cy="41.65693"
     inkscape:window-width="792"
     inkscape:window-height="449"
     inkscape:window-x="992"
     inkscape:window-y="516"
     inkscape:window-maximized="0"
     inkscape:current-layer="svg4" />
  <defs
     id="defs4">
    <clipPath
       id="clip-path">
      <rect
         id="Rectangle_14792"
         data-name="Rectangle 14792"
         width="213.823"
         height="72.760002"
         fill="none"
         x="0"
         y="0" />
    </clipPath>
    <clipPath
       id="clip-path-2">
      <path
         id="Path_35096"
         data-name="Path 35096"
         d="m 570.562,0 a 26.566,26.566 0 0 0 -26.536,26.537 c 0,8.927 6.869,19.649 8.662,22.451 1.793,2.802 16.412,23.772 17.87,23.772 v 0 z"
         transform="translate(-544.026)"
         fill="none" />
    </clipPath>
    <linearGradient
       id="linear-gradient"
       x1="-266.19098"
       y1="43.940407"
       x2="-265.70764"
       y2="43.940407"
       gradientUnits="userSpaceOnUse"
       gradientTransform="scale(0.60390882,1.6558791)">
      <stop
         offset="0"
         stop-color="#183ca3"
         id="stop1" />
      <stop
         offset="0.56"
         stop-color="#1e44a9"
         id="stop2" />
      <stop
         offset="0.859"
         stop-color="#244bae"
         id="stop3" />
      <stop
         offset="1"
         stop-color="#244bae"
         id="stop4" />
    </linearGradient>
  </defs>
  <g
     id="sz2020logo"
     transform="translate(0,20.619)">
    <g
       id="Group_33541"
       data-name="Group 33541">
      <g
         id="Group_33540"
         data-name="Group 33540"
         clip-path="url(#clip-path)">
        <path
           id="Path_35094"
           data-name="Path 35094"
           d="m 570.562,0 a 26.566,26.566 0 0 0 -26.537,26.537 c 0,8.927 6.869,19.649 8.662,22.451 1.793,2.802 16.413,23.772 17.87,23.772 h 0.009 c 1.459,0 16.076,-20.97 17.869,-23.772 1.793,-2.802 8.665,-13.524 8.665,-22.451 A 26.565,26.565 0 0 0 570.562,0"
           transform="translate(-383.274)"
           fill="#244bae" />
        <path
           id="Path_35095"
           data-name="Path 35095"
           d="m 647.953,185.333 c -4.883,6.973 -12.508,17.51 -13.83,17.98 l 15.288,-5.337 a 9.685,9.685 0 0 0 5.268,-3.458 c 2.265,-3.443 -0.774,-7.362 -6.726,-9.186"
           transform="translate(-446.75,-130.57)"
           fill="#a9a8a9" />
      </g>
    </g>
    <g
       id="Group_33543"
       data-name="Group 33543"
       transform="translate(160.751)">
      <g
         id="Group_33542"
         data-name="Group 33542"
         clip-path="url(#clip-path-2)">
        <rect
           id="Rectangle_14793"
           data-name="Rectangle 14793"
           width="26.535999"
           height="72.760002"
           fill="url(#linear-gradient)"
           style="fill:url(#linear-gradient)"
           x="0"
           y="0" />
      </g>
    </g>
    <g
       id="Group_33545"
       data-name="Group 33545">
      <g
         id="Group_33544"
         data-name="Group 33544"
         clip-path="url(#clip-path)">
        <path
           id="Path_35097"
           data-name="Path 35097"
           d="m 566.317,68.361 q 0.016,0.262 0.016,0.507 a 3.894,3.894 0 0 1 -1.307,2.843 l -4.967,4.754 h 6.078 v 1.16 h -7.793 v -1.17 l 5.751,-5.528 a 2.892,2.892 0 0 0 1,-2.288 2.708,2.708 0 0 0 -2.672,-2.565 2.724,2.724 0 0 0 -1.931,0.776 2.481,2.481 0 0 0 -0.822,1.87 v 0.425 h -1.241 V 68.72 a 3.625,3.625 0 0 1 1.2,-2.745 3.925,3.925 0 0 1 2.818,-1.111 3.868,3.868 0 0 1 3.872,3.5"
           transform="translate(-393.362,-45.698)"
           fill="#ffffff" />
        <path
           id="Path_35098"
           data-name="Path 35098"
           d="m 602.4,71.277 a 6.624,6.624 0 0 1 -6.584,6.616 6.524,6.524 0 0 1 -4.648,-1.87 6,6 0 0 1 -1.968,-4.523 6.364,6.364 0 0 1 1.92,-4.648 6.267,6.267 0 0 1 4.616,-1.936 6.615,6.615 0 0 1 4.672,1.83 6,6 0 0 1 1.993,4.526 m -1.241,0.082 a 4.992,4.992 0 0 0 -1.608,-3.709 5.3,5.3 0 0 0 -3.792,-1.519 5.247,5.247 0 0 0 -3.719,8.986 5.35,5.35 0 0 0 7.552,0.016 4.989,4.989 0 0 0 1.567,-3.774"
           transform="translate(-415.099,-45.738)"
           fill="#ffffff" />
        <path
           id="Path_35099"
           data-name="Path 35099"
           d="m 647.928,68.361 c 0.01,0.175 0.016,0.343 0.016,0.507 a 3.893,3.893 0 0 1 -1.307,2.843 l -4.967,4.754 h 6.078 v 1.16 h -7.793 v -1.17 l 5.751,-5.528 a 2.893,2.893 0 0 0 1,-2.288 2.651,2.651 0 0 0 -0.831,-1.813 2.621,2.621 0 0 0 -1.841,-0.752 2.722,2.722 0 0 0 -1.93,0.776 2.481,2.481 0 0 0 -0.823,1.87 v 0.425 H 640.04 V 68.72 a 3.623,3.623 0 0 1 1.2,-2.745 3.923,3.923 0 0 1 2.818,-1.111 3.87,3.87 0 0 1 3.873,3.5"
           transform="translate(-450.858,-45.698)"
           fill="#ffffff" />
        <path
           id="Path_35100"
           data-name="Path 35100"
           d="m 682.88,71.277 a 6.623,6.623 0 0 1 -6.584,6.616 6.524,6.524 0 0 1 -4.648,-1.87 6.006,6.006 0 0 1 -1.968,-4.518 6.366,6.366 0 0 1 1.919,-4.648 6.268,6.268 0 0 1 4.616,-1.936 6.618,6.618 0 0 1 4.673,1.83 6,6 0 0 1 1.993,4.526 m -1.241,0.082 a 4.989,4.989 0 0 0 -1.607,-3.709 5.3,5.3 0 0 0 -3.793,-1.519 5.247,5.247 0 0 0 -3.72,8.986 5.35,5.35 0 0 0 7.553,0.016 4.985,4.985 0 0 0 1.567,-3.774"
           transform="translate(-471.799,-45.738)"
           fill="#ffffff" />
        <path
           id="Path_35101"
           data-name="Path 35101"
           d="m 0,70.388 3.189,-2.221 a 6.935,6.935 0 0 0 4.83,2.246 4.274,4.274 0 0 0 1.969,-0.454 1.78,1.78 0 0 0 1.149,-1.615 q 0,-1.262 -1.875,-1.59 L 5.792,66.148 Q 1.008,65.315 1.008,61.2 a 5.621,5.621 0 0 1 2.087,-4.694 7.433,7.433 0 0 1 4.736,-1.438 9.164,9.164 0 0 1 7.362,3.457 l -3.154,2.463 A 5.391,5.391 0 0 0 7.553,58.7 2.771,2.771 0 0 0 6.003,59.18 1.559,1.559 0 0 0 5.181,60.518 q 0,1.312 2.321,1.716 l 1.594,0.277 A 10.925,10.925 0 0 1 13.388,64 4.182,4.182 0 0 1 15.17,67.634 5.652,5.652 0 0 1 12.521,72.858 9.475,9.475 0 0 1 7.527,74.044 9.558,9.558 0 0 1 0,70.388"
           transform="translate(0,-38.797)"
           fill="#404041" />
        <path
           id="Path_35102"
           data-name="Path 35102"
           d="m 67.81,71.264 h 9.12 v 3.483 H 62.6 V 71.39 l 9.284,-11.13 h -8.552 v -3.482 h 13.645 v 3.508 z"
           transform="translate(-44.106,-40.001)"
           fill="#404041" />
        <path
           id="Path_35103"
           data-name="Path 35103"
           d="M 138.435,60.425 H 125.446 V 42.456 h 12.286 v 3.483 h -8.112 v 3.281 h 7.573 v 3.48 h -7.573 v 4.24 h 8.815 z m -8.6,-20.19 2.321,-3.785 h 4.244 l -3.752,3.785 z"
           transform="translate(-88.379,-25.68)"
           fill="#404041" />
        <path
           id="Path_35104"
           data-name="Path 35104"
           d="m 195.057,59.764 -3.329,1.792 a 4.021,4.021 0 0 0 -1.395,-1.969 3.393,3.393 0 0 0 -2.075,-0.732 3.565,3.565 0 0 0 -2.931,1.338 6.85,6.85 0 0 0 -1.2,4.366 7.319,7.319 0 0 0 0.915,3.836 3.634,3.634 0 0 0 3.353,1.867 3.472,3.472 0 0 0 1.934,-0.694 4.034,4.034 0 0 0 1.489,-1.83 l 3.306,1.716 a 8.9,8.9 0 0 1 -2.86,3.357 6.652,6.652 0 0 1 -3.868,1.237 7.683,7.683 0 0 1 -6.213,-2.852 10.023,10.023 0 0 1 -2.227,-6.637 10.321,10.321 0 0 1 2.11,-6.637 7.259,7.259 0 0 1 6,-2.852 q 4.548,0 6.987,4.694"
           transform="translate(-126.783,-38.798)"
           fill="#404041" />
        <path
           id="Path_35105"
           data-name="Path 35105"
           d="m 243.434,74.747 v -17.97 h 4.173 v 6.461 h 6.213 v -6.461 h 4.173 v 17.97 h -4.173 v -7.572 h -6.213 v 7.571 z"
           transform="translate(-171.503,-40.001)"
           fill="#404041" />
        <path
           id="Path_35106"
           data-name="Path 35106"
           d="M 324.819,74.747 H 311.83 v -17.97 h 12.286 V 60.26 H 316 v 3.281 h 7.573 v 3.483 H 316 v 4.24 h 8.815 z"
           transform="translate(-219.689,-40.001)"
           fill="#404041" />
        <path
           id="Path_35107"
           data-name="Path 35107"
           d="m 371.975,74.747 v -17.97 h 4.22 l 6.119,11.483 V 56.777 h 3.8 v 17.97 h -4.173 L 375.773,63.44 v 11.307 z"
           transform="translate(-262.062,-40.001)"
           fill="#404041" />
        <path
           id="Path_35108"
           data-name="Path 35108"
           d="m 437.39,74.747 v -8.379 l -6.342,-9.59 h 4.877 l 3.552,6.208 3.552,-6.208 h 4.877 l -6.342,9.59 v 8.379 z"
           transform="translate(-303.68,-40.001)"
           fill="#404041" />
        <rect
           id="Rectangle_14794"
           data-name="Rectangle 14794"
           width="4.1729999"
           height="17.969"
           transform="translate(147.496,16.777)"
           fill="#404041"
           x="0"
           y="0" />
      </g>
    </g>
  </g>
</svg>
