<svg xmlns="http://www.w3.org/2000/svg" xmlns:xlink="http://www.w3.org/1999/xlink" width="512.374" height="114.638" viewBox="0 0 512.374 114.638">
<rect width="100%" height="100%" fill="white"></rect>
  <defs>
    <clipPath id="clip-path">
      <rect id="Rectangle_14792" data-name="Rectangle 14792" width="213.823" height="72.76" fill="none"/>
    </clipPath>
    <clipPath id="clip-path-2">
      <path id="Path_35096" data-name="Path 35096" d="M570.562,0a26.566,26.566,0,0,0-26.536,26.537c0,8.927,6.869,19.649,8.662,22.451S569.1,72.76,570.558,72.76h0Z" transform="translate(-544.026)" fill="none"/>
    </clipPath>
    <linearGradient id="linear-gradient" x1="-6.058" y1="1" x2="-6.047" y2="1" gradientUnits="objectBoundingBox">
      <stop offset="0" stop-color="#183ca3"/>
      <stop offset="0.56" stop-color="#1e44a9"/>
      <stop offset="0.859" stop-color="#244bae"/>
      <stop offset="1" stop-color="#244bae"/>
    </linearGradient>
  </defs>
  <g id="sz2020-mok-eu" transform="translate(-112 -43)">
    <rect id="Rectangle_14955" data-name="Rectangle 14955" width="114.638" height="0.852" transform="translate(350.469 157.639) rotate(-90)" fill="#039"/>
    <g id="sz2020logo" transform="translate(112 63.619)">
      <g id="Group_33541" data-name="Group 33541">
        <g id="Group_33540" data-name="Group 33540" clip-path="url(#clip-path)">
          <path id="Path_35094" data-name="Path 35094" d="M570.562,0a26.566,26.566,0,0,0-26.537,26.537c0,8.927,6.869,19.649,8.662,22.451S569.1,72.76,570.557,72.76h.009c1.459,0,16.076-20.97,17.869-23.772S597.1,35.464,597.1,26.537A26.565,26.565,0,0,0,570.562,0" transform="translate(-383.274)" fill="#244bae"/>
          <path id="Path_35095" data-name="Path 35095" d="M647.953,185.333c-4.883,6.973-12.508,17.51-13.83,17.98l15.288-5.337a9.685,9.685,0,0,0,5.268-3.458c2.265-3.443-.774-7.362-6.726-9.186" transform="translate(-446.75 -130.57)" fill="#a9a8a9"/>
        </g>
      </g>
      <g id="Group_33543" data-name="Group 33543" transform="translate(160.751)">
        <g id="Group_33542" data-name="Group 33542" clip-path="url(#clip-path-2)">
          <rect id="Rectangle_14793" data-name="Rectangle 14793" width="26.536" height="72.76" transform="translate(0 0)" fill="url(#linear-gradient)"/>
        </g>
      </g>
      <g id="Group_33545" data-name="Group 33545">
        <g id="Group_33544" data-name="Group 33544" clip-path="url(#clip-path)">
          <path id="Path_35097" data-name="Path 35097" d="M566.317,68.361q.016.262.016.507a3.894,3.894,0,0,1-1.307,2.843l-4.967,4.754h6.078v1.16h-7.793v-1.17l5.751-5.528a2.892,2.892,0,0,0,1-2.288,2.708,2.708,0,0,0-2.672-2.565,2.724,2.724,0,0,0-1.931.776,2.481,2.481,0,0,0-.822,1.87v.425h-1.241V68.72a3.625,3.625,0,0,1,1.2-2.745,3.925,3.925,0,0,1,2.818-1.111,3.868,3.868,0,0,1,3.872,3.5" transform="translate(-393.362 -45.698)" fill="#fff"/>
          <path id="Path_35098" data-name="Path 35098" d="M602.4,71.277a6.624,6.624,0,0,1-6.584,6.616,6.524,6.524,0,0,1-4.648-1.87A6,6,0,0,1,589.2,71.5a6.364,6.364,0,0,1,1.92-4.648,6.267,6.267,0,0,1,4.616-1.936,6.615,6.615,0,0,1,4.672,1.83,6,6,0,0,1,1.993,4.526m-1.241.082a4.992,4.992,0,0,0-1.608-3.709,5.3,5.3,0,0,0-3.792-1.519,5.247,5.247,0,0,0-3.719,8.986,5.35,5.35,0,0,0,7.552.016,4.989,4.989,0,0,0,1.567-3.774" transform="translate(-415.099 -45.738)" fill="#fff"/>
          <path id="Path_35099" data-name="Path 35099" d="M647.928,68.361c.01.175.016.343.016.507a3.893,3.893,0,0,1-1.307,2.843l-4.967,4.754h6.078v1.16h-7.793v-1.17l5.751-5.528a2.893,2.893,0,0,0,1-2.288,2.651,2.651,0,0,0-.831-1.813,2.621,2.621,0,0,0-1.841-.752,2.722,2.722,0,0,0-1.93.776,2.481,2.481,0,0,0-.823,1.87v.425h-1.241V68.72a3.623,3.623,0,0,1,1.2-2.745,3.923,3.923,0,0,1,2.818-1.111,3.87,3.87,0,0,1,3.873,3.5" transform="translate(-450.858 -45.698)" fill="#fff"/>
          <path id="Path_35100" data-name="Path 35100" d="M682.88,71.277a6.623,6.623,0,0,1-6.584,6.616,6.524,6.524,0,0,1-4.648-1.87,6.006,6.006,0,0,1-1.968-4.518,6.366,6.366,0,0,1,1.919-4.648,6.268,6.268,0,0,1,4.616-1.936,6.618,6.618,0,0,1,4.673,1.83,6,6,0,0,1,1.993,4.526m-1.241.082a4.989,4.989,0,0,0-1.607-3.709,5.3,5.3,0,0,0-3.793-1.519,5.247,5.247,0,0,0-3.72,8.986,5.35,5.35,0,0,0,7.553.016,4.985,4.985,0,0,0,1.567-3.774" transform="translate(-471.799 -45.738)" fill="#fff"/>
          <path id="Path_35101" data-name="Path 35101" d="M0,70.388l3.189-2.221a6.935,6.935,0,0,0,4.83,2.246,4.274,4.274,0,0,0,1.969-.454,1.78,1.78,0,0,0,1.149-1.615q0-1.262-1.875-1.59l-3.47-.606Q1.008,65.315,1.008,61.2a5.621,5.621,0,0,1,2.087-4.694,7.433,7.433,0,0,1,4.736-1.438,9.164,9.164,0,0,1,7.362,3.457l-3.154,2.463A5.391,5.391,0,0,0,7.553,58.7a2.771,2.771,0,0,0-1.55.48,1.559,1.559,0,0,0-.822,1.338q0,1.312,2.321,1.716l1.594.277A10.925,10.925,0,0,1,13.388,64a4.182,4.182,0,0,1,1.782,3.634,5.652,5.652,0,0,1-2.649,5.224,9.475,9.475,0,0,1-4.994,1.186A9.558,9.558,0,0,1,0,70.388" transform="translate(0 -38.797)" fill="#404041"/>
          <path id="Path_35102" data-name="Path 35102" d="M67.81,71.264h9.12v3.483H62.6V71.39l9.284-11.13H63.332V56.778H76.977v3.508Z" transform="translate(-44.106 -40.001)" fill="#404041"/>
          <path id="Path_35103" data-name="Path 35103" d="M138.435,60.425H125.446V42.456h12.286v3.483h-8.112V49.22h7.573V52.7h-7.573v4.24h8.815Zm-8.6-20.19,2.321-3.785H136.4l-3.752,3.785Z" transform="translate(-88.379 -25.68)" fill="#404041"/>
          <path id="Path_35104" data-name="Path 35104" d="M195.057,59.764l-3.329,1.792a4.021,4.021,0,0,0-1.395-1.969,3.393,3.393,0,0,0-2.075-.732,3.565,3.565,0,0,0-2.931,1.338,6.85,6.85,0,0,0-1.2,4.366,7.319,7.319,0,0,0,.915,3.836,3.634,3.634,0,0,0,3.353,1.867,3.472,3.472,0,0,0,1.934-.694,4.034,4.034,0,0,0,1.489-1.83l3.306,1.716a8.9,8.9,0,0,1-2.86,3.357,6.652,6.652,0,0,1-3.868,1.237,7.683,7.683,0,0,1-6.213-2.852,10.023,10.023,0,0,1-2.227-6.637,10.321,10.321,0,0,1,2.11-6.637,7.259,7.259,0,0,1,6-2.852q4.548,0,6.987,4.694" transform="translate(-126.783 -38.798)" fill="#404041"/>
          <path id="Path_35105" data-name="Path 35105" d="M243.434,74.747V56.777h4.173v6.461h6.213V56.777h4.173V74.747H253.82V67.175h-6.213v7.571Z" transform="translate(-171.503 -40.001)" fill="#404041"/>
          <path id="Path_35106" data-name="Path 35106" d="M324.819,74.747H311.83V56.777h12.286V60.26H316v3.281h7.573v3.483H316v4.24h8.815Z" transform="translate(-219.689 -40.001)" fill="#404041"/>
          <path id="Path_35107" data-name="Path 35107" d="M371.975,74.747V56.777h4.22l6.119,11.483V56.777h3.8V74.747h-4.173L375.773,63.44V74.747Z" transform="translate(-262.062 -40.001)" fill="#404041"/>
          <path id="Path_35108" data-name="Path 35108" d="M437.39,74.747V66.368l-6.342-9.59h4.877l3.552,6.208,3.552-6.208h4.877l-6.342,9.59v8.379Z" transform="translate(-303.68 -40.001)" fill="#404041"/>
          <rect id="Rectangle_14794" data-name="Rectangle 14794" width="4.173" height="17.969" transform="translate(147.496 16.777)" fill="#404041"/>
        </g>
      </g>
    </g>
    <g id="alkotoelem-02" transform="translate(369.424 50.393)">
      <g id="Group_37130" data-name="Group 37130" transform="translate(47.614 11.381)">
        <path id="Path_42383" data-name="Path 42383" d="M1160.3,2288.35a.539.539,0,1,1,.538-.538A.538.538,0,0,1,1160.3,2288.35Zm0-1.49a.951.951,0,1,0,.954.952A.951.951,0,0,0,1160.3,2286.86Z" transform="translate(-1159.351 -2286.86)" fill="#174895"/>
      </g>
      <g id="Group_37131" data-name="Group 37131" transform="translate(44.11 12.082)">
        <path id="Path_42384" data-name="Path 42384" d="M1109.415,2298.091a.342.342,0,1,1,0-.684.342.342,0,0,1,0,.684Zm0-1.094a.753.753,0,1,0,.75.75A.751.751,0,0,0,1109.415,2297Z" transform="translate(-1108.663 -2296.998)" fill="#174895"/>
      </g>
      <g id="Group_37132" data-name="Group 37132" transform="translate(51.747 19.743)">
        <path id="Path_42385" data-name="Path 42385" d="M1221.4,2410.623c-.643,0-1.851-.181-1.851-.868a1.884,1.884,0,0,1,3.706,0C1223.251,2410.442,1222.038,2410.623,1221.4,2410.623Zm0-2.825a2.309,2.309,0,0,0-2.266,1.957c0,.945,1.222,1.279,2.266,1.279s2.265-.334,2.265-1.279A2.306,2.306,0,0,0,1221.4,2407.8Z" transform="translate(-1219.13 -2407.798)" fill="#174895"/>
      </g>
      <g id="Group_37133" data-name="Group 37133" transform="translate(58.51 11.381)">
        <path id="Path_42386" data-name="Path 42386" d="M1317.893,2288.35a.539.539,0,1,1,.541-.538A.539.539,0,0,1,1317.893,2288.35Zm0-1.49a.951.951,0,1,0,.955.952A.952.952,0,0,0,1317.893,2286.86Z" transform="translate(-1316.943 -2286.86)" fill="#174895"/>
      </g>
      <g id="Group_37134" data-name="Group 37134" transform="translate(62.415 12.082)">
        <path id="Path_42387" data-name="Path 42387" d="M1374.18,2298.091a.342.342,0,1,1,.34-.344A.341.341,0,0,1,1374.18,2298.091Zm0-1.094a.753.753,0,1,0,.752.75A.754.754,0,0,0,1374.18,2297Z" transform="translate(-1373.426 -2296.998)" fill="#174895"/>
      </g>
      <g id="Group_37135" data-name="Group 37135" transform="translate(58.391 19.895)">
        <path id="Path_42388" data-name="Path 42388" d="M1318.091,2412.518h-2.442v-2.108h2.442Zm.208-2.521h-2.858a.2.2,0,0,0-.206.2v2.519a.211.211,0,0,0,.206.211h2.858a.207.207,0,0,0,.2-.211V2410.2A.2.2,0,0,0,1318.3,2410Z" transform="translate(-1315.234 -2409.998)" fill="#174895"/>
      </g>
      <g id="Group_37136" data-name="Group 37136" transform="translate(62.367 19.897)">
        <path id="Path_42389" data-name="Path 42389" d="M1374.586,2412.166a.383.383,0,0,1-.384.384h-.675a.387.387,0,0,1-.387-.384v-1.339a.391.391,0,0,1,.387-.387h.675a.386.386,0,0,1,.384.387Zm-.384-2.135h-.675a.8.8,0,0,0-.8.8v1.339a.8.8,0,0,0,.8.8h.675a.8.8,0,0,0,.8-.8v-1.339A.8.8,0,0,0,1374.2,2410.031Z" transform="translate(-1372.73 -2410.031)" fill="#174895"/>
      </g>
      <g id="Group_37137" data-name="Group 37137" transform="translate(38.419 0.002)">
        <path id="Path_42390" data-name="Path 42390" d="M1056.992,2174.3a2.132,2.132,0,0,0-.859-.455v-26.788h.937c.006,2.3.051,23.02.051,25.263A15.376,15.376,0,0,1,1056.992,2174.3Zm-.262,1.419-1.479-1.481a1.533,1.533,0,0,1,.374-.048,1.692,1.692,0,0,1,1.288.618C1056.861,2175.114,1056.8,2175.418,1056.73,2175.716Zm-.532,1.669-2.182-2.186a.207.207,0,0,0,.1-.09,1.806,1.806,0,0,1,.708-.711l1.778,1.776A12.5,12.5,0,0,1,1056.2,2177.385Zm-.7,1.489-5.391-5.389h1.614l4.312,4.309A11.637,11.637,0,0,1,1055.493,2178.874Zm-.86,1.333-6.724-6.723h1.611l5.761,5.755Q1054.971,2179.748,1054.632,2180.207Zm-1,1.2-7.532-7.53a4.081,4.081,0,0,1,.23-.39h.995l7.052,7.054C1054.14,2180.842,1053.888,2181.129,1053.632,2181.4Zm-1.127,1.072-8.24-8.238a1.753,1.753,0,0,1,1.05.76.213.213,0,0,0,.208.087.2.2,0,0,0,.164-.154,5.3,5.3,0,0,1,.225-.665l7.434,7.432C1053.072,2181.973,1052.79,2182.233,1052.5,2182.476Zm-1.241.955-8.659-8.66a1.745,1.745,0,0,1,1.047-.568l8.537,8.537C1051.88,2182.99,1051.577,2183.214,1051.264,2183.431Zm-1.346.85-7.815-7.816v-.351a2.005,2.005,0,0,1,.264-1l8.551,8.553C1050.583,2183.889,1050.245,2184.094,1049.918,2184.281Zm-1.46.734-6.355-6.349v-1.617l7.441,7.44C1049.178,2184.68,1048.818,2184.856,1048.458,2185.014Zm-1.574.624-4.781-4.781v-1.614l5.947,5.947C1047.658,2185.354,1047.266,2185.5,1046.884,2185.638Zm-1.661.541-3.12-3.124v-1.616l4.347,4.35C1046.034,2185.927,1045.621,2186.057,1045.223,2186.179Zm-.824.245c-.3.088-.589.175-.865.258l-1.431-1.431v-1.611l2.676,2.673C1044.651,2186.349,1044.526,2186.384,1044.4,2186.425Zm-2.3.749v-1.339l.99.986C1042.736,2186.934,1042.407,2187.048,1042.1,2187.173Zm1.169-40.12v26.818a2.178,2.178,0,0,0-1.169.883v-27.7Zm-14.485-.978h26.3v.567h-26.3Zm12.9,5.617h-1.126v-4.639h1.126Zm-2.662-4.639h1.124v4.639h-1.124Zm-1.537,0h1.126v4.639h-1.126Zm-1.54,0h1.125v4.639h-1.125Zm-1.534,0h1.126v4.639h-1.126Zm-1.535,0h1.124v4.639h-1.124Zm-1.538,0h1.124v4.639h-1.124Zm-1.54,0h1.125v4.639h-1.125Zm11.886,9.668h-14.907c0-1.645.006-3.225.009-4.619h14.9Zm0,5.035h-1.126v-4.619h1.126Zm-2.662-4.619h1.124v4.619h-1.124Zm-1.537,0h1.126v4.619h-1.126Zm-1.54,0h1.125v4.619h-1.125Zm-1.534,0h1.126v4.619h-1.126Zm-1.535,0h1.124v4.619h-1.124Zm-1.538,0h1.124v4.619h-1.124Zm-1.54,0h1.125v4.619h-1.125Zm-1.534,0h1.124v4.619h-1.124Zm13.42,9.655h-14.926c0-1.412.006-2.988.011-4.625h14.916Zm0,5.029h-1.126V2167.2h1.126Zm-2.662-4.621h1.124v4.621h-1.124Zm-1.537,0h1.126v4.621h-1.126Zm-1.54,0h1.125v4.621h-1.125Zm-1.534,0h1.126v4.621h-1.126Zm-1.535,0h1.124v4.621h-1.124Zm-1.538,0h1.124v4.621h-1.124Zm-1.54,0h1.125v4.621h-1.125Zm-1.534,0h1.124v4.621h-1.124Zm13.42,9.657h-14.208a13.777,13.777,0,0,1-.729-4.541v-.081h14.937Zm0,5.032h-1.126v-4.619h1.126Zm-2.662-4.622h1.124v4.621h-1.124Zm-1.537,0h1.126v4.621h-1.126Zm-1.54,0h1.125v4.621h-1.125Zm-1.534,0h1.126v4.621h-1.126Zm-1.535,0h1.124v4.621h-1.124Zm-1.538,0h1.124v4.621h-1.124Zm10.346,9.872c-.633-.246-1.377-.469-2.218-.714a25.766,25.766,0,0,1-5.388-2.072,16.6,16.6,0,0,1-2.917-2.052h10.522Zm-10.759-5.249h-.207c-.314-.3-.625-.625-.92-.972v-3.651h1.127Zm-1.537-1.481a12.416,12.416,0,0,1-1.124-1.742v-1.4h1.124Zm-1.535-2.592c-.081-.179-.155-.361-.231-.55h.231Zm-1.1-10.617h1.1v4.621h-1.106C1026.758,2170.942,1026.761,2169.276,1026.766,2167.2Zm.02-10.063h1.076v4.619h-1.085C1026.778,2160.228,1026.779,2158.657,1026.785,2157.137Zm.021-10.084h1.055v4.639H1026.8C1026.8,2149.371,1026.807,2147.631,1026.807,2147.053Zm1.466,0h1.124v4.639h-1.124Zm.057-10.56a.253.253,0,1,1,.253.256A.252.252,0,0,1,1028.33,2136.493Zm.458,6.083h1.409v2.107h-1.409Zm1.618,2.519a.205.205,0,0,0,.207-.2v-2.522a.2.2,0,0,0-.207-.205h-1.618v-.566h9.7v4.063h-9.7v-.567Zm14.574.567H1038.9V2141.6h6.081Zm10.108-4.476h-26.3v-.8h26.3Zm-25.149-3.679.8,2.471h-1.606Zm-.34-1.611a.342.342,0,1,1,.684,0,.342.342,0,0,1-.684,0Zm4.568,1.889v2.192h-2.754v-2.192a1.377,1.377,0,0,1,2.754,0Zm3.807,2.192H1035l1.485-3.646Zm-7.294-3.944c1.106-2.831,4.083-5.1,7.8-5.966v9.91h-.066l-1.739-4.268a.2.2,0,0,0-.19-.128.2.2,0,0,0-.188.128l-1.724,4.232v-2.156a1.788,1.788,0,0,0-3.575,0v1.653l-.868-2.664a.2.2,0,0,0-.14-.131A.753.753,0,0,0,1030.68,2136.034Zm.323-2.636,6.3-4.327h1.181v.574c-3.676.83-6.668,3-7.97,5.739Zm7.9,3.777a3.04,3.04,0,0,1,6.081,0v2.8H1038.9Zm0-8.1h.927v5.379a3.45,3.45,0,0,0-.927,1.089Zm3.036,4.248a.69.69,0,1,1,.771-.687A.732.732,0,0,1,1041.935,2133.318Zm-1.7-4.248h3.4v5.1a3.448,3.448,0,0,0-1.62-.449,1.178,1.178,0,1,0-.169,0,3.44,3.44,0,0,0-1.616.449Zm.043-3.388h-.021a.372.372,0,0,1-.175-.041l-1.286.854-.018.081a.485.485,0,0,1-.207.3.491.491,0,0,1-.69-.139.495.495,0,0,1,.658-.7l.108.065,1.208-.8a.06.06,0,0,1,0-.018.377.377,0,0,1,.041-.176l-.946-1.431-.107,0a.484.484,0,0,1-.395-.223.495.495,0,0,1,.411-.767.491.491,0,0,1,.464.661l-.033.1.949,1.433h.018a.419.419,0,0,1,.173.039l1.2-.793-.012-.127a.493.493,0,0,1,.217-.47.5.5,0,0,1,.273-.081.49.49,0,0,1,.413.224.5.5,0,0,1-.14.686.491.491,0,0,1-.358.069l-.081-.01-1.281.848v.021a.372.372,0,0,1-.039.173l1.059,1.6.131-.019a.787.787,0,0,1,.773.339.763.763,0,0,1,.116.589.789.789,0,0,1-.334.5.8.8,0,0,1-.434.128.783.783,0,0,1-.654-.35.792.792,0,0,1-.01-.851l.069-.111Zm3.774,3.388h.927v6.468a3.51,3.51,0,0,0-.927-1.089Zm4.817,10.908H1045.9l1.482-3.646Zm3.593-2.192v2.192h-2.753v-2.192a1.376,1.376,0,1,1,2.753,0Zm-7.073-7.718c3.724.865,6.7,3.135,7.806,5.966a.756.756,0,0,0,.688.61.2.2,0,0,0-.142.131l-.865,2.664v-1.653a1.788,1.788,0,0,0-3.575,0v2.156l-1.725-4.232a.2.2,0,0,0-.193-.128.205.205,0,0,0-.19.128l-1.735,4.268h-.069Zm0-1h1.187l6.3,4.327.489,1.986c-1.3-2.742-4.294-4.908-7.973-5.739Zm8.548,6.483a.344.344,0,0,1,.341.344.343.343,0,0,1-.685,0A.347.347,0,0,1,1053.938,2135.553Zm.8,4.425h-1.606l.806-2.471Zm.349,4.707h-1.412v-2.106h1.412Zm-1.617-2.519a.2.2,0,0,0-.2.205v2.522a.206.206,0,0,0,.2.2h1.617v.567h-9.7V2141.6h9.7v.566Zm-.862,18.634H1051.3v-3.663h1.312Zm1.555-3.308v3.308h-1.147v-3.663h.167A1.343,1.343,0,0,1,1054.164,2157.491Zm-1.147-3.639v-6.8h1.147v6.444a1.367,1.367,0,0,1-.98.355Zm-1.388-4.8a.211.211,0,0,0-.166-.1v-1.9h1.145v6.8H1051.3v-3.329a2.964,2.964,0,0,1,.334-1.269A.2.2,0,0,0,1051.63,2149.048Zm-1.724-1.995h1.147v1.9h-1.147Zm-1.556,0h1.146v1.9h-1.146Zm-.579,2.2a2.992,2.992,0,0,1,.335,1.269v3.329H1046.8v-6.8h1.141v1.9a.2.2,0,0,0-.166.306Zm-2.536,4.243v-6.444h1.146v6.8h-.161A1.378,1.378,0,0,1,1045.235,2153.5Zm1.561,3.64h1.311v3.663H1046.8Zm-1.561,3.663v-3.308a1.371,1.371,0,0,1,.986-.354h.161v3.663Zm-1.555-.361v-13.385h1.145V2160.8h-.188A1.28,1.28,0,0,1,1043.681,2160.438Zm1.145,3.643v9.933a2.037,2.037,0,0,0-.948-.236c-.068,0-.131,0-.2.006v-9.362a1.3,1.3,0,0,1,.957-.341Zm9.235,5.052a.88.88,0,0,0-.405-.1.853.853,0,0,0-.639.316v-5.264h1.147v5.184A.219.219,0,0,0,1054.061,2169.133Zm-.634,4.142a7.549,7.549,0,0,1,.705-3.844.2.2,0,0,0,.032-.064v5.014c-.047.049-.095.1-.139.148A5.081,5.081,0,0,0,1053.427,2173.275Zm-.352.209a4.612,4.612,0,0,1,.62,1.4l-1.4-1.4Zm-.026-1.249c-.018.262-.032.536-.035.836h-6.628c0-.3-.018-.574-.035-.836Zm-4.922-.415h-.671a.439.439,0,0,1,.378-.177.489.489,0,0,1,.276.163C1048.116,2171.813,1048.124,2171.816,1048.127,2171.821Zm-.021-2.525a1.57,1.57,0,0,0-.473.9c0,.123.276,1.064.9,1.064a1.136,1.136,0,0,0,.188-.015c-.035.039-.065.08-.1.114a.786.786,0,0,1-.2.169c0-.006-.01-.01-.018-.021a.881.881,0,0,0-.565-.278.848.848,0,0,0-.624.249c-.03-.026-.057-.051-.092-.075a.6.6,0,0,0,.319-.4c.206-.593.2-.708.132-.867l-.006-.017c0-.006-.3-.735-.768-.809v-5.228h1.309Zm3.842,2.525h-.675l.017-.014a.514.514,0,0,1,.276-.163A.445.445,0,0,1,1051.947,2171.821Zm.661-2.511c-.466.069-.768.8-.774.809l-.008.02c-.062.157-.066.276.137.865a.61.61,0,0,0,.322.4c-.035.024-.066.05-.1.071a.8.8,0,0,0-1.187.038.108.108,0,0,0-.02.018.791.791,0,0,1-.2-.171,1.382,1.382,0,0,1-.1-.114,1.179,1.179,0,0,0,.188.015c.6,0,.9-.886.9-1.064a1.586,1.586,0,0,0-.475-.9v-5.215h1.311Zm.285,1.476a.2.2,0,0,0-.243.066.47.47,0,0,1-.211.169c-.011,0-.051-.041-.091-.152-.172-.5-.151-.55-.138-.574l.009-.03c.066-.16.307-.552.463-.552.039,0,.1.049.152.13a.2.2,0,0,0,.357-.029s.182-.374.464-.374h.006a7.307,7.307,0,0,0-.578,2.38h-.666a1.417,1.417,0,0,0,.6-.816A.205.205,0,0,0,1052.894,2170.786Zm-3.768-1.6a.311.311,0,0,1-.078-.255c0-.24.5-.455.654-.491.137.033.657.238.657.491a.338.338,0,0,1-.082.259.41.41,0,0,0-.111.275v.058a.2.2,0,0,0,.072.158.206.206,0,0,0,.17.047.444.444,0,0,0,.2-.108.33.33,0,0,1,.261-.08.28.28,0,0,1,.06.012.191.191,0,0,0,.115.068,1.35,1.35,0,0,1,.312.579c-.029.137-.235.654-.487.654a.333.333,0,0,1-.261-.081.409.409,0,0,0-.271-.11h-.154a.209.209,0,0,0-.178.1.224.224,0,0,0,0,.2,3.91,3.91,0,0,0,.476.682,1.549,1.549,0,0,0,.2.179h-1.959a1.179,1.179,0,0,0,.2-.179,3.982,3.982,0,0,0,.476-.682.206.206,0,0,0-.006-.2.2.2,0,0,0-.178-.1h-.151a.415.415,0,0,0-.273.11.332.332,0,0,1-.261.081c-.25,0-.457-.518-.486-.654a1.312,1.312,0,0,1,.318-.579.206.206,0,0,0,.108-.068.262.262,0,0,1,.06-.012.33.33,0,0,1,.261.08.468.468,0,0,0,.2.108.211.211,0,0,0,.244-.2v-.058A.416.416,0,0,0,1049.126,2169.186Zm-3.385.254h.006c.282,0,.461.369.464.374a.2.2,0,0,0,.169.119.219.219,0,0,0,.185-.088c.057-.083.113-.132.158-.132.155,0,.4.386.455.552l.015.035c.012.019.032.071-.143.569a.315.315,0,0,1-.084.152.45.45,0,0,1-.211-.166.2.2,0,0,0-.243-.07.2.2,0,0,0-.125.217,1.4,1.4,0,0,0,.6.818h-.667A7.27,7.27,0,0,0,1045.74,2169.44Zm-.5-.175v-5.184h1.146v5.264a.834.834,0,0,0-.636-.316.886.886,0,0,0-.405.1A.248.248,0,0,0,1045.235,2169.265Zm.035.166a7.5,7.5,0,0,1,.705,3.841,5.014,5.014,0,0,0-.572,1.172,2.237,2.237,0,0,0-.167-.154v-4.928A.2.2,0,0,0,1045.27,2169.431Zm10.452-5.009v9.358h-.1a2.1,2.1,0,0,0-.83.175c-.006,0-.006,0-.011,0-.069.03-.14.068-.208.1v-9.98h.188A1.31,1.31,0,0,1,1055.722,2164.422Zm-.958-.753h-3.671a.209.209,0,0,0-.208.207v5.254h-.012c-.044,0-.084,0-.124.006a.955.955,0,0,0,.02-.2c0-.622-.937-.9-1.067-.9-.182,0-1.067.3-1.067.9a.963.963,0,0,0,.018.2c-.036,0-.078-.006-.124-.006h-.013v-5.254a.207.207,0,0,0-.2-.207h-3.673a1.835,1.835,0,0,0-.957.244v-2.955a1.832,1.832,0,0,0,.957.249h3.673a.2.2,0,0,0,.2-.2v-4.074a.206.206,0,0,0-.2-.21h-2.089a1.914,1.914,0,0,0-.986.256v-2.967a1.944,1.944,0,0,0,.986.252h2.089a.206.206,0,0,0,.2-.21v-3.53a3.249,3.249,0,0,0-.241-1.163h2.855a3.285,3.285,0,0,0-.245,1.163v3.53a.209.209,0,0,0,.208.21h2.092a1.924,1.924,0,0,0,.98-.252v2.967a1.9,1.9,0,0,0-.98-.256h-2.092a.209.209,0,0,0-.208.21V2161a.206.206,0,0,0,.208.2h3.671a1.83,1.83,0,0,0,.958-.249v2.955A1.833,1.833,0,0,0,1054.763,2163.668Zm.958-16.615v13.385a1.279,1.279,0,0,1-.958.361h-.188v-13.746Zm-.681-10.56a.252.252,0,1,1,.253.256A.252.252,0,0,1,1055.041,2136.493Zm2.44,10.354a.206.206,0,0,0-.2-.206H1055.5v-9.516a.664.664,0,1,0-.411,0v2.6l-.955-2.947a.206.206,0,0,0-.143-.131.751.751,0,0,0-.051-1.5.789.789,0,0,0-.2.029l-.477-1.948a.259.259,0,0,0-.083-.124l-6.42-4.407a.22.22,0,0,0-.114-.033h-3.866a1.195,1.195,0,0,0-.889-2.043l-.771-1.167.925-.611.071,0a.9.9,0,0,0,.889-.723.915.915,0,0,0-.135-.686.9.9,0,0,0-.753-.4.935.935,0,0,0-.5.149.907.907,0,0,0-.405.731l-.768.509-.69-1.041a.917.917,0,0,0-.128-.705.906.906,0,0,0-1.511,1,.925.925,0,0,0,.612.393l.687,1.035-.777.515a.931.931,0,0,0-.83.089.906.906,0,0,0,1,1.511.935.935,0,0,0,.36-.469l.925-.613.77,1.158a1.2,1.2,0,0,0,.081,1.177,1.477,1.477,0,0,0,.158.187h-3.857a.238.238,0,0,0-.116.033l-6.414,4.407a.191.191,0,0,0-.083.124l-.479,1.948a.818.818,0,0,0-.2-.029.751.751,0,0,0-.053,1.5.214.214,0,0,0-.143.131l-.955,2.947v-2.6a.665.665,0,1,0-.411,0v9.516H1026.6a.206.206,0,0,0-.2.206c0,.23-.053,23.109-.053,25.47,0,6.777,4.1,10.483,7.542,12.395a26.269,26.269,0,0,0,5.475,2.108,22.72,22.72,0,0,1,2.493.833.254.254,0,0,0,.081.017.207.207,0,0,0,.084-.017,22.761,22.761,0,0,1,2.5-.833,26.346,26.346,0,0,0,5.472-2.108,13.694,13.694,0,0,0,7.538-12.395C1057.53,2169.956,1057.481,2147.077,1057.481,2146.847Z" transform="translate(-1026.343 -2122.272)" fill="#174895"/>
      </g>
      <g id="Group_37138" data-name="Group 37138" transform="translate(46.367 19.895)">
        <path id="Path_42391" data-name="Path 42391" d="M1141.729,2410.411h2.441v2.108h-2.441Zm-.208,2.521h2.855a.209.209,0,0,0,.2-.211V2410.2a.2.2,0,0,0-.2-.2h-2.855a.2.2,0,0,0-.208.2v2.519A.21.21,0,0,0,1141.521,2412.931Z" transform="translate(-1141.313 -2409.998)" fill="#174895"/>
      </g>
      <g id="Group_37139" data-name="Group 37139" transform="translate(43.395 19.894)">
        <path id="Path_42392" data-name="Path 42392" d="M1098.741,2410.791a.382.382,0,0,1,.383-.384h.677a.384.384,0,0,1,.384.384v1.342a.387.387,0,0,1-.384.383h-.677a.384.384,0,0,1-.383-.383Zm.383,2.138h.677a.8.8,0,0,0,.794-.8v-1.342a.8.8,0,0,0-.794-.8h-.677a.8.8,0,0,0-.794.8v1.342A.8.8,0,0,0,1099.124,2412.929Z" transform="translate(-1098.33 -2409.994)" fill="#174895"/>
      </g>
      <g id="Group_37140" data-name="Group 37140" transform="translate(0.001 73.034)">
        <path id="Path_42393" data-name="Path 42393" d="M482.363,3187.208c.054.483.147,1.235.726,1.422a2.882,2.882,0,0,0,.874.122c.065,0,.105.012.105.065,0,.081-.118.122-.282.122-.3,0-1.746-.041-2.239-.08-.309-.026-.376-.066-.376-.133s.024-.081.095-.1.077-.243.053-.482l-.645-6.926h-.042l-3.289,6.977c-.282.594-.319.714-.441.714-.094,0-.16-.136-.413-.618-.352-.658-1.5-2.98-1.573-3.113-.118-.246-1.623-3.463-1.77-3.829h-.051l-.542,6.229c-.01.215-.01.457-.01.689a.424.424,0,0,0,.348.411,2.377,2.377,0,0,0,.511.069c.054,0,.107.025.107.065,0,.1-.081.122-.241.122-.5,0-1.142-.041-1.251-.041s-.762.041-1.127.041c-.133,0-.226-.025-.226-.122,0-.04.065-.065.135-.065a1.748,1.748,0,0,0,.4-.039c.445-.083.485-.606.536-1.115l.969-8.75c.014-.146.066-.241.148-.241s.134.051.2.2l4.109,8.441,3.946-8.428c.054-.119.105-.214.2-.214s.136.1.163.362Z" transform="translate(-470.663 -3178.606)" fill="#174895"/>
      </g>
      <g id="Group_37141" data-name="Group 37141" transform="translate(13.14 74.52)">
        <path id="Path_42394" data-name="Path 42394" d="M666.246,3205.3c.054,0,.054-.027.042-.081l-1.169-3.128c-.067-.173-.136-.173-.2,0l-1.1,3.128c-.012.054,0,.081.041.081Zm-1.314-4.747c.146-.377.2-.449.282-.449.122,0,.16.164.282.417.217.485,2.109,5.195,2.833,6.927.429,1.02.75,1.167,1.006,1.248a1.632,1.632,0,0,0,.469.066c.068,0,.149.027.149.095s-.136.092-.273.092c-.173,0-1.043,0-1.865-.027-.223-.012-.413-.012-.413-.078s.027-.054.08-.081a.218.218,0,0,0,.11-.309l-1.064-2.617c-.027-.053-.039-.067-.11-.067H663.7a.12.12,0,0,0-.119.095l-.672,1.824a2.359,2.359,0,0,0-.175.764c0,.227.2.309.4.309h.107c.095,0,.12.042.12.095s-.068.092-.172.092c-.283,0-.93-.039-1.064-.039-.119,0-.709.039-1.192.039-.149,0-.229-.027-.229-.092a.1.1,0,0,1,.106-.095,2.905,2.905,0,0,0,.351-.029c.535-.066.764-.466.993-1.044Z" transform="translate(-660.705 -3200.107)" fill="#174895"/>
      </g>
      <g id="Group_37142" data-name="Group 37142" transform="translate(21.995 74.578)">
        <path id="Path_42395" data-name="Path 42395" d="M795.684,3206.817c0-.927-.029-1.059-.509-1.156-.095-.012-.3-.024-.4-.024a.116.116,0,0,1-.1-.1c0-.082.053-.092.188-.092.535,0,1.329.024,1.4.024s.79-.024,1.153-.024c.131,0,.188.01.188.092a.121.121,0,0,1-.093.1,1.453,1.453,0,0,0-.3.024c-.322.054-.419.229-.443.633-.014.363-.014.695-.014,1.181v1.272c0,.526-.014.539-.163.62a6.687,6.687,0,0,1-6.4-.713,4.367,4.367,0,0,1-1.409-3.248,4.267,4.267,0,0,1,1.974-3.744,5.938,5.938,0,0,1,3.141-.723,9.772,9.772,0,0,1,1.816.188,5.122,5.122,0,0,0,.949.118c.12,0,.146.054.146.11,0,.16-.065.47-.065,1.609,0,.185-.056.242-.134.242s-.082-.068-.082-.175a1.7,1.7,0,0,0-.267-.754,3.385,3.385,0,0,0-2.727-.885,3.742,3.742,0,0,0-2.468.741A3.534,3.534,0,0,0,789.9,3205a4.549,4.549,0,0,0,1.247,3.155,4.226,4.226,0,0,0,3.019,1.2,3,3,0,0,0,1.278-.217c.146-.078.239-.134.239-.347Z" transform="translate(-788.784 -3200.94)" fill="#174895"/>
      </g>
      <g id="Group_37143" data-name="Group 37143" transform="translate(31.219 74.737)">
        <path id="Path_42396" data-name="Path 42396" d="M925.947,3208.913a2.072,2.072,0,0,0-.253-1.171c-.095-.175-1.692-2.709-2.1-3.314a2.877,2.877,0,0,0-.774-.83,1.208,1.208,0,0,0-.5-.163.115.115,0,0,1-.12-.105c0-.054.037-.081.146-.081.229,0,1.116.027,1.169.027.075,0,.565-.027,1.019-.027.136,0,.16.027.16.081,0,.039-.078.081-.187.119s-.146.1-.146.188a.93.93,0,0,0,.161.443l2.146,3.558c.244-.484,1.718-2.927,1.934-3.3a1.259,1.259,0,0,0,.2-.592.268.268,0,0,0-.187-.3c-.108-.029-.178-.08-.178-.132s.069-.068.188-.068c.309,0,.728.027.82.027s.927-.027,1.154-.027c.083,0,.148.027.148.068a.138.138,0,0,1-.148.119,1.22,1.22,0,0,0-.548.149,2.034,2.034,0,0,0-.594.564c-.386.457-2.052,3.14-2.294,3.623a2.291,2.291,0,0,0-.146,1.142v.978c0,.19,0,.672.039,1.139.027.339.107.555.455.607a4.871,4.871,0,0,0,.541.053.092.092,0,0,1,.094.095c0,.052-.068.094-.188.094-.658,0-1.424-.041-1.49-.041s-.806.041-1.155.041c-.133,0-.187-.028-.187-.094a.09.09,0,0,1,.1-.095,1.6,1.6,0,0,0,.345-.053c.243-.052.325-.268.348-.607.029-.467.029-.949.029-1.139Z" transform="translate(-922.205 -3203.249)" fill="#174895"/>
      </g>
      <g id="Group_37144" data-name="Group 37144" transform="translate(38.707 74.52)">
        <path id="Path_42397" data-name="Path 42397" d="M1036.055,3205.3c.054,0,.054-.027.044-.081l-1.171-3.128c-.065-.173-.136-.173-.2,0l-1.1,3.128c-.014.054,0,.081.039.081Zm-1.314-4.747c.147-.377.2-.449.282-.449.122,0,.161.164.282.417.217.485,2.109,5.195,2.833,6.927.429,1.02.752,1.167,1.006,1.248a1.636,1.636,0,0,0,.469.066c.067,0,.149.027.149.095s-.135.092-.273.092c-.172,0-1.041,0-1.862-.027-.226-.012-.416-.012-.416-.078s.027-.054.08-.081a.218.218,0,0,0,.11-.309l-1.062-2.617a.094.094,0,0,0-.107-.067h-2.726c-.052,0-.092.026-.119.095l-.672,1.824a2.369,2.369,0,0,0-.175.764c0,.227.2.309.405.309h.1c.095,0,.122.042.122.095s-.066.092-.173.092c-.283,0-.93-.039-1.059-.039s-.714.039-1.2.039c-.149,0-.229-.027-.229-.092a.1.1,0,0,1,.108-.095,2.888,2.888,0,0,0,.348-.029c.533-.066.764-.466,1-1.044Z" transform="translate(-1030.513 -3200.107)" fill="#174895"/>
      </g>
      <g id="Group_37145" data-name="Group 37145" transform="translate(48.76 74.736)">
        <path id="Path_42398" data-name="Path 42398" d="M1177.954,3207.5a.171.171,0,0,0,.08.146,3.951,3.951,0,0,0,1.3.176,1.536,1.536,0,0,0,.886-.2,2.037,2.037,0,0,0,.711-1.748,1.969,1.969,0,0,0-2.039-2.24,5.566,5.566,0,0,0-.847.066.152.152,0,0,0-.092.133Zm-1.02-.967c0-1.77,0-2.093-.028-2.458-.027-.385-.094-.574-.482-.627a3.152,3.152,0,0,0-.4-.03.11.11,0,0,1-.1-.094c0-.068.053-.095.19-.095.538,0,1.326.027,1.4.027.119,0,1.112-.027,1.477-.027a3.855,3.855,0,0,1,2.2.5,2,2,0,0,1,.818,1.558,3.326,3.326,0,0,1-1.448,2.6c.966,1.207,1.784,2.239,2.468,2.95a2.153,2.153,0,0,0,1.316.792,2.072,2.072,0,0,0,.419.043.1.1,0,0,1,.105.094c0,.065-.068.094-.283.094h-.738a2.366,2.366,0,0,1-1.259-.23,5.984,5.984,0,0,1-1.611-1.677c-.5-.618-1.019-1.356-1.276-1.665a.182.182,0,0,0-.16-.068l-1.5-.024c-.051,0-.08.024-.08.092v.268c0,1.1,0,1.987.051,2.456.041.337.108.55.47.605a4.674,4.674,0,0,0,.524.055.084.084,0,0,1,.1.094c0,.052-.057.094-.191.094-.642,0-1.394-.042-1.449-.042-.013,0-.8.042-1.166.042-.122,0-.187-.028-.187-.094a.088.088,0,0,1,.092-.094,1.781,1.781,0,0,0,.363-.055c.227-.056.254-.268.309-.605a23.112,23.112,0,0,0,.068-2.471Z" transform="translate(-1175.926 -3203.232)" fill="#174895"/>
      </g>
      <g id="Group_37146" data-name="Group 37146" transform="translate(57.269 74.576)">
        <path id="Path_42399" data-name="Path 42399" d="M1303.956,3209.384c1.059,0,3.192-.565,3.192-3.866,0-2.738-1.663-4.174-3.527-4.174-1.972,0-3.4,1.232-3.4,3.718C1300.226,3207.72,1301.823,3209.384,1303.956,3209.384Zm-.268-8.469c2.656,0,4.669,1.624,4.669,4.285a4.571,4.571,0,0,1-4.736,4.654,4.375,4.375,0,0,1-4.616-4.482A4.516,4.516,0,0,1,1303.688,3200.915Z" transform="translate(-1299.005 -3200.915)" fill="#174895"/>
      </g>
      <g id="Group_37147" data-name="Group 37147" transform="translate(67.992 74.736)">
        <path id="Path_42400" data-name="Path 42400" d="M1456.122,3207.5a.17.17,0,0,0,.08.146,3.957,3.957,0,0,0,1.3.176,1.555,1.555,0,0,0,.889-.2,2.042,2.042,0,0,0,.708-1.748,1.968,1.968,0,0,0-2.039-2.24,5.506,5.506,0,0,0-.845.066.149.149,0,0,0-.093.133Zm-1.02-.967c0-1.77,0-2.093-.027-2.458-.029-.385-.095-.574-.485-.627a3.109,3.109,0,0,0-.4-.03.109.109,0,0,1-.092-.094c0-.068.051-.095.187-.095.536,0,1.328.027,1.4.027.116,0,1.11-.027,1.475-.027a3.853,3.853,0,0,1,2.2.5,2.008,2.008,0,0,1,.818,1.558,3.331,3.331,0,0,1-1.448,2.6c.967,1.207,1.782,2.239,2.468,2.95a2.156,2.156,0,0,0,1.315.792,2.083,2.083,0,0,0,.419.043.1.1,0,0,1,.1.094c0,.065-.068.094-.282.094h-.736a2.366,2.366,0,0,1-1.261-.23,5.963,5.963,0,0,1-1.609-1.677c-.5-.618-1.021-1.356-1.279-1.665a.179.179,0,0,0-.157-.068l-1.505-.024c-.051,0-.08.024-.08.092v.268c0,1.1,0,1.987.051,2.456.042.337.108.55.47.605a4.613,4.613,0,0,0,.526.055.083.083,0,0,1,.093.094c0,.052-.056.094-.188.094-.644,0-1.394-.042-1.449-.042-.014,0-.8.042-1.166.042-.124,0-.188-.028-.188-.094a.089.089,0,0,1,.094-.094,1.75,1.75,0,0,0,.361-.055c.229-.056.255-.268.309-.605a23.07,23.07,0,0,0,.068-2.471Z" transform="translate(-1454.097 -3203.232)" fill="#174895"/>
      </g>
      <g id="Group_37148" data-name="Group 37148" transform="translate(77.462 74.563)">
        <path id="Path_42401" data-name="Path 42401" d="M1591.248,3209.369c-.163-.08-.177-.122-.177-.428,0-.563.053-1.021.068-1.21,0-.119.026-.188.093-.188s.107.044.107.136a1.64,1.64,0,0,0,.042.417,1.734,1.734,0,0,0,1.865,1.125c1.167,0,1.772-.654,1.772-1.514,0-.82-.443-1.207-1.49-1.985l-.54-.4c-1.271-.955-1.69-1.651-1.69-2.443,0-1.344,1.059-2.147,2.617-2.147a5.487,5.487,0,0,1,1.223.135,1.534,1.534,0,0,0,.414.053c.095,0,.12.012.12.08a11.993,11.993,0,0,0-.054,1.207c0,.174-.011.258-.093.258s-.1-.057-.105-.149a2.117,2.117,0,0,0-.176-.565c-.08-.131-.47-.562-1.528-.562-.86,0-1.573.431-1.573,1.237,0,.722.363,1.141,1.531,1.929l.337.23c1.433.982,1.93,1.772,1.93,2.751a2.214,2.214,0,0,1-1.1,1.944,3.61,3.61,0,0,1-1.877.4A4.323,4.323,0,0,1,1591.248,3209.369Z" transform="translate(-1591.072 -3200.728)" fill="#174895"/>
      </g>
      <g id="Group_37149" data-name="Group 37149" transform="translate(83.844 74.655)">
        <path id="Path_42402" data-name="Path 42402" d="M1687.92,3210.234c1.249,0,1.569-.205,1.838-.525a1.934,1.934,0,0,0,.244-.618c.024-.108.065-.175.132-.175s.092.042.092.255a6.406,6.406,0,0,1-.239,1.314c-.068.282-.081.3-.348.3-1.975,0-3.974-.054-6.04-.054-.135,0-.218-.012-.218-.092,0-.057.013-.137.166-.351,1.771-2.561,3.515-5.1,5.139-7.634h-2.5a4.2,4.2,0,0,0-1.678.188,1.292,1.292,0,0,0-.669.9c-.029.175-.1.2-.161.2s-.066-.055-.066-.146c0-.134.175-1.171.243-1.519.013-.163.038-.217.1-.217a4.1,4.1,0,0,0,.5.081c1.127.042,1.692.029,2.066.029h3.3c.176,0,.241.026.241.095a.343.343,0,0,1-.065.2c-1.72,2.632-3.438,5.18-5.223,7.771Z" transform="translate(-1683.38 -3202.057)" fill="#174895"/>
      </g>
      <g id="Group_37150" data-name="Group 37150" transform="translate(91.207 72.227)">
        <path id="Path_42403" data-name="Path 42403" d="M1796.472,3167.651c.065.124,0,.161-.054.161a1.884,1.884,0,0,0-.4,0,8.815,8.815,0,0,0-2.04.56.712.712,0,0,1-.2.073.079.079,0,0,1-.069-.084c0-.039.027-.063.095-.1.484-.337,1.731-1.088,1.826-1.139.229-.136.311-.177.375-.177.044,0,.066.028.136.12C1796.231,3167.2,1796.324,3167.383,1796.472,3167.651Zm-1.047,6.78c.054,0,.054-.029.041-.083l-1.171-3.128c-.065-.172-.132-.172-.2,0l-1.1,3.128c-.012.054,0,.083.045.083Zm-1.315-4.753c.147-.377.2-.443.28-.443.12,0,.161.161.282.417.217.484,2.109,5.192,2.832,6.926.429,1.02.752,1.168,1.006,1.248a1.673,1.673,0,0,0,.468.066c.071,0,.149.027.149.1s-.135.093-.268.093c-.176,0-1.045,0-1.867-.027-.228-.013-.416-.013-.416-.078s.028-.056.083-.083a.217.217,0,0,0,.1-.309l-1.061-2.617c-.027-.053-.039-.065-.106-.065h-2.727a.116.116,0,0,0-.116.094l-.673,1.823a2.329,2.329,0,0,0-.175.765c0,.228.2.309.4.309h.107c.094,0,.121.039.121.1s-.065.093-.175.093c-.28,0-.926-.041-1.059-.041s-.71.041-1.195.041c-.149,0-.229-.027-.229-.093a.1.1,0,0,1,.107-.1,3.379,3.379,0,0,0,.351-.027c.536-.068.766-.469.994-1.047Z" transform="translate(-1789.881 -3166.94)" fill="#174895"/>
      </g>
      <g id="Group_37151" data-name="Group 37151" transform="translate(99.863 74.578)">
        <path id="Path_42404" data-name="Path 42404" d="M1921.979,3206.817c0-.927-.027-1.059-.511-1.156-.092-.012-.292-.024-.4-.024a.116.116,0,0,1-.1-.1c0-.082.053-.092.188-.092.535,0,1.329.024,1.4.024.053,0,.79-.024,1.153-.024.131,0,.188.01.188.092a.121.121,0,0,1-.093.1,1.446,1.446,0,0,0-.3.024c-.323.054-.419.229-.445.633-.012.363-.012.695-.012,1.181v1.272c0,.526-.014.539-.163.62a6.687,6.687,0,0,1-6.4-.713,4.367,4.367,0,0,1-1.409-3.248,4.267,4.267,0,0,1,1.974-3.744,5.939,5.939,0,0,1,3.141-.723,9.773,9.773,0,0,1,1.816.188,5.118,5.118,0,0,0,.949.118c.121,0,.146.054.146.11,0,.16-.065.47-.065,1.609,0,.185-.056.242-.135.242s-.08-.068-.08-.175a1.715,1.715,0,0,0-.267-.754,3.387,3.387,0,0,0-2.727-.885,3.742,3.742,0,0,0-2.468.741A3.534,3.534,0,0,0,1916.2,3205a4.542,4.542,0,0,0,1.247,3.155,4.223,4.223,0,0,0,3.018,1.2,3,3,0,0,0,1.279-.217c.145-.078.238-.134.238-.347Z" transform="translate(-1915.081 -3200.94)" fill="#174895"/>
      </g>
      <g id="Group_37152" data-name="Group 37152" transform="translate(15.754 87.478)">
        <path id="Path_42405" data-name="Path 42405" d="M699.685,3391.42c0-2.1,0-2.47-.028-2.9-.024-.457-.131-.669-.577-.766a2.471,2.471,0,0,0-.455-.041c-.051,0-.107-.024-.107-.081,0-.078.068-.107.215-.107.6,0,1.394.041,1.474.041.123,0,.9-.041,1.3-.041.149,0,.216.029.216.107,0,.058-.054.081-.11.081a1.99,1.99,0,0,0-.333.041c-.363.066-.47.3-.5.766-.024.428-.024.8-.024,2.9v.8h.053c.229-.256,2.658-2.724,3.143-3.245.375-.39.722-.738.722-.969a.265.265,0,0,0-.173-.281c-.069-.024-.122-.053-.122-.107s.066-.095.163-.095c.267,0,.682.041,1.008.041.066,0,.948-.041,1.287-.041.148,0,.2.029.2.095s-.027.093-.133.093a2.021,2.021,0,0,0-.753.188,4.981,4.981,0,0,0-1.448,1.156c-.339.321-2.67,2.6-2.955,2.941.351.387,3.141,3.274,3.691,3.783a6.219,6.219,0,0,0,2,1.529,2.436,2.436,0,0,0,.832.174c.093,0,.173.027.173.082s-.068.1-.294.1h-.685c-.377,0-.63,0-.925-.022a2.786,2.786,0,0,1-1.626-.823c-.6-.494-3.447-3.571-4.092-4.359h-.066v1.313c0,1.29,0,2.351.066,2.914.039.389.122.686.521.738a4.32,4.32,0,0,0,.524.053c.084,0,.108.04.108.082,0,.067-.068.1-.216.1-.655,0-1.434-.037-1.544-.037s-.883.037-1.287.037c-.148,0-.215-.022-.215-.1,0-.042.027-.082.109-.082a1.933,1.933,0,0,0,.4-.053c.268-.052.336-.35.39-.738.068-.562.068-1.624.068-2.914Z" transform="translate(-698.517 -3387.527)" fill="#174895"/>
      </g>
      <g id="Group_37153" data-name="Group 37153" transform="translate(25.271 88.834)">
        <path id="Path_42406" data-name="Path 42406" d="M841.131,3415.621c1.059,0,3.192-.565,3.192-3.865,0-2.739-1.663-4.175-3.527-4.175-1.972,0-3.4,1.232-3.4,3.718C837.4,3413.958,839,3415.621,841.131,3415.621Zm-.27-8.469c2.658,0,4.672,1.624,4.672,4.282a4.573,4.573,0,0,1-4.737,4.657,4.375,4.375,0,0,1-4.616-4.482A4.515,4.515,0,0,1,840.861,3407.153Z" transform="translate(-836.18 -3407.153)" fill="#174895"/>
      </g>
      <g id="Group_37154" data-name="Group 37154" transform="translate(35.995 88.995)">
        <path id="Path_42407" data-name="Path 42407" d="M993.319,3413.739a.17.17,0,0,0,.08.146,3.941,3.941,0,0,0,1.3.177,1.556,1.556,0,0,0,.889-.2,2.049,2.049,0,0,0,.708-1.748,1.97,1.97,0,0,0-2.039-2.24,5.152,5.152,0,0,0-.847.066.148.148,0,0,0-.092.132Zm-1.022-.969c0-1.767,0-2.091-.028-2.456-.026-.387-.092-.574-.482-.627a3.107,3.107,0,0,0-.4-.03.108.108,0,0,1-.093-.094c0-.066.051-.095.188-.095.536,0,1.325.028,1.4.028.116,0,1.11-.028,1.474-.028a3.86,3.86,0,0,1,2.2.5,2.008,2.008,0,0,1,.818,1.558,3.328,3.328,0,0,1-1.45,2.6c.966,1.207,1.784,2.239,2.47,2.95a2.17,2.17,0,0,0,1.315.792,2.089,2.089,0,0,0,.419.042.1.1,0,0,1,.1.095c0,.063-.068.092-.282.092h-.738a2.367,2.367,0,0,1-1.26-.229,5.968,5.968,0,0,1-1.612-1.677c-.5-.617-1.019-1.356-1.276-1.666a.177.177,0,0,0-.16-.068l-1.5-.022c-.051,0-.08.022-.08.09v.27c0,1.1,0,1.987.051,2.456.041.338.108.55.47.606a4.684,4.684,0,0,0,.523.054.084.084,0,0,1,.1.095c0,.051-.057.092-.19.092-.642,0-1.392-.041-1.451-.041-.014,0-.8.041-1.163.041-.124,0-.188-.029-.188-.092a.089.089,0,0,1,.092-.095,1.8,1.8,0,0,0,.363-.054c.229-.056.255-.268.309-.606a23.594,23.594,0,0,0,.066-2.471Z" transform="translate(-991.292 -3409.469)" fill="#174895"/>
      </g>
      <g id="Group_37155" data-name="Group 37155" transform="translate(45.299 88.835)">
        <path id="Path_42408" data-name="Path 42408" d="M1136.2,3414.474c.041.405.122,1.02.605,1.18a2.5,2.5,0,0,0,.763.107c.056,0,.1.029.1.082,0,.069-.107.107-.243.107-.266,0-1.582-.024-2.013-.063-.283-.029-.336-.068-.336-.125a.1.1,0,0,1,.081-.092c.066-.015.08-.188.054-.4l-.565-5.773h-.026l-2.846,5.826c-.241.5-.312.6-.416.6s-.176-.107-.4-.526c-.311-.562-1.089-2.025-1.381-2.644-.35-.722-1.3-2.643-1.5-3.113h-.057l-.453,5.156c-.015.172-.015.387-.015.576a.319.319,0,0,0,.283.321,1.788,1.788,0,0,0,.455.066c.041,0,.1.042.1.082,0,.083-.081.107-.217.107-.443,0-1-.038-1.1-.038s-.672.038-.991.038c-.122,0-.2-.024-.2-.107,0-.04.056-.082.124-.082a2.243,2.243,0,0,0,.345-.036c.39-.071.405-.485.458-.914l.859-7.447c.015-.124.066-.2.136-.2a.266.266,0,0,1,.24.175l3.571,7.087,3.435-7.074c.056-.11.108-.188.188-.188s.149.095.178.309Z" transform="translate(-1125.868 -3407.16)" fill="#174895"/>
      </g>
      <g id="Group_37156" data-name="Group 37156" transform="translate(57.515 86.487)">
        <path id="Path_42409" data-name="Path 42409" d="M1309.148,3373.906c.065.124,0,.163-.054.163a1.782,1.782,0,0,0-.4,0,8.571,8.571,0,0,0-2.037.562.84.84,0,0,1-.2.069.079.079,0,0,1-.069-.082c0-.041.029-.066.1-.1.482-.337,1.73-1.091,1.825-1.142.229-.134.31-.175.375-.175.044,0,.066.026.136.117C1308.907,3373.451,1309,3373.641,1309.148,3373.906Zm-1.047,6.78c.054,0,.054-.027.041-.082l-1.171-3.127c-.065-.174-.133-.174-.2,0l-1.1,3.127c-.012.055,0,.082.045.082Zm-1.315-4.75c.148-.377.2-.445.28-.445.124,0,.161.16.282.416.217.485,2.109,5.195,2.834,6.926.428,1.02.752,1.167,1.007,1.247a1.558,1.558,0,0,0,.468.068c.069,0,.149.027.149.094s-.137.094-.27.094c-.176,0-1.046,0-1.867-.028-.228-.013-.416-.013-.416-.078s.029-.054.083-.082a.215.215,0,0,0,.105-.309l-1.061-2.617c-.026-.054-.038-.066-.107-.066h-2.726a.12.12,0,0,0-.116.1l-.673,1.821a2.331,2.331,0,0,0-.173.767c0,.228.2.309.4.309h.107c.093,0,.122.041.122.094s-.066.094-.175.094c-.282,0-.928-.042-1.062-.042s-.707.042-1.193.042c-.149,0-.226-.028-.226-.094a.1.1,0,0,1,.1-.094,2.987,2.987,0,0,0,.351-.027c.538-.066.765-.469.994-1.049Z" transform="translate(-1302.559 -3373.198)" fill="#174895"/>
      </g>
      <g id="Group_37157" data-name="Group 37157" transform="translate(67.564 88.834)">
        <path id="Path_42410" data-name="Path 42410" d="M1449.554,3414.378c.027.94.134,1.224.455,1.3a2.6,2.6,0,0,0,.589.068.094.094,0,0,1,.1.1c0,.068-.081.092-.217.092-.67,0-1.141-.036-1.248-.036s-.6.036-1.139.036c-.122,0-.19-.012-.19-.092a.1.1,0,0,1,.1-.1,1.706,1.706,0,0,0,.481-.068c.3-.076.337-.387.337-1.419v-6.536c0-.455.066-.578.16-.578.134,0,.336.229.455.348.188.19,1.906,2.016,3.733,3.893,1.166,1.207,2.429,2.564,2.792,2.941l-.122-5.719c-.012-.736-.081-.992-.441-1.057a3.352,3.352,0,0,0-.577-.057.092.092,0,0,1-.095-.105c0-.068.095-.081.23-.081.535,0,1.1.027,1.231.027s.526-.027,1.007-.027c.12,0,.215.014.215.081a.131.131,0,0,1-.134.105,1.226,1.226,0,0,0-.28.029c-.392.08-.419.309-.419.99l-.024,6.686c0,.749-.014.821-.1.821-.12,0-.244-.1-.9-.7-.124-.108-1.825-1.784-3.074-3.087-1.368-1.437-2.7-2.829-3.06-3.233Z" transform="translate(-1447.901 -3407.145)" fill="#174895"/>
      </g>
      <g id="Group_37158" data-name="Group 37158" transform="translate(77.901 88.994)">
        <path id="Path_42411" data-name="Path 42411" d="M1601.16,3415.127a2.074,2.074,0,0,0-.253-1.171c-.095-.175-1.692-2.71-2.1-3.315a2.875,2.875,0,0,0-.776-.83,1.142,1.142,0,0,0-.494-.163.115.115,0,0,1-.121-.107c0-.052.036-.081.145-.081.229,0,1.117.029,1.171.029.076,0,.564-.029,1.019-.029.134,0,.158.029.158.081s-.077.082-.185.121a.2.2,0,0,0-.148.188.944.944,0,0,0,.161.444l2.147,3.555c.244-.482,1.718-2.926,1.933-3.3a1.241,1.241,0,0,0,.2-.593.264.264,0,0,0-.187-.295c-.109-.029-.178-.08-.178-.134s.069-.068.188-.068c.309,0,.728.029.82.029s.926-.029,1.153-.029c.084,0,.147.029.147.068a.137.137,0,0,1-.147.12,1.2,1.2,0,0,0-.547.149,2.02,2.02,0,0,0-.594.564c-.385.457-2.053,3.14-2.294,3.625a2.285,2.285,0,0,0-.147,1.14v.978c0,.19,0,.672.042,1.139.029.339.105.551.455.607a4.84,4.84,0,0,0,.538.052.092.092,0,0,1,.095.095c0,.053-.068.091-.188.091-.658,0-1.424-.037-1.488-.037s-.808.037-1.159.037c-.132,0-.185-.024-.185-.091a.091.091,0,0,1,.1-.095,1.635,1.635,0,0,0,.345-.052c.241-.056.326-.268.348-.607.029-.467.029-.949.029-1.139Z" transform="translate(-1597.418 -3409.461)" fill="#174895"/>
      </g>
      <g id="Group_37159" data-name="Group 37159" transform="translate(85.387 88.778)">
        <path id="Path_42412" data-name="Path 42412" d="M1711.247,3411.541c.054,0,.054-.029.042-.082l-1.171-3.128c-.065-.173-.134-.173-.2,0l-1.1,3.128c-.012.052,0,.082.041.082Zm-1.313-4.749c.146-.377.2-.448.28-.448.124,0,.161.165.283.417.217.485,2.106,5.2,2.832,6.926.428,1.02.75,1.167,1.007,1.247a1.64,1.64,0,0,0,.467.067c.069,0,.151.028.151.094s-.137.095-.273.095c-.173,0-1.043,0-1.865-.029-.225-.012-.413-.012-.413-.078s.027-.054.08-.082a.216.216,0,0,0,.108-.308l-1.062-2.617c-.027-.055-.039-.066-.11-.066H1708.7a.125.125,0,0,0-.121.094l-.67,1.824a2.385,2.385,0,0,0-.174.766c0,.227.2.308.4.308h.107c.095,0,.121.042.121.094s-.068.095-.172.095c-.283,0-.931-.041-1.064-.041s-.71.041-1.192.041c-.149,0-.229-.029-.229-.095a.1.1,0,0,1,.105-.094,3.3,3.3,0,0,0,.351-.028c.535-.067.764-.467.993-1.045Z" transform="translate(-1705.705 -3406.344)" fill="#174895"/>
      </g>
      <g id="Group_37160" data-name="Group 37160" transform="translate(141.266 0.024)">
        <rect id="Rectangle_15693" data-name="Rectangle 15693" width="97.398" height="65.101" transform="translate(0)" fill="#174895"/>
      </g>
      <g id="Group_37161" data-name="Group 37161" transform="translate(186.445 7.003)">
        <path id="Path_42413" data-name="Path 42413" d="M3171.047,2228.718l-2.2,1.508.842-2.477-2.257-1.6h2.8l.89-2.62.818,2.62h2.79l-2.295,1.606.76,2.487Z" transform="translate(-3167.428 -2223.531)" fill="#ffcb27"/>
      </g>
      <g id="Group_37162" data-name="Group 37162" transform="translate(186.445 51.494)">
        <path id="Path_42414" data-name="Path 42414" d="M3171.047,2872.246l-2.2,1.514.842-2.479-2.257-1.6h2.8l.89-2.625.818,2.625h2.79l-2.295,1.6.76,2.485Z" transform="translate(-3167.428 -2867.057)" fill="#ffcb27"/>
      </g>
      <g id="Group_37163" data-name="Group 37163" transform="translate(164.255 29.217)">
        <path id="Path_42415" data-name="Path 42415" d="M2850.085,2550.023l-2.2,1.512.842-2.477-2.261-1.6h2.808l.89-2.622.815,2.622h2.792l-2.29,1.606.755,2.486Z" transform="translate(-2846.465 -2544.835)" fill="#ffcb27"/>
      </g>
      <g id="Group_37164" data-name="Group 37164" transform="translate(167.414 17.885)">
        <path id="Path_42416" data-name="Path 42416" d="M2895.775,2386.115l-2.2,1.511.845-2.477-2.26-1.6h2.805l.891-2.625.813,2.625h2.795l-2.295,1.6.757,2.488Z" transform="translate(-2892.156 -2380.927)" fill="#ffcb27"/>
      </g>
      <g id="Group_37165" data-name="Group 37165" transform="translate(175.255 9.915)">
        <path id="Path_42417" data-name="Path 42417" d="M3009.183,2270.834l-2.2,1.513.844-2.48-2.26-1.6h2.808l.885-2.623.817,2.623h2.8l-2.295,1.6.759,2.487Z" transform="translate(-3005.565 -2265.647)" fill="#ffcb27"/>
      </g>
      <g id="Group_37166" data-name="Group 37166" transform="translate(197.251 9.915)">
        <path id="Path_42418" data-name="Path 42418" d="M3327.337,2270.834l-2.2,1.513.844-2.48-2.26-1.6h2.808l.886-2.623.817,2.623h2.8l-2.294,1.6.755,2.487Z" transform="translate(-3323.719 -2265.647)" fill="#ffcb27"/>
      </g>
      <g id="Group_37167" data-name="Group 37167" transform="translate(205.284 17.885)">
        <path id="Path_42419" data-name="Path 42419" d="M3443.537,2386.115l-2.2,1.511.845-2.477-2.263-1.6h2.807l.89-2.625.817,2.625h2.795l-2.295,1.6.756,2.488Z" transform="translate(-3439.915 -2380.927)" fill="#ffcb27"/>
      </g>
      <g id="Group_37168" data-name="Group 37168" transform="translate(167.318 40.261)">
        <path id="Path_42420" data-name="Path 42420" d="M2894.392,2709.761l-2.2,1.514.842-2.483-2.257-1.6h2.8l.892-2.625.818,2.625h2.79l-2.294,1.6.76,2.488Z" transform="translate(-2890.773 -2704.573)" fill="#ffcb27"/>
      </g>
      <g id="Group_37169" data-name="Group 37169" transform="translate(175.161 48.521)">
        <path id="Path_42421" data-name="Path 42421" d="M3007.818,2829.232l-2.2,1.514.842-2.48-2.257-1.6h2.8l.89-2.62.815,2.62h2.8l-2.3,1.609.759,2.485Z" transform="translate(-3004.202 -2824.048)" fill="#ffcb27"/>
      </g>
      <g id="Group_37170" data-name="Group 37170" transform="translate(197.445 48.521)">
        <path id="Path_42422" data-name="Path 42422" d="M3330.151,2829.232l-2.207,1.514.845-2.48-2.257-1.6h2.8l.894-2.62.818,2.62h2.79l-2.294,1.609.759,2.485Z" transform="translate(-3326.532 -2824.048)" fill="#ffcb27"/>
      </g>
      <g id="Group_37171" data-name="Group 37171" transform="translate(205.383 40.261)">
        <path id="Path_42423" data-name="Path 42423" d="M3444.96,2709.761l-2.2,1.514.842-2.483-2.257-1.6h2.8l.891-2.625.815,2.625h2.793l-2.292,1.6.754,2.488Z" transform="translate(-3441.344 -2704.573)" fill="#ffcb27"/>
      </g>
      <g id="Group_37172" data-name="Group 37172" transform="translate(208.346 29.217)">
        <path id="Path_42424" data-name="Path 42424" d="M3487.817,2550.023l-2.2,1.512.844-2.477-2.26-1.6h2.807l.887-2.622.818,2.622h2.8l-2.3,1.606.759,2.486Z" transform="translate(-3484.198 -2544.835)" fill="#ffcb27"/>
      </g>
      <g id="Group_37173" data-name="Group 37173" transform="translate(141.258 74.657)">
        <path id="Path_42425" data-name="Path 42425" d="M2516.34,3207.22h2.953l-.908-2.413q-.416-1.1-.618-1.806a11.063,11.063,0,0,1-.47,1.665Zm-2.513,3.577,3.345-8.711h1.241l3.566,8.711h-1.313l-1.016-2.638h-3.643l-.955,2.638Z" transform="translate(-2513.827 -3202.086)" fill="#174895"/>
      </g>
      <g id="Group_37174" data-name="Group 37174" transform="translate(150.769 77.057)">
        <path id="Path_42426" data-name="Path 42426" d="M2651.394,3243.114v-.867l4.018-4.613c-.456.024-.857.036-1.207.036h-2.573v-.868h5.159v.707l-3.419,4.006-.658.732c.479-.037.928-.054,1.349-.054h2.918v.921Z" transform="translate(-2651.394 -3236.802)" fill="#174895"/>
      </g>
      <g id="Group_37175" data-name="Group 37175" transform="translate(162.471 74.657)">
        <path id="Path_42427" data-name="Path 42427" d="M2820.665,3210.8v-8.711h6.3v1.028h-5.147v2.668h4.82v1.023h-4.82v2.964h5.347v1.029Z" transform="translate(-2820.665 -3202.086)" fill="#174895"/>
      </g>
      <g id="Group_37176" data-name="Group 37176" transform="translate(170.878 77.057)">
        <path id="Path_42428" data-name="Path 42428" d="M2946.42,3243.114v-.927a2.311,2.311,0,0,1-2,1.07,2.533,2.533,0,0,1-1.042-.214,1.727,1.727,0,0,1-.72-.538,2.021,2.021,0,0,1-.33-.794,5.574,5.574,0,0,1-.064-1v-3.91h1.069v3.5a6.235,6.235,0,0,0,.065,1.128,1.126,1.126,0,0,0,.428.663,1.325,1.325,0,0,0,.809.24,1.743,1.743,0,0,0,.9-.247,1.359,1.359,0,0,0,.6-.67,3.35,3.35,0,0,0,.176-1.233V3236.8h1.068v6.312Z" transform="translate(-2942.261 -3236.802)" fill="#174895"/>
      </g>
      <g id="Group_37177" data-name="Group 37177" transform="translate(178.301 76.914)">
        <path id="Path_42429" data-name="Path 42429" d="M3049.632,3241.186v-6.311h.963v.957a2.626,2.626,0,0,1,.679-.886,1.2,1.2,0,0,1,.687-.214,2.09,2.09,0,0,1,1.1.345l-.369.993a1.533,1.533,0,0,0-.783-.232,1.022,1.022,0,0,0-.63.211,1.146,1.146,0,0,0-.4.586,4.156,4.156,0,0,0-.179,1.248v3.3Z" transform="translate(-3049.632 -3234.731)" fill="#174895"/>
      </g>
      <g id="Group_37178" data-name="Group 37178" transform="translate(182.667 74.609)">
        <path id="Path_42430" data-name="Path 42430" d="M3115.147,3203.053l.79-1.663h1.4l-1.306,1.663Zm-1.267,3.94a2.683,2.683,0,0,0,.53,1.817,1.759,1.759,0,0,0,2.656,0,2.743,2.743,0,0,0,.53-1.849,2.606,2.606,0,0,0-.533-1.775,1.763,1.763,0,0,0-2.653,0A2.664,2.664,0,0,0,3113.88,3206.993Zm-1.1,0a3.255,3.255,0,0,1,.975-2.6,2.943,2.943,0,0,1,1.986-.7,2.83,2.83,0,0,1,2.127.854,3.245,3.245,0,0,1,.824,2.356,4.181,4.181,0,0,1-.364,1.915,2.569,2.569,0,0,1-1.064,1.086,3.091,3.091,0,0,1-1.523.386,2.835,2.835,0,0,1-2.143-.85A3.391,3.391,0,0,1,3112.781,3206.993Z" transform="translate(-3112.781 -3201.39)" fill="#174895"/>
      </g>
      <g id="Group_37179" data-name="Group 37179" transform="translate(190.545 76.913)">
        <path id="Path_42431" data-name="Path 42431" d="M3227.694,3238.059a2.731,2.731,0,0,0,.493,1.8,1.51,1.51,0,0,0,1.194.584,1.548,1.548,0,0,0,1.221-.6,2.873,2.873,0,0,0,.509-1.871,2.787,2.787,0,0,0-.5-1.806,1.494,1.494,0,0,0-1.186-.6,1.538,1.538,0,0,0-1.208.639A2.851,2.851,0,0,0,3227.694,3238.059Zm-.97,5.54v-8.732h.975v.821a2.408,2.408,0,0,1,.78-.722,2.121,2.121,0,0,1,1.051-.243,2.5,2.5,0,0,1,1.427.417,2.547,2.547,0,0,1,.932,1.174,4.553,4.553,0,0,1-.032,3.407,2.639,2.639,0,0,1-2.4,1.6,2.031,2.031,0,0,1-.96-.224,2.2,2.2,0,0,1-.7-.571v3.073Z" transform="translate(-3226.723 -3234.723)" fill="#174895"/>
      </g>
      <g id="Group_37180" data-name="Group 37180" transform="translate(197.608 76.913)">
        <path id="Path_42432" data-name="Path 42432" d="M3333.276,3238.007a7.851,7.851,0,0,1-1.746.406,4.011,4.011,0,0,0-.934.214.937.937,0,0,0-.422.348.946.946,0,0,0,.176,1.22,1.394,1.394,0,0,0,.949.286,2.207,2.207,0,0,0,1.1-.271,1.67,1.67,0,0,0,.708-.74,2.624,2.624,0,0,0,.17-1.07Zm.091,2.389a3.976,3.976,0,0,1-1.144.714,3.337,3.337,0,0,1-1.179.206,2.293,2.293,0,0,1-1.6-.508,1.671,1.671,0,0,1-.557-1.3,1.712,1.712,0,0,1,.211-.845,1.732,1.732,0,0,1,.551-.616,2.63,2.63,0,0,1,.77-.351,8.1,8.1,0,0,1,.951-.161,9.752,9.752,0,0,0,1.907-.368c0-.146.007-.239.007-.279a1.18,1.18,0,0,0-.3-.922,1.79,1.79,0,0,0-1.217-.363,1.884,1.884,0,0,0-1.115.265,1.629,1.629,0,0,0-.534.937l-1.044-.145a2.56,2.56,0,0,1,.47-1.083,2.039,2.039,0,0,1,.943-.636,4.21,4.21,0,0,1,1.434-.225,3.8,3.8,0,0,1,1.313.191,1.74,1.74,0,0,1,.741.479,1.667,1.667,0,0,1,.333.728,6.122,6.122,0,0,1,.053.985v1.428a14.48,14.48,0,0,0,.071,1.887,2.366,2.366,0,0,0,.268.756h-1.116A2.226,2.226,0,0,1,3333.366,3240.4Z" transform="translate(-3328.886 -3234.719)" fill="#174895"/>
      </g>
      <g id="Group_37181" data-name="Group 37181" transform="translate(205.389 74.656)">
        <path id="Path_42433" data-name="Path 42433" d="M3441.427,3204.478h1.07v6.311h-1.07Zm0-2.4h1.07v1.23h-1.07Z" transform="translate(-3441.427 -3202.077)" fill="#174895"/>
      </g>
      <g id="Group_37182" data-name="Group 37182" transform="translate(213.131 74.657)">
        <path id="Path_42434" data-name="Path 42434" d="M3559.107,3202.082h1.154v5.034a5.941,5.941,0,0,1-.3,2.087,2.535,2.535,0,0,1-1.073,1.256,3.8,3.8,0,0,1-2.034.483,4.183,4.183,0,0,1-2-.422,2.4,2.4,0,0,1-1.112-1.222,5.817,5.817,0,0,1-.333-2.183v-5.034h1.152v5.028a4.858,4.858,0,0,0,.213,1.672,1.591,1.591,0,0,0,.724.83,2.515,2.515,0,0,0,1.257.291,2.414,2.414,0,0,0,1.814-.576,3.332,3.332,0,0,0,.54-2.218Z" transform="translate(-3553.407 -3202.082)" fill="#174895"/>
      </g>
      <g id="Group_37183" data-name="Group 37183" transform="translate(222.454 76.914)">
        <path id="Path_42435" data-name="Path 42435" d="M3688.261,3241.186v-6.311h.963v.9a2.272,2.272,0,0,1,2.01-1.042,2.626,2.626,0,0,1,1.049.207,1.653,1.653,0,0,1,.717.536,2.1,2.1,0,0,1,.331.791,6.023,6.023,0,0,1,.059,1.04v3.881h-1.07v-3.839a2.88,2.88,0,0,0-.125-.978,1.012,1.012,0,0,0-.443-.517,1.392,1.392,0,0,0-.745-.193,1.74,1.74,0,0,0-1.18.434,2.143,2.143,0,0,0-.5,1.645v3.447Z" transform="translate(-3688.261 -3234.731)" fill="#174895"/>
      </g>
      <g id="Group_37184" data-name="Group 37184" transform="translate(229.87 74.656)">
        <path id="Path_42436" data-name="Path 42436" d="M3795.528,3204.478h1.07v6.311h-1.07Zm0-2.4h1.07v1.23h-1.07Z" transform="translate(-3795.528 -3202.077)" fill="#174895"/>
      </g>
      <g id="Group_37185" data-name="Group 37185" transform="translate(232.898 74.609)">
        <path id="Path_42437" data-name="Path 42437" d="M3841.688,3203.053l.791-1.663h1.4l-1.308,1.663Zm-1.265,3.94a2.682,2.682,0,0,0,.53,1.817,1.757,1.757,0,0,0,2.655,0,2.744,2.744,0,0,0,.53-1.849,2.608,2.608,0,0,0-.532-1.775,1.762,1.762,0,0,0-2.653,0A2.663,2.663,0,0,0,3840.422,3206.993Zm-1.1,0a3.251,3.251,0,0,1,.975-2.6,2.939,2.939,0,0,1,1.986-.7,2.83,2.83,0,0,1,2.127.854,3.245,3.245,0,0,1,.824,2.356,4.178,4.178,0,0,1-.365,1.915,2.579,2.579,0,0,1-1.065,1.086,3.083,3.083,0,0,1-1.522.386,2.838,2.838,0,0,1-2.144-.85A3.394,3.394,0,0,1,3839.324,3206.993Z" transform="translate(-3839.324 -3201.39)" fill="#174895"/>
      </g>
      <g id="Group_37186" data-name="Group 37186" transform="translate(124.946 89.19)">
        <path id="Path_42438" data-name="Path 42438" d="M2280.813,3419.85l.154.946a3.944,3.944,0,0,1-.808.093,1.843,1.843,0,0,1-.9-.184,1.025,1.025,0,0,1-.452-.484,3.823,3.823,0,0,1-.131-1.262v-3.632h-.783v-.832h.783v-1.564l1.063-.642v2.206h1.077v.832h-1.077v3.691a1.859,1.859,0,0,0,.058.589.47.47,0,0,0,.184.208.717.717,0,0,0,.366.077A3.339,3.339,0,0,0,2280.813,3419.85Z" transform="translate(-2277.889 -3412.29)" fill="#174895"/>
      </g>
      <g id="Group_37187" data-name="Group 37187" transform="translate(129.53 88.947)">
        <path id="Path_42439" data-name="Path 42439" d="M2346.509,3410.442l.789-1.665h1.4l-1.308,1.665Zm2.081,3.928a7.757,7.757,0,0,1-1.748.4,4.051,4.051,0,0,0-.933.216.934.934,0,0,0-.247,1.568,1.394,1.394,0,0,0,.948.285,2.2,2.2,0,0,0,1.1-.271,1.669,1.669,0,0,0,.708-.738,2.623,2.623,0,0,0,.172-1.071Zm.089,2.388a3.98,3.98,0,0,1-1.144.714,3.317,3.317,0,0,1-1.181.21,2.307,2.307,0,0,1-1.6-.51,1.679,1.679,0,0,1-.558-1.3,1.747,1.747,0,0,1,.21-.845,1.725,1.725,0,0,1,.554-.615,2.561,2.561,0,0,1,.769-.351,7.516,7.516,0,0,1,.95-.16,9.8,9.8,0,0,0,1.909-.369c0-.146.006-.24.006-.28a1.187,1.187,0,0,0-.3-.921,1.8,1.8,0,0,0-1.219-.362,1.88,1.88,0,0,0-1.114.264,1.606,1.606,0,0,0-.534.937l-1.046-.144a2.618,2.618,0,0,1,.469-1.085,2.05,2.05,0,0,1,.945-.634,4.248,4.248,0,0,1,1.434-.223,3.809,3.809,0,0,1,1.314.19,1.76,1.76,0,0,1,.742.477,1.707,1.707,0,0,1,.332.729,5.9,5.9,0,0,1,.054.987v1.426a14.914,14.914,0,0,0,.068,1.887,2.34,2.34,0,0,0,.271.758h-1.118A2.267,2.267,0,0,1,2348.678,3416.758Z" transform="translate(-2344.197 -3408.777)" fill="#174895"/>
      </g>
      <g id="Group_37188" data-name="Group 37188" transform="translate(137.481 91.253)">
        <path id="Path_42440" data-name="Path 42440" d="M2459.2,3448.595v-6.311h.963v.955a2.624,2.624,0,0,1,.681-.886,1.192,1.192,0,0,1,.685-.212,2.09,2.09,0,0,1,1.1.344l-.367.994a1.527,1.527,0,0,0-.784-.233,1.01,1.01,0,0,0-.63.212,1.136,1.136,0,0,0-.4.586,4.143,4.143,0,0,0-.178,1.246v3.306Z" transform="translate(-2459.197 -3442.14)" fill="#174895"/>
      </g>
      <g id="Group_37189" data-name="Group 37189" transform="translate(142.098 91.253)">
        <path id="Path_42441" data-name="Path 42441" d="M2525.981,3446.71l1.059-.166a1.477,1.477,0,0,0,.5.975,1.732,1.732,0,0,0,1.137.339,1.675,1.675,0,0,0,1.1-.3.9.9,0,0,0,.355-.7.651.651,0,0,0-.315-.571,4.66,4.66,0,0,0-1.094-.362,10.242,10.242,0,0,1-1.632-.514,1.555,1.555,0,0,1-.924-1.448,1.634,1.634,0,0,1,.193-.782,1.734,1.734,0,0,1,.527-.6,2.108,2.108,0,0,1,.679-.312,3.2,3.2,0,0,1,.924-.128,3.7,3.7,0,0,1,1.3.212,1.8,1.8,0,0,1,.83.58,2.274,2.274,0,0,1,.368.979l-1.045.142a1.15,1.15,0,0,0-.413-.762,1.527,1.527,0,0,0-.966-.271,1.742,1.742,0,0,0-1.051.243.707.707,0,0,0-.315.571.592.592,0,0,0,.129.375.957.957,0,0,0,.41.285c.107.039.422.129.946.274a13.093,13.093,0,0,1,1.583.495,1.628,1.628,0,0,1,.705.562,1.584,1.584,0,0,1,.255.916,1.792,1.792,0,0,1-.312,1.007,2.009,2.009,0,0,1-.9.732,3.291,3.291,0,0,1-1.331.26,2.968,2.968,0,0,1-1.876-.513A2.383,2.383,0,0,1,2525.981,3446.71Z" transform="translate(-2525.981 -3442.14)" fill="#174895"/>
      </g>
      <g id="Group_37190" data-name="Group 37190" transform="translate(148.763 88.846)">
        <path id="Path_42442" data-name="Path 42442" d="M2623.33,3416.177V3410.7h-.945v-.83h.945v-.672a2.913,2.913,0,0,1,.113-.946,1.371,1.371,0,0,1,.546-.674,1.957,1.957,0,0,1,1.089-.259,5.277,5.277,0,0,1,1,.107l-.16.934a3.5,3.5,0,0,0-.63-.059.928.928,0,0,0-.689.206,1.127,1.127,0,0,0-.2.779v.583h1.229v.83h-1.229v5.481Z" transform="translate(-2622.385 -3407.315)" fill="#174895"/>
      </g>
      <g id="Group_37191" data-name="Group 37191" transform="translate(153.993 88.995)">
        <path id="Path_42443" data-name="Path 42443" d="M2698.031,3411.874h1.071v6.311h-1.071Zm0-2.4h1.071v1.229h-1.071Z" transform="translate(-2698.031 -3409.473)" fill="#174895"/>
      </g>
      <g id="Group_37192" data-name="Group 37192" transform="translate(157.516 91.253)">
        <path id="Path_42444" data-name="Path 42444" d="M2748.99,3448.595v-6.311h.964v.9a2.268,2.268,0,0,1,2.01-1.04,2.622,2.622,0,0,1,1.047.205,1.653,1.653,0,0,1,.717.538,2.061,2.061,0,0,1,.332.79,6.1,6.1,0,0,1,.059,1.041v3.881h-1.068v-3.84a2.837,2.837,0,0,0-.125-.977,1.02,1.02,0,0,0-.443-.517,1.394,1.394,0,0,0-.746-.194,1.736,1.736,0,0,0-1.179.434,2.136,2.136,0,0,0-.5,1.646v3.447Z" transform="translate(-2748.99 -3442.14)" fill="#174895"/>
      </g>
      <g id="Group_37193" data-name="Group 37193" transform="translate(164.751 91.252)">
        <path id="Path_42445" data-name="Path 42445" d="M2858.023,3445.415a7.917,7.917,0,0,1-1.748.4,4.042,4.042,0,0,0-.931.214.939.939,0,0,0-.423.348.947.947,0,0,0,.174,1.22,1.4,1.4,0,0,0,.949.286,2.2,2.2,0,0,0,1.1-.271,1.673,1.673,0,0,0,.708-.739,2.6,2.6,0,0,0,.172-1.071Zm.09,2.388a4,4,0,0,1-1.145.714,3.338,3.338,0,0,1-1.18.208,2.292,2.292,0,0,1-1.6-.509,1.674,1.674,0,0,1-.559-1.3,1.772,1.772,0,0,1,.763-1.461,2.6,2.6,0,0,1,.772-.349,7.615,7.615,0,0,1,.948-.162,9.762,9.762,0,0,0,1.909-.369c0-.145.006-.24.006-.279a1.182,1.182,0,0,0-.3-.922,1.79,1.79,0,0,0-1.219-.361,1.883,1.883,0,0,0-1.114.265,1.6,1.6,0,0,0-.532.935l-1.046-.145a2.591,2.591,0,0,1,.469-1.083,2.035,2.035,0,0,1,.945-.634,4.2,4.2,0,0,1,1.433-.224,3.807,3.807,0,0,1,1.314.19,1.75,1.75,0,0,1,.743.479,1.711,1.711,0,0,1,.333.728,6.088,6.088,0,0,1,.054.987v1.427a14.988,14.988,0,0,0,.068,1.888,2.408,2.408,0,0,0,.27.758h-1.118A2.305,2.305,0,0,1,2858.113,3447.8Z" transform="translate(-2853.632 -3442.128)" fill="#174895"/>
      </g>
      <g id="Group_37194" data-name="Group 37194" transform="translate(172.709 91.253)">
        <path id="Path_42446" data-name="Path 42446" d="M2968.74,3448.595v-6.311h.963v.9a2.268,2.268,0,0,1,2.01-1.04,2.614,2.614,0,0,1,1.047.205,1.653,1.653,0,0,1,.717.538,2.085,2.085,0,0,1,.333.79,6.237,6.237,0,0,1,.059,1.041v3.881H2972.8v-3.84a2.823,2.823,0,0,0-.125-.977,1.015,1.015,0,0,0-.443-.517,1.392,1.392,0,0,0-.746-.194,1.73,1.73,0,0,0-1.178.434,2.131,2.131,0,0,0-.5,1.646v3.447Z" transform="translate(-2968.74 -3442.14)" fill="#174895"/>
      </g>
      <g id="Group_37195" data-name="Group 37195" transform="translate(179.867 91.253)">
        <path id="Path_42447" data-name="Path 42447" d="M3072.273,3446.71l1.057-.166a1.487,1.487,0,0,0,.5.975,1.733,1.733,0,0,0,1.137.339,1.677,1.677,0,0,0,1.1-.3.893.893,0,0,0,.355-.7.65.65,0,0,0-.315-.571,4.652,4.652,0,0,0-1.094-.362,10.294,10.294,0,0,1-1.632-.514,1.56,1.56,0,0,1-.924-1.448,1.636,1.636,0,0,1,.193-.782,1.721,1.721,0,0,1,.527-.6,2.122,2.122,0,0,1,.68-.312,3.207,3.207,0,0,1,.925-.128,3.689,3.689,0,0,1,1.3.212,1.79,1.79,0,0,1,.83.58,2.281,2.281,0,0,1,.367.979l-1.046.142a1.147,1.147,0,0,0-.413-.762,1.523,1.523,0,0,0-.966-.271,1.746,1.746,0,0,0-1.052.243.707.707,0,0,0-.315.571.6.6,0,0,0,.13.375.947.947,0,0,0,.411.285c.105.039.42.129.945.274a13,13,0,0,1,1.583.495,1.629,1.629,0,0,1,.705.562,1.584,1.584,0,0,1,.254.916,1.782,1.782,0,0,1-.313,1.007,2,2,0,0,1-.9.732,3.3,3.3,0,0,1-1.332.26,2.97,2.97,0,0,1-1.876-.513A2.373,2.373,0,0,1,3072.273,3446.71Z" transform="translate(-3072.273 -3442.14)" fill="#174895"/>
      </g>
      <g id="Group_37196" data-name="Group 37196" transform="translate(186.723 91.396)">
        <path id="Path_42448" data-name="Path 42448" d="M3171.444,3450.522v-.868l4.016-4.613c-.455.026-.856.036-1.207.036h-2.573v-.866h5.159v.705l-3.417,4.006-.66.732q.719-.054,1.351-.054h2.918v.922Z" transform="translate(-3171.444 -3444.211)" fill="#174895"/>
      </g>
      <g id="Group_37197" data-name="Group 37197" transform="translate(194.321 88.945)">
        <path id="Path_42449" data-name="Path 42449" d="M3281.393,3411.2h1.07v6.311h-1.07Zm-.053-.783.791-1.667h1.4l-1.306,1.667Z" transform="translate(-3281.34 -3408.752)" fill="#174895"/>
      </g>
      <g id="Group_37198" data-name="Group 37198" transform="translate(198.071 91.253)">
        <path id="Path_42450" data-name="Path 42450" d="M3335.59,3448.595v-6.311h.964v.955a2.618,2.618,0,0,1,.681-.886,1.189,1.189,0,0,1,.685-.212,2.09,2.09,0,0,1,1.1.344l-.369.994a1.525,1.525,0,0,0-.782-.233,1.016,1.016,0,0,0-.631.212,1.136,1.136,0,0,0-.4.586,4.151,4.151,0,0,0-.177,1.246v3.306Z" transform="translate(-3335.59 -3442.14)" fill="#174895"/>
      </g>
      <g id="Group_37199" data-name="Group 37199" transform="translate(202.61 91.254)">
        <path id="Path_42451" data-name="Path 42451" d="M3402.33,3445.442a2.689,2.689,0,0,0,.529,1.815,1.762,1.762,0,0,0,2.656,0,2.744,2.744,0,0,0,.531-1.849,2.6,2.6,0,0,0-.533-1.773,1.762,1.762,0,0,0-2.653,0A2.674,2.674,0,0,0,3402.33,3445.442Zm-1.1,0a3.26,3.26,0,0,1,.973-2.6,2.945,2.945,0,0,1,1.984-.7,2.824,2.824,0,0,1,2.127.853,3.231,3.231,0,0,1,.827,2.355,4.2,4.2,0,0,1-.365,1.918,2.6,2.6,0,0,1-1.064,1.085,3.106,3.106,0,0,1-1.526.385,2.836,2.836,0,0,1-2.141-.85A3.391,3.391,0,0,1,3401.231,3445.442Z" transform="translate(-3401.231 -3442.145)" fill="#174895"/>
      </g>
      <g id="Group_37200" data-name="Group 37200" transform="translate(209.961 91.396)">
        <path id="Path_42452" data-name="Path 42452" d="M3507.565,3450.522v-.868l4.016-4.613c-.455.026-.857.036-1.207.036H3507.8v-.866h5.158v.705l-3.417,4.006-.66.732q.719-.054,1.35-.054h2.918v.922Z" transform="translate(-3507.565 -3444.211)" fill="#174895"/>
      </g>
      <g id="Group_37201" data-name="Group 37201" transform="translate(217.203 88.947)">
        <path id="Path_42453" data-name="Path 42453" d="M3614.628,3410.442l.789-1.665h1.4l-1.306,1.665Zm2.081,3.928a7.753,7.753,0,0,1-1.749.4,4.055,4.055,0,0,0-.931.216.907.907,0,0,0-.571.854.908.908,0,0,0,.324.714,1.391,1.391,0,0,0,.946.285,2.2,2.2,0,0,0,1.1-.271,1.664,1.664,0,0,0,.708-.738,2.6,2.6,0,0,0,.173-1.071Zm.087,2.388a3.955,3.955,0,0,1-1.142.714,3.317,3.317,0,0,1-1.181.21,2.307,2.307,0,0,1-1.6-.51,1.68,1.68,0,0,1-.559-1.3,1.746,1.746,0,0,1,.211-.845,1.724,1.724,0,0,1,.554-.615,2.561,2.561,0,0,1,.769-.351,7.534,7.534,0,0,1,.949-.16,9.818,9.818,0,0,0,1.91-.369c0-.146,0-.24,0-.28a1.181,1.181,0,0,0-.3-.921,1.793,1.793,0,0,0-1.218-.362,1.885,1.885,0,0,0-1.115.264,1.61,1.61,0,0,0-.532.937l-1.046-.144a2.6,2.6,0,0,1,.469-1.085,2.052,2.052,0,0,1,.945-.634,4.24,4.24,0,0,1,1.433-.223,3.8,3.8,0,0,1,1.313.19,1.754,1.754,0,0,1,.743.477,1.7,1.7,0,0,1,.333.729,5.965,5.965,0,0,1,.054.987v1.426a14.964,14.964,0,0,0,.068,1.887,2.348,2.348,0,0,0,.27.758h-1.116A2.289,2.289,0,0,1,3616.8,3416.758Z" transform="translate(-3612.315 -3408.777)" fill="#174895"/>
      </g>
      <g id="Group_37202" data-name="Group 37202" transform="translate(224.721 91.253)">
        <path id="Path_42454" data-name="Path 42454" d="M3721.057,3446.71l1.059-.166a1.487,1.487,0,0,0,.495.975,1.735,1.735,0,0,0,1.139.339,1.671,1.671,0,0,0,1.094-.3.9.9,0,0,0,.357-.7.65.65,0,0,0-.315-.571,4.66,4.66,0,0,0-1.095-.362,10.285,10.285,0,0,1-1.63-.514,1.611,1.611,0,0,1-.69-.6,1.591,1.591,0,0,1-.235-.847,1.619,1.619,0,0,1,.195-.782,1.7,1.7,0,0,1,.527-.6,2.1,2.1,0,0,1,.68-.312,3.2,3.2,0,0,1,.924-.128,3.683,3.683,0,0,1,1.3.212,1.8,1.8,0,0,1,.83.58,2.281,2.281,0,0,1,.367.979l-1.046.142a1.153,1.153,0,0,0-.411-.762,1.527,1.527,0,0,0-.967-.271,1.75,1.75,0,0,0-1.052.243.707.707,0,0,0-.315.571.594.594,0,0,0,.131.375.945.945,0,0,0,.41.285c.107.039.422.129.945.274a13.043,13.043,0,0,1,1.585.495,1.626,1.626,0,0,1,.7.562,1.575,1.575,0,0,1,.254.916,1.792,1.792,0,0,1-.312,1.007,2.006,2.006,0,0,1-.9.732,3.29,3.29,0,0,1-1.332.26,2.965,2.965,0,0,1-1.874-.513A2.382,2.382,0,0,1,3721.057,3446.71Z" transform="translate(-3721.057 -3442.14)" fill="#174895"/>
      </g>
      <g id="Group_37203" data-name="Group 37203" transform="translate(231.762 88.947)">
        <path id="Path_42455" data-name="Path 42455" d="M3825.2,3410.442l.791-1.665h1.4l-1.308,1.665Zm2.08,3.928a7.754,7.754,0,0,1-1.748.4,4.075,4.075,0,0,0-.932.216.9.9,0,0,0-.57.854.914.914,0,0,0,.322.714,1.4,1.4,0,0,0,.948.285,2.2,2.2,0,0,0,1.1-.271,1.663,1.663,0,0,0,.708-.738,2.6,2.6,0,0,0,.171-1.071Zm.088,2.388a3.936,3.936,0,0,1-1.142.714,3.311,3.311,0,0,1-1.181.21,2.3,2.3,0,0,1-1.6-.51,1.675,1.675,0,0,1-.559-1.3,1.748,1.748,0,0,1,.764-1.46,2.56,2.56,0,0,1,.769-.351,7.609,7.609,0,0,1,.951-.16,9.791,9.791,0,0,0,1.908-.369c0-.146.006-.24.006-.28a1.18,1.18,0,0,0-.3-.921,1.8,1.8,0,0,0-1.219-.362,1.893,1.893,0,0,0-1.115.264,1.623,1.623,0,0,0-.532.937l-1.045-.144a2.6,2.6,0,0,1,.469-1.085,2.064,2.064,0,0,1,.946-.634,4.237,4.237,0,0,1,1.433-.223,3.8,3.8,0,0,1,1.314.19,1.757,1.757,0,0,1,.741.477,1.691,1.691,0,0,1,.333.729,5.921,5.921,0,0,1,.054.987v1.426a14.82,14.82,0,0,0,.069,1.887,2.385,2.385,0,0,0,.268.758h-1.116A2.328,2.328,0,0,1,3827.37,3416.758Z" transform="translate(-3822.89 -3408.777)" fill="#174895"/>
      </g>
      <g id="Group_37204" data-name="Group 37204" transform="translate(238.882 91.396)">
        <path id="Path_42456" data-name="Path 42456" d="M3928.284,3450.522l-2.4-6.311h1.13l1.356,3.779c.145.408.28.832.4,1.272q.142-.5.4-1.2l1.4-3.851h1.1l-2.388,6.311Z" transform="translate(-3925.882 -3444.211)" fill="#174895"/>
      </g>
      <g id="Group_37205" data-name="Group 37205" transform="translate(245.941 91.252)">
        <path id="Path_42457" data-name="Path 42457" d="M4032.37,3445.415a7.915,7.915,0,0,1-1.748.4,4.032,4.032,0,0,0-.931.214.943.943,0,0,0-.424.348.948.948,0,0,0,.175,1.22,1.4,1.4,0,0,0,.949.286,2.2,2.2,0,0,0,1.1-.271,1.67,1.67,0,0,0,.708-.739,2.605,2.605,0,0,0,.172-1.071Zm.091,2.388a4,4,0,0,1-1.145.714,3.334,3.334,0,0,1-1.178.208,2.293,2.293,0,0,1-1.6-.509,1.675,1.675,0,0,1-.559-1.3,1.773,1.773,0,0,1,.764-1.461,2.6,2.6,0,0,1,.771-.349,7.685,7.685,0,0,1,.948-.162,9.759,9.759,0,0,0,1.909-.369c0-.145.006-.24.006-.279a1.183,1.183,0,0,0-.3-.922,1.792,1.792,0,0,0-1.219-.361,1.883,1.883,0,0,0-1.113.265,1.6,1.6,0,0,0-.532.935l-1.046-.145a2.61,2.61,0,0,1,.469-1.083,2.032,2.032,0,0,1,.945-.634,4.2,4.2,0,0,1,1.433-.224,3.809,3.809,0,0,1,1.314.19,1.751,1.751,0,0,1,.743.479,1.7,1.7,0,0,1,.333.728,6.155,6.155,0,0,1,.054.987v1.427a14.969,14.969,0,0,0,.068,1.888,2.407,2.407,0,0,0,.27.758h-1.118A2.305,2.305,0,0,1,4032.46,3447.8Z" transform="translate(-4027.978 -3442.128)" fill="#174895"/>
      </g>
      <g id="Group_37206" data-name="Group 37206" transform="translate(253.88 88.995)">
        <rect id="Rectangle_15694" data-name="Rectangle 15694" width="1.071" height="8.713" fill="#174895"/>
      </g>
    </g>
  </g>
</svg>
