<?xml version="1.0" encoding="UTF-8" standalone="no"?>
<svg
   id="sztp-mok-eu"
   width="159.64"
   height="78.900002"
   viewBox="0 0 159.64 78.900002"
   version="1.1"
   sodipodi:docname="sztp.svg"
   inkscape:version="1.3.2 (091e20e, 2023-11-25)"
   xmlns:inkscape="http://www.inkscape.org/namespaces/inkscape"
   xmlns:sodipodi="http://sodipodi.sourceforge.net/DTD/sodipodi-0.dtd"
   xmlns="http://www.w3.org/2000/svg"
   xmlns:svg="http://www.w3.org/2000/svg">
  <sodipodi:namedview
     id="namedview1"
     pagecolor="#ffffff"
     bordercolor="#000000"
     borderopacity="0.25"
     inkscape:showpageshadow="2"
     inkscape:pageopacity="0.0"
     inkscape:pagecheckerboard="0"
     inkscape:deskcolor="#d1d1d1"
     inkscape:zoom="2.8975331"
     inkscape:cx="69.887035"
     inkscape:cy="41.759661"
     inkscape:window-width="1440"
     inkscape:window-height="449"
     inkscape:window-x="334"
     inkscape:window-y="52"
     inkscape:window-maximized="0"
     inkscape:current-layer="sztp-mok-eu" />
  <defs
     id="defs1">
    <clipPath
       id="clip-path">
      <rect
         id="Rectangle_13430"
         data-name="Rectangle 13430"
         width="138.15199"
         height="55.459"
         fill="none"
         x="0"
         y="0" />
    </clipPath>
  </defs>
  <g
     id="sztp-logo"
     transform="translate(0,10.925)">
    <path
       id="Path_16198"
       data-name="Path 16198"
       d="M 0.56,65.227 0,65.787 v 2.047 l 0.56,0.559 H 12.666 V 80.5 l 0.56,0.56 h 2.047 l 0.56,-0.56 V 65.787 l -0.56,-0.56 z"
       transform="translate(0,-46.078)"
       fill="#003e92" />
    <path
       id="Path_16199"
       data-name="Path 16199"
       d="M 31.581,48.92 H 16.868 l -0.559,0.56 v 2.047 l 0.559,0.559 h 12.105 v 12.106 l 0.56,0.561 h 2.047 l 0.56,-0.561 V 49.48 Z"
       transform="translate(-9.975,-34.558)"
       fill="#1da03b" />
    <path
       id="Path_16200"
       data-name="Path 16200"
       d="m 65.787,40.767 -0.56,0.56 v 11.546 l 0.56,0.56 h 2.047 l 0.56,-0.56 V 41.327 l -0.56,-0.56 z"
       transform="translate(-39.895,-28.579)"
       fill="#e50022" />
    <path
       id="Path_16201"
       data-name="Path 16201"
       d="m 45.28,33.173 -0.56,-0.56 H 33.174 l -0.56,0.56 v 2.047 l 0.56,0.56 H 44.72 l 0.56,-0.56 z"
       transform="translate(-19.948,-23.437)"
       fill="#e50022" />
    <path
       id="Path_16202"
       data-name="Path 16202"
       d="m 65.786,0 -0.56,0.56 v 11.546 l 0.56,0.56 h 2.047 l 0.56,-0.56 V 0.56 L 67.833,0 Z"
       transform="translate(-39.895,-3.49)"
       fill="#003e92" />
    <path
       id="Path_16203"
       data-name="Path 16203"
       d="m 86.046,33.173 -0.56,-0.56 H 73.94 l -0.56,0.56 v 2.047 l 0.56,0.56 h 11.546 l 0.56,-0.56 z"
       transform="translate(-44.881,-23.437)"
       fill="#003e92" />
    <g
       id="Group_22998"
       data-name="Group 22998">
      <g
         id="Group_22997"
         data-name="Group 22997"
         clip-path="url(#clip-path)">
        <path
           id="Path_16204"
           data-name="Path 16204"
           d="m 107.11,63.533 c 0.057,1.209 0.806,1.6 1.943,1.6 0.806,0 1.64,-0.287 1.64,-1.05 0,-0.907 -1.468,-1.08 -2.95,-1.5 -1.482,-0.42 -3.008,-1.079 -3.008,-2.964 0,-2.245 2.26,-3.123 4.188,-3.123 2.043,0 4.1,0.994 4.114,3.31 h -2.676 c 0.043,-0.936 -0.835,-1.238 -1.655,-1.238 -0.576,0 -1.294,0.2 -1.294,0.878 0,0.791 1.482,0.935 2.978,1.353 1.482,0.416 2.978,1.107 2.978,2.963 0,2.605 -2.216,3.439 -4.475,3.439 -2.36,0 -4.446,-1.036 -4.46,-3.669 z"
           transform="translate(-71.479,-38.668)"
           fill="#003e92" />
        <path
           id="Path_16205"
           data-name="Path 16205"
           d="m 134.075,71.643 3.727,-3.7 h -3.424 v -1.87 h 6.532 v 1.857 l -3.727,3.741 h 4 v 1.871 h -7.108 z"
           transform="translate(-91.766,-45.224)"
           fill="#003e92" />
        <path
           id="Path_16206"
           data-name="Path 16206"
           d="m 160.875,64.008 a 1.594,1.594 0 0 0 1.669,1.7 1.456,1.456 0 0 0 1.4,-0.821 h 2.288 a 3.534,3.534 0 0 1 -3.713,2.475 3.755,3.755 0 0 1 -4.086,-3.971 3.919,3.919 0 0 1 4.029,-3.928 c 2.676,0 4.015,2.015 3.9,4.547 z m 3.036,-1.368 a 1.512,1.512 0 0 0 -1.453,-1.524 1.612,1.612 0 0 0 -1.583,1.524 z m 0.964,-5.913 -2.259,2.144 h -1.727 l 1.4,-2.144 z"
           transform="translate(-108.435,-38.826)"
           fill="#003e92" />
        <path
           id="Path_16207"
           data-name="Path 16207"
           d="m 190.74,68.339 a 1.151,1.151 0 0 0 -1.194,-1.078 c -1.367,0 -1.583,1.165 -1.583,2.2 0,0.964 0.417,1.957 1.453,1.957 a 1.311,1.311 0 0 0 1.4,-1.281 h 2.374 a 3.5,3.5 0 0 1 -3.755,3.151 3.717,3.717 0 0 1 -3.914,-3.827 3.782,3.782 0 0 1 3.914,-4.072 c 1.856,0 3.511,0.979 3.684,2.95 z"
           transform="translate(-126.976,-44.755)"
           fill="#003e92" />
        <path
           id="Path_16208"
           data-name="Path 16208"
           d="m 213.063,57.182 h 2.446 v 3.827 h 0.029 a 2.6,2.6 0 0 1 2.274,-1.238 c 2.489,0 2.691,1.814 2.691,2.892 v 4.792 h -2.446 v -3.611 c 0,-1.022 0.115,-2.057 -1.223,-2.057 -0.921,0 -1.324,0.777 -1.324,1.6 v 4.071 h -2.446 z"
           transform="translate(-145.829,-39.138)"
           fill="#003e92" />
        <path
           id="Path_16209"
           data-name="Path 16209"
           d="m 242.415,69.936 a 1.594,1.594 0 0 0 1.669,1.7 1.459,1.459 0 0 0 1.4,-0.82 h 2.287 a 3.533,3.533 0 0 1 -3.713,2.475 3.755,3.755 0 0 1 -4.086,-3.971 3.919,3.919 0 0 1 4.028,-3.931 c 2.677,0 4.015,2.015 3.9,4.547 z m 3.037,-1.368 A 1.513,1.513 0 0 0 244,67.044 a 1.613,1.613 0 0 0 -1.583,1.524 z"
           transform="translate(-164.245,-44.755)"
           fill="#003e92" />
        <path
           id="Path_16210"
           data-name="Path 16210"
           d="m 268.29,65.607 h 2.375 v 1.022 h 0.028 a 2.82,2.82 0 0 1 2.346,-1.238 c 2.489,0 2.691,1.813 2.691,2.892 v 4.792 h -2.446 v -3.612 c 0,-1.022 0.115,-2.058 -1.223,-2.058 -0.921,0 -1.324,0.777 -1.324,1.6 v 4.072 h -2.447 z"
           transform="translate(-183.629,-44.756)"
           fill="#003e92" />
        <path
           id="Path_16211"
           data-name="Path 16211"
           d="m 298.365,74.2 c -0.59,1.64 -1.468,1.842 -3.122,1.842 h -1.152 v -1.981 h 0.849 a 0.868,0.868 0 0 0 0.978,-0.835 10.287,10.287 0 0 0 -0.618,-1.957 l -1.929,-5.193 h 2.591 l 1.41,4.862 h 0.028 l 1.41,-4.862 h 2.5 z"
           transform="translate(-200.796,-45.225)"
           fill="#003e92" />
        <path
           id="Path_16212"
           data-name="Path 16212"
           d="m 322.815,59.053 h -2.447 v -1.87 h 2.447 z m -2.446,0.936 h 2.447 v 7.468 h -2.447 z"
           transform="translate(-219.273,-39.138)"
           fill="#003e92" />
        <path
           id="Path_16213"
           data-name="Path 16213"
           d="m 352.8,59.484 h -3.065 v 7.971 h -2.676 v -7.971 h -3.064 v -2.3 h 8.805 z"
           transform="translate(-235.444,-39.138)"
           fill="#003e92" />
        <path
           id="Path_16214"
           data-name="Path 16214"
           d="m 370.885,69.936 a 1.593,1.593 0 0 0 1.669,1.7 1.458,1.458 0 0 0 1.4,-0.82 h 2.288 a 3.534,3.534 0 0 1 -3.713,2.475 3.755,3.755 0 0 1 -4.086,-3.971 3.919,3.919 0 0 1 4.028,-3.928 c 2.677,0 4.014,2.015 3.9,4.547 z m 3.036,-1.368 a 1.512,1.512 0 0 0 -1.453,-1.524 1.612,1.612 0 0 0 -1.582,1.524 z"
           transform="translate(-252.175,-44.755)"
           fill="#003e92" />
        <path
           id="Path_16215"
           data-name="Path 16215"
           d="m 396.987,65.762 h 2.375 v 1.309 h 0.029 a 2.251,2.251 0 0 1 2.245,-1.454 2.637,2.637 0 0 1 0.575,0.057 v 2.231 a 3.428,3.428 0 0 0 -0.935,-0.144 1.718,1.718 0 0 0 -1.842,1.769 v 3.7 h -2.446 z"
           transform="translate(-271.714,-44.911)"
           fill="#003e92" />
        <path
           id="Path_16216"
           data-name="Path 16216"
           d="m 418.031,73.542 h -2.82 l -2.489,-7.468 h 2.547 l 1.367,4.935 h 0.029 l 1.382,-4.935 h 2.488 z"
           transform="translate(-282.484,-45.224)"
           fill="#003e92" />
        <path
           id="Path_16217"
           data-name="Path 16217"
           d="m 105.995,105.993 h 4.878 c 1.913,0 3.713,0.877 3.713,3.309 0,2.547 -1.454,3.54 -3.713,3.54 h -2.2 v 3.424 h -2.676 z m 2.676,4.777 h 1.8 c 0.835,0 1.439,-0.345 1.439,-1.281 a 1.266,1.266 0 0 0 -1.439,-1.353 h -1.8 z"
           transform="translate(-72.547,-72.546)"
           fill="#003e92" />
        <rect
           id="Rectangle_13429"
           data-name="Rectangle 13429"
           width="2.4460001"
           height="10.273"
           transform="translate(42.989,33.447)"
           fill="#003e92"
           x="0"
           y="0" />
        <path
           id="Path_16218"
           data-name="Path 16218"
           d="m 155.892,122.354 h -2.375 v -1.021 h -0.029 a 2.752,2.752 0 0 1 -2.274,1.237 c -2.144,0 -2.762,-1.237 -2.762,-3.193 v -4.489 h 2.448 v 4.33 c 0,0.993 0.431,1.338 1.208,1.338 0.533,0 1.339,-0.345 1.339,-1.669 v -4 h 2.446 z"
           transform="translate(-101.607,-78.633)"
           fill="#003e92" />
        <path
           id="Path_16219"
           data-name="Path 16219"
           d="m 177.235,119.425 a 1,1 0 0 0 0.4,0.835 1.537,1.537 0 0 0 0.907,0.259 c 0.475,0 1.151,-0.2 1.151,-0.792 0,-0.592 -0.763,-0.691 -1.194,-0.792 -1.54,-0.388 -3.469,-0.431 -3.469,-2.446 0,-1.8 1.943,-2.287 3.41,-2.287 1.64,0 3.353,0.474 3.439,2.416 h -2.259 a 0.7,0.7 0 0 0 -0.317,-0.646 1.439,1.439 0 0 0 -0.776,-0.187 c -0.4,0 -1.05,0.043 -1.05,0.56 0,0.706 1.64,0.835 2.762,1.08 a 2.117,2.117 0 0 1 1.9,2.014 c 0,2 -1.9,2.662 -3.583,2.662 -1.769,0 -3.582,-0.59 -3.654,-2.676 z"
           transform="translate(-119.712,-78.165)"
           fill="#003e92" />
        <path
           id="Path_16220"
           data-name="Path 16220"
           d="m 199.076,120.454 3.726,-3.7 h -3.425 v -1.869 h 6.533 v 1.855 l -3.726,3.741 h 4 v 1.87 h -7.108 z"
           transform="translate(-136.256,-78.633)"
           fill="#003e92" />
        <path
           id="Path_16221"
           data-name="Path 16221"
           d="m 245.923,117.464 h 3.977 v 0.836 h -3.01 v 1.447 h 2.786 v 0.789 h -2.786 v 1.618 h 3.065 v 0.835 h -4.033 z m 1.966,-1.657 h 1.045 l -1.1,1.107 h -0.642 z"
           transform="translate(-168.32,-79.263)"
           fill="#003e92" />
        <path
           id="Path_16222"
           data-name="Path 16222"
           d="m 261.343,125.653 h 0.836 v 0.541 h 0.015 a 1.338,1.338 0 0 1 1.239,-0.65 1.881,1.881 0 0 1 1.873,2.128 c 0,1.076 -0.542,2.09 -1.726,2.09 a 1.555,1.555 0 0 1 -1.339,-0.628 h -0.015 v 2 h -0.882 z m 1.974,0.588 c -0.743,0 -1.122,0.565 -1.122,1.417 0,0.8 0.41,1.409 1.122,1.409 0.8,0 1.107,-0.713 1.107,-1.409 0,-0.728 -0.38,-1.417 -1.107,-1.417"
           transform="translate(-178.874,-85.928)"
           fill="#003e92" />
        <path
           id="Path_16223"
           data-name="Path 16223"
           d="m 276.839,120.638 h 1.046 l -1.1,1.107 h -0.642 z m -0.557,1.657 h 0.882 v 4 h -0.882 z"
           transform="translate(-189.004,-82.57)"
           fill="#003e92" />
        <path
           id="Path_16224"
           data-name="Path 16224"
           d="m 281.408,123.287 h 0.666 v -1.2 h 0.882 v 1.2 h 0.8 v 0.658 h -0.8 v 2.136 c 0,0.364 0.031,0.549 0.426,0.549 a 1.487,1.487 0 0 0 0.371,-0.031 v 0.682 c -0.193,0.015 -0.379,0.046 -0.571,0.046 -0.922,0 -1.092,-0.356 -1.107,-1.021 v -2.361 h -0.666 z"
           transform="translate(-192.607,-83.562)"
           fill="#003e92" />
        <path
           id="Path_16225"
           data-name="Path 16225"
           d="m 291.4,128.371 c 0.047,0.511 0.433,0.7 0.906,0.7 0.333,0 0.913,-0.07 0.89,-0.527 -0.023,-0.457 -0.666,-0.519 -1.309,-0.666 -0.643,-0.147 -1.284,-0.372 -1.284,-1.184 0,-0.875 0.944,-1.145 1.671,-1.145 0.821,0 1.564,0.34 1.672,1.23 h -0.921 c -0.078,-0.418 -0.426,-0.534 -0.813,-0.534 -0.255,0 -0.727,0.062 -0.727,0.41 0,0.434 0.65,0.5 1.3,0.642 0.65,0.142 1.292,0.38 1.292,1.169 0,0.952 -0.959,1.3 -1.788,1.3 -1.006,0 -1.757,-0.448 -1.773,-1.393 z"
           transform="translate(-198.842,-85.929)"
           fill="#003e92" />
        <path
           id="Path_16226"
           data-name="Path 16226"
           d="m 307.752,126.7 h -0.867 v -0.558 h -0.015 a 1.343,1.343 0 0 1 -1.138,0.666 c -1.045,0 -1.494,-0.527 -1.494,-1.571 V 122.7 h 0.882 v 2.453 c 0,0.7 0.287,0.96 0.766,0.96 0.736,0 0.983,-0.472 0.983,-1.092 V 122.7 h 0.882 z m -2.856,-5.473 h 0.883 v 0.836 H 304.9 Z m 2.214,0.836 h -0.883 v -0.836 h 0.883 z"
           transform="translate(-208.233,-82.972)"
           fill="#003e92" />
        <path
           id="Path_16227"
           data-name="Path 16227"
           d="m 318.644,121.056 h 0.882 v 3.144 l 1.6,-1.618 h 1.074 l -1.533,1.471 1.68,2.531 h -1.076 l -1.223,-1.944 -0.527,0.511 v 1.433 h -0.882 z"
           transform="translate(-218.093,-82.856)"
           fill="#003e92" />
        <path
           id="Path_16228"
           data-name="Path 16228"
           d="m 339.33,127.883 a 1.065,1.065 0 0 0 1.076,1.185 0.928,0.928 0 0 0 0.975,-0.666 h 0.836 a 1.753,1.753 0 0 1 -1.811,1.363 1.9,1.9 0 0 1 -1.959,-2.105 1.937,1.937 0 1 1 3.824,0.224 z m 2.059,-0.581 a 1.03,1.03 0 1 0 -2.059,0 z"
           transform="translate(-231.647,-85.929)"
           fill="#003e92" />
        <path
           id="Path_16229"
           data-name="Path 16229"
           d="m 356.429,129.447 c 0,1.2 -0.7,1.8 -1.966,1.8 -0.8,0 -1.71,-0.31 -1.788,-1.247 h 0.883 c 0.108,0.5 0.511,0.588 0.959,0.588 a 0.906,0.906 0 0 0 1.03,-1.021 v -0.612 h -0.016 a 1.371,1.371 0 0 1 -1.2,0.7 c -1.269,0 -1.8,-0.959 -1.8,-2.105 a 1.847,1.847 0 0 1 1.812,-2 1.257,1.257 0 0 1 1.184,0.658 h 0.016 v -0.55 h 0.882 z m -0.882,-1.881 c 0,-0.688 -0.31,-1.323 -1.076,-1.323 -0.782,0 -1.053,0.727 -1.053,1.393 0,0.666 0.317,1.323 1.053,1.323 0.782,0 1.076,-0.712 1.076,-1.393"
           transform="translate(-241.29,-85.929)"
           fill="#003e92" />
        <path
           id="Path_16230"
           data-name="Path 16230"
           d="m 366.761,125.888 h 0.967 l 1.045,2.988 h 0.015 l 1.014,-2.988 h 0.921 l -1.556,4.218 c -0.287,0.719 -0.5,1.37 -1.417,1.37 a 4.077,4.077 0 0 1 -0.611,-0.046 v -0.743 a 2.587,2.587 0 0 0 0.418,0.054 c 0.41,0 0.511,-0.217 0.619,-0.558 l 0.1,-0.31 z"
           transform="translate(-251.026,-86.163)"
           fill="#003e92" />
        <path
           id="Path_16231"
           data-name="Path 16231"
           d="m 384.794,126.7 h -0.867 v -0.558 h -0.016 a 1.344,1.344 0 0 1 -1.137,0.666 c -1.045,0 -1.494,-0.527 -1.494,-1.571 V 122.7 h 0.882 v 2.453 c 0,0.7 0.287,0.96 0.766,0.96 0.735,0 0.983,-0.472 0.983,-1.092 V 122.7 h 0.882 z m -2.856,-5.473 h 0.882 v 0.836 h -0.882 z m 2.214,0.836 h -0.883 v -0.836 h 0.883 z"
           transform="translate(-260.964,-82.972)"
           fill="#003e92" />
        <path
           id="Path_16232"
           data-name="Path 16232"
           d="m 394.424,123.287 h 0.665 v -1.2 h 0.883 v 1.2 h 0.8 v 0.658 h -0.8 v 2.136 c 0,0.364 0.031,0.549 0.426,0.549 a 1.487,1.487 0 0 0 0.371,-0.031 v 0.682 c -0.193,0.015 -0.379,0.046 -0.572,0.046 -0.921,0 -1.091,-0.356 -1.107,-1.021 v -2.361 h -0.665 z"
           transform="translate(-269.96,-83.562)"
           fill="#003e92" />
        <path
           id="Path_16233"
           data-name="Path 16233"
           d="m 403.38,123.287 h 0.666 v -1.2 h 0.882 v 1.2 h 0.8 v 0.658 h -0.8 v 2.136 c 0,0.364 0.031,0.549 0.426,0.549 a 1.5,1.5 0 0 0 0.372,-0.031 v 0.682 c -0.194,0.015 -0.38,0.046 -0.572,0.046 -0.922,0 -1.092,-0.356 -1.107,-1.021 v -2.361 h -0.666 z"
           transform="translate(-276.09,-83.562)"
           fill="#003e92" />
        <path
           id="Path_16234"
           data-name="Path 16234"
           d="m 245.875,153.206 h 1.362 l 1.525,4.327 h 0.015 l 1.486,-4.327 h 1.347 v 5.527 h -0.921 v -4.265 h -0.016 l -1.533,4.265 h -0.8 l -1.533,-4.265 H 246.8 v 4.265 h -0.921 z"
           transform="translate(-168.287,-104.861)"
           fill="#003e92" />
        <path
           id="Path_16235"
           data-name="Path 16235"
           d="m 270.572,160.915 c 0,0.217 0.046,0.3 0.209,0.3 A 1.226,1.226 0 0 0 271,161.2 v 0.611 a 2.2,2.2 0 0 1 -0.558,0.1 c -0.357,0 -0.611,-0.124 -0.681,-0.488 a 2.051,2.051 0 0 1 -1.386,0.488 1.217,1.217 0 0 1 -1.37,-1.169 c 0,-1 0.8,-1.161 1.54,-1.246 0.635,-0.117 1.2,-0.047 1.2,-0.565 0,-0.457 -0.472,-0.542 -0.828,-0.542 -0.5,0 -0.844,0.2 -0.883,0.635 h -0.882 c 0.062,-1.03 0.936,-1.331 1.819,-1.331 0.781,0 1.6,0.317 1.6,1.161 z m -0.883,-1.115 a 3.146,3.146 0 0 1 -1.083,0.24 c -0.38,0.062 -0.719,0.2 -0.719,0.666 0,0.394 0.5,0.511 0.812,0.511 0.387,0 0.991,-0.2 0.991,-0.759 z"
           transform="translate(-182.748,-107.933)"
           fill="#003e92" />
        <path
           id="Path_16236"
           data-name="Path 16236"
           d="m 284.818,161.6 c 0,1.2 -0.7,1.8 -1.965,1.8 -0.8,0 -1.71,-0.31 -1.788,-1.246 h 0.882 c 0.108,0.5 0.511,0.588 0.96,0.588 a 0.905,0.905 0 0 0 1.029,-1.022 v -0.62 h -0.015 a 1.369,1.369 0 0 1 -1.2,0.7 c -1.27,0 -1.8,-0.959 -1.8,-2.105 a 1.847,1.847 0 0 1 1.812,-2 1.258,1.258 0 0 1 1.184,0.657 h 0.015 V 157.8 h 0.882 z m -0.882,-1.881 c 0,-0.689 -0.309,-1.324 -1.076,-1.324 -0.767,0 -1.052,0.728 -1.052,1.394 0,0.666 0.317,1.323 1.052,1.323 0.782,0 1.076,-0.712 1.076,-1.393"
           transform="translate(-192.277,-107.934)"
           fill="#003e92" />
        <path
           id="Path_16237"
           data-name="Path 16237"
           d="m 295.149,158.038 h 0.967 l 1.045,2.988 h 0.015 l 1.015,-2.988 h 0.921 l -1.556,4.218 c -0.286,0.719 -0.5,1.37 -1.416,1.37 a 3.963,3.963 0 0 1 -0.612,-0.047 v -0.743 a 2.538,2.538 0 0 0 0.418,0.055 c 0.411,0 0.511,-0.217 0.619,-0.558 l 0.1,-0.31 z"
           transform="translate(-202.012,-108.168)"
           fill="#003e92" />
        <path
           id="Path_16238"
           data-name="Path 16238"
           d="m 312.161,160.915 c 0,0.217 0.046,0.3 0.209,0.3 a 1.219,1.219 0 0 0 0.217,-0.015 v 0.611 a 2.2,2.2 0 0 1 -0.557,0.1 c -0.357,0 -0.612,-0.124 -0.682,-0.488 a 2.049,2.049 0 0 1 -1.386,0.488 1.216,1.216 0 0 1 -1.369,-1.169 c 0,-1 0.8,-1.161 1.54,-1.246 0.635,-0.117 1.2,-0.047 1.2,-0.565 0,-0.457 -0.472,-0.542 -0.828,-0.542 -0.5,0 -0.844,0.2 -0.883,0.635 h -0.882 c 0.062,-1.03 0.936,-1.331 1.819,-1.331 0.781,0 1.6,0.317 1.6,1.161 z m -0.882,-1.115 a 3.151,3.151 0 0 1 -1.083,0.24 c -0.38,0.062 -0.72,0.2 -0.72,0.666 0,0.394 0.5,0.511 0.812,0.511 0.388,0 0.991,-0.2 0.991,-0.759 z"
           transform="translate(-211.214,-107.933)"
           fill="#003e92" />
        <path
           id="Path_16239"
           data-name="Path 16239"
           d="m 323.36,157.8 h 0.829 v 0.774 h 0.015 a 1.293,1.293 0 0 1 1.169,-0.882 2.2,2.2 0 0 1 0.334,0.023 v 0.852 a 3.178,3.178 0 0 0 -0.38,-0.039 c -0.6,0 -1.083,0.487 -1.083,1.37 v 1.9 h -0.883 z"
           transform="translate(-221.321,-107.932)"
           fill="#003e92" />
        <path
           id="Path_16240"
           data-name="Path 16240"
           d="m 331.831,159.8 a 2.022,2.022 0 1 1 2.02,2.113 1.932,1.932 0 0 1 -2.02,-2.113 m 3.157,0 c 0,-0.688 -0.347,-1.409 -1.138,-1.409 -0.791,0 -1.138,0.72 -1.138,1.409 0,0.689 0.348,1.417 1.138,1.417 0.79,0 1.138,-0.72 1.138,-1.417"
           transform="translate(-227.119,-107.933)"
           fill="#003e92" />
        <path
           id="Path_16241"
           data-name="Path 16241"
           d="m 347.254,157.8 h 0.829 v 0.774 h 0.015 a 1.293,1.293 0 0 1 1.17,-0.882 2.193,2.193 0 0 1 0.333,0.023 v 0.852 a 3.179,3.179 0 0 0 -0.38,-0.039 c -0.6,0 -1.083,0.487 -1.083,1.37 v 1.9 h -0.883 z"
           transform="translate(-237.675,-107.932)"
           fill="#003e92" />
        <path
           id="Path_16242"
           data-name="Path 16242"
           d="m 356.825,160.522 c 0.046,0.511 0.433,0.7 0.906,0.7 0.333,0 0.913,-0.07 0.89,-0.526 -0.023,-0.456 -0.665,-0.519 -1.309,-0.667 -0.644,-0.148 -1.284,-0.371 -1.284,-1.184 0,-0.875 0.944,-1.145 1.672,-1.145 0.82,0 1.564,0.34 1.672,1.23 h -0.921 c -0.077,-0.418 -0.425,-0.535 -0.812,-0.535 -0.256,0 -0.728,0.062 -0.728,0.411 0,0.434 0.649,0.5 1.3,0.642 0.651,0.142 1.292,0.38 1.292,1.169 0,0.952 -0.959,1.3 -1.788,1.3 -1.006,0 -1.757,-0.448 -1.772,-1.393 z"
           transform="translate(-243.622,-107.934)"
           fill="#003e92" />
        <path
           id="Path_16243"
           data-name="Path 16243"
           d="m 369.033,158.038 h 3.251 v 0.619 l -2.291,2.686 h 2.407 v 0.7 h -3.522 v -0.619 l 2.213,-2.686 h -2.059 z"
           transform="translate(-252.476,-108.168)"
           fill="#003e92" />
        <path
           id="Path_16244"
           data-name="Path 16244"
           d="m 385.43,157.556 c 0,0.217 0.046,0.3 0.209,0.3 a 1.224,1.224 0 0 0 0.217,-0.015 v 0.611 a 2.188,2.188 0 0 1 -0.557,0.1 c -0.357,0 -0.612,-0.124 -0.681,-0.488 a 2.054,2.054 0 0 1 -1.387,0.488 1.216,1.216 0 0 1 -1.369,-1.169 c 0,-1 0.8,-1.162 1.54,-1.246 0.634,-0.116 1.2,-0.047 1.2,-0.565 0,-0.457 -0.472,-0.542 -0.828,-0.542 -0.5,0 -0.843,0.2 -0.883,0.635 h -0.882 c 0.062,-1.03 0.936,-1.332 1.819,-1.332 0.782,0 1.6,0.317 1.6,1.161 z m -0.882,-1.115 a 3.165,3.165 0 0 1 -1.084,0.24 c -0.379,0.062 -0.719,0.2 -0.719,0.666 0,0.394 0.5,0.511 0.812,0.511 0.388,0 0.991,-0.2 0.991,-0.758 z m -0.666,-3.654 h 1.045 l -1.1,1.107 h -0.642 z"
           transform="translate(-261.362,-104.574)"
           fill="#003e92" />
        <path
           id="Path_16245"
           data-name="Path 16245"
           d="m 399.676,161.6 c 0,1.2 -0.7,1.8 -1.965,1.8 -0.8,0 -1.711,-0.31 -1.788,-1.246 h 0.882 c 0.108,0.5 0.511,0.588 0.96,0.588 a 0.905,0.905 0 0 0 1.029,-1.022 v -0.62 h -0.016 a 1.368,1.368 0 0 1 -1.2,0.7 c -1.27,0 -1.8,-0.959 -1.8,-2.105 a 1.847,1.847 0 0 1 1.812,-2 1.257,1.257 0 0 1 1.183,0.657 h 0.016 V 157.8 h 0.882 z m -0.882,-1.881 c 0,-0.689 -0.31,-1.324 -1.076,-1.324 -0.782,0 -1.053,0.728 -1.053,1.394 0,0.666 0.318,1.323 1.053,1.323 0.782,0 1.076,-0.712 1.076,-1.393"
           transform="translate(-270.89,-107.934)"
           fill="#003e92" />
        <path
           id="Path_16246"
           data-name="Path 16246"
           d="m 410.69,159.8 a 2.022,2.022 0 1 1 2.021,2.113 1.932,1.932 0 0 1 -2.021,-2.113 m 3.158,0 c 0,-0.688 -0.348,-1.409 -1.138,-1.409 -0.79,0 -1.139,0.72 -1.139,1.409 0,0.689 0.348,1.417 1.139,1.417 0.791,0 1.138,-0.72 1.138,-1.417"
           transform="translate(-281.093,-107.933)"
           fill="#003e92" />
        <path
           id="Path_16247"
           data-name="Path 16247"
           d="m 424.709,155.435 h 0.666 v -1.2 h 0.882 v 1.2 h 0.8 v 0.658 h -0.8 v 2.136 c 0,0.364 0.031,0.549 0.426,0.549 a 1.488,1.488 0 0 0 0.371,-0.031 v 0.682 c -0.193,0.015 -0.379,0.046 -0.572,0.046 -0.921,0 -1.092,-0.356 -1.106,-1.021 v -2.361 h -0.666 z"
           transform="translate(-290.688,-105.565)"
           fill="#003e92" />
        <path
           id="Path_16248"
           data-name="Path 16248"
           d="m 434.512,157.765 h 1.037 v 0.968 h -1.037 z m 0.039,-4.559 h 0.967 v 1.594 l -0.255,2.392 h -0.457 l -0.255,-2.392 z"
           transform="translate(-297.398,-104.861)"
           fill="#003e92" />
      </g>
    </g>
  </g>
</svg>
