<svg id="sztp-mok-eu" xmlns="http://www.w3.org/2000/svg" xmlns:xlink="http://www.w3.org/1999/xlink" width="346.672" height="78.279" viewBox="0 0 346.672 78.279">
<rect width="100%" height="100%" fill="white"></rect>
  <defs>
    <clipPath id="clip-path">
      <rect id="Rectangle_13430" data-name="Rectangle 13430" width="138.152" height="55.459" fill="none"/>
    </clipPath>
  </defs>
  <g id="sztp-logo" transform="translate(0 10.925)">
    <path id="Path_16198" data-name="Path 16198" d="M.56,65.227l-.56.56v2.047l.56.559H12.666V80.5l.56.56h2.047l.56-.56V65.787l-.56-.56Z" transform="translate(0 -46.078)" fill="#003e92"/>
    <path id="Path_16199" data-name="Path 16199" d="M31.581,48.92H16.868l-.559.56v2.047l.559.559H28.973V64.192l.56.561h2.047l.56-.561V49.48Z" transform="translate(-9.975 -34.558)" fill="#1da03b"/>
    <path id="Path_16200" data-name="Path 16200" d="M65.787,40.767l-.56.56V52.873l.56.56h2.047l.56-.56V41.327l-.56-.56Z" transform="translate(-39.895 -28.579)" fill="#e50022"/>
    <path id="Path_16201" data-name="Path 16201" d="M45.28,33.173l-.56-.56H33.174l-.56.56V35.22l.56.56H44.72l.56-.56Z" transform="translate(-19.948 -23.437)" fill="#e50022"/>
    <path id="Path_16202" data-name="Path 16202" d="M65.786,0l-.56.56V12.106l.56.56h2.047l.56-.56V.56L67.833,0Z" transform="translate(-39.895 -3.49)" fill="#003e92"/>
    <path id="Path_16203" data-name="Path 16203" d="M86.046,33.173l-.56-.56H73.94l-.56.56V35.22l.56.56H85.486l.56-.56Z" transform="translate(-44.881 -23.437)" fill="#003e92"/>
    <g id="Group_22998" data-name="Group 22998" transform="translate(0 0)">
      <g id="Group_22997" data-name="Group 22997" clip-path="url(#clip-path)">
        <path id="Path_16204" data-name="Path 16204" d="M107.11,63.533c.057,1.209.806,1.6,1.943,1.6.806,0,1.64-.287,1.64-1.05,0-.907-1.468-1.08-2.95-1.5s-3.008-1.079-3.008-2.964c0-2.245,2.26-3.123,4.188-3.123,2.043,0,4.1.994,4.114,3.31h-2.676c.043-.936-.835-1.238-1.655-1.238-.576,0-1.294.2-1.294.878,0,.791,1.482.935,2.978,1.353,1.482.416,2.978,1.107,2.978,2.963,0,2.605-2.216,3.439-4.475,3.439-2.36,0-4.446-1.036-4.46-3.669Z" transform="translate(-71.479 -38.668)" fill="#003e92"/>
        <path id="Path_16205" data-name="Path 16205" d="M134.075,71.643l3.727-3.7h-3.424v-1.87h6.532V67.93l-3.727,3.741h4v1.871h-7.108Z" transform="translate(-91.766 -45.224)" fill="#003e92"/>
        <path id="Path_16206" data-name="Path 16206" d="M160.875,64.008a1.594,1.594,0,0,0,1.669,1.7,1.456,1.456,0,0,0,1.4-.821h2.288a3.534,3.534,0,0,1-3.713,2.475,3.755,3.755,0,0,1-4.086-3.971,3.919,3.919,0,0,1,4.029-3.928c2.676,0,4.015,2.015,3.9,4.547Zm3.036-1.368a1.512,1.512,0,0,0-1.453-1.524,1.612,1.612,0,0,0-1.583,1.524Zm.964-5.913-2.259,2.144h-1.727l1.4-2.144Z" transform="translate(-108.435 -38.826)" fill="#003e92"/>
        <path id="Path_16207" data-name="Path 16207" d="M190.74,68.339a1.151,1.151,0,0,0-1.194-1.078c-1.367,0-1.583,1.165-1.583,2.2,0,.964.417,1.957,1.453,1.957a1.311,1.311,0,0,0,1.4-1.281h2.374a3.5,3.5,0,0,1-3.755,3.151,3.717,3.717,0,0,1-3.914-3.827,3.782,3.782,0,0,1,3.914-4.072c1.856,0,3.511.979,3.684,2.95Z" transform="translate(-126.976 -44.755)" fill="#003e92"/>
        <path id="Path_16208" data-name="Path 16208" d="M213.063,57.182h2.446v3.827h.029a2.6,2.6,0,0,1,2.274-1.238c2.489,0,2.691,1.814,2.691,2.892v4.792h-2.446V63.844c0-1.022.115-2.057-1.223-2.057-.921,0-1.324.777-1.324,1.6v4.071h-2.446Z" transform="translate(-145.829 -39.138)" fill="#003e92"/>
        <path id="Path_16209" data-name="Path 16209" d="M242.415,69.936a1.594,1.594,0,0,0,1.669,1.7,1.459,1.459,0,0,0,1.4-.82h2.287a3.533,3.533,0,0,1-3.713,2.475,3.755,3.755,0,0,1-4.086-3.971A3.919,3.919,0,0,1,244,65.389c2.677,0,4.015,2.015,3.9,4.547Zm3.037-1.368A1.513,1.513,0,0,0,244,67.044a1.613,1.613,0,0,0-1.583,1.524Z" transform="translate(-164.245 -44.755)" fill="#003e92"/>
        <path id="Path_16210" data-name="Path 16210" d="M268.29,65.607h2.375v1.022h.028a2.82,2.82,0,0,1,2.346-1.238c2.489,0,2.691,1.813,2.691,2.892v4.792h-2.446V69.463c0-1.022.115-2.058-1.223-2.058-.921,0-1.324.777-1.324,1.6v4.072H268.29Z" transform="translate(-183.629 -44.756)" fill="#003e92"/>
        <path id="Path_16211" data-name="Path 16211" d="M298.365,74.2c-.59,1.64-1.468,1.842-3.122,1.842h-1.152V74.061h.849a.868.868,0,0,0,.978-.835,10.287,10.287,0,0,0-.618-1.957l-1.929-5.193h2.591l1.41,4.862h.028l1.41-4.862h2.5Z" transform="translate(-200.796 -45.225)" fill="#003e92"/>
        <path id="Path_16212" data-name="Path 16212" d="M322.815,59.053h-2.447v-1.87h2.447Zm-2.446.936h2.447v7.468h-2.447Z" transform="translate(-219.273 -39.138)" fill="#003e92"/>
        <path id="Path_16213" data-name="Path 16213" d="M352.8,59.484h-3.065v7.971h-2.676V59.484h-3.064v-2.3H352.8Z" transform="translate(-235.444 -39.138)" fill="#003e92"/>
        <path id="Path_16214" data-name="Path 16214" d="M370.885,69.936a1.593,1.593,0,0,0,1.669,1.7,1.458,1.458,0,0,0,1.4-.82h2.288a3.534,3.534,0,0,1-3.713,2.475,3.755,3.755,0,0,1-4.086-3.971,3.919,3.919,0,0,1,4.028-3.928c2.677,0,4.014,2.015,3.9,4.547Zm3.036-1.368a1.512,1.512,0,0,0-1.453-1.524,1.612,1.612,0,0,0-1.582,1.524Z" transform="translate(-252.175 -44.755)" fill="#003e92"/>
        <path id="Path_16215" data-name="Path 16215" d="M396.987,65.762h2.375v1.309h.029a2.251,2.251,0,0,1,2.245-1.454,2.637,2.637,0,0,1,.575.057v2.231a3.428,3.428,0,0,0-.935-.144,1.718,1.718,0,0,0-1.842,1.769v3.7h-2.446Z" transform="translate(-271.714 -44.911)" fill="#003e92"/>
        <path id="Path_16216" data-name="Path 16216" d="M418.031,73.542h-2.82l-2.489-7.468h2.547l1.367,4.935h.029l1.382-4.935h2.488Z" transform="translate(-282.484 -45.224)" fill="#003e92"/>
        <path id="Path_16217" data-name="Path 16217" d="M105.995,105.993h4.878c1.913,0,3.713.877,3.713,3.309,0,2.547-1.454,3.54-3.713,3.54h-2.2v3.424h-2.676Zm2.676,4.777h1.8c.835,0,1.439-.345,1.439-1.281a1.266,1.266,0,0,0-1.439-1.353h-1.8Z" transform="translate(-72.547 -72.546)" fill="#003e92"/>
        <rect id="Rectangle_13429" data-name="Rectangle 13429" width="2.446" height="10.273" transform="translate(42.989 33.447)" fill="#003e92"/>
        <path id="Path_16218" data-name="Path 16218" d="M155.892,122.354h-2.375v-1.021h-.029a2.752,2.752,0,0,1-2.274,1.237c-2.144,0-2.762-1.237-2.762-3.193v-4.489H150.9v4.33c0,.993.431,1.338,1.208,1.338.533,0,1.339-.345,1.339-1.669v-4h2.446Z" transform="translate(-101.607 -78.633)" fill="#003e92"/>
        <path id="Path_16219" data-name="Path 16219" d="M177.235,119.425a1,1,0,0,0,.4.835,1.537,1.537,0,0,0,.907.259c.475,0,1.151-.2,1.151-.792s-.763-.691-1.194-.792c-1.54-.388-3.469-.431-3.469-2.446,0-1.8,1.943-2.287,3.41-2.287,1.64,0,3.353.474,3.439,2.416h-2.259a.7.7,0,0,0-.317-.646,1.439,1.439,0,0,0-.776-.187c-.4,0-1.05.043-1.05.56,0,.706,1.64.835,2.762,1.08a2.117,2.117,0,0,1,1.9,2.014c0,2-1.9,2.662-3.583,2.662-1.769,0-3.582-.59-3.654-2.676Z" transform="translate(-119.712 -78.165)" fill="#003e92"/>
        <path id="Path_16220" data-name="Path 16220" d="M199.076,120.454l3.726-3.7h-3.425v-1.869h6.533v1.855l-3.726,3.741h4v1.87h-7.108Z" transform="translate(-136.256 -78.633)" fill="#003e92"/>
        <path id="Path_16221" data-name="Path 16221" d="M245.923,117.464H249.9v.836h-3.01v1.447h2.786v.789h-2.786v1.618h3.065v.835h-4.033Zm1.966-1.657h1.045l-1.1,1.107h-.642Z" transform="translate(-168.32 -79.263)" fill="#003e92"/>
        <path id="Path_16222" data-name="Path 16222" d="M261.343,125.653h.836v.541h.015a1.338,1.338,0,0,1,1.239-.65,1.881,1.881,0,0,1,1.873,2.128c0,1.076-.542,2.09-1.726,2.09a1.555,1.555,0,0,1-1.339-.628h-.015v2h-.882Zm1.974.588c-.743,0-1.122.565-1.122,1.417,0,.8.41,1.409,1.122,1.409.8,0,1.107-.713,1.107-1.409,0-.728-.38-1.417-1.107-1.417" transform="translate(-178.874 -85.928)" fill="#003e92"/>
        <path id="Path_16223" data-name="Path 16223" d="M276.839,120.638h1.046l-1.1,1.107h-.642Zm-.557,1.657h.882v4h-.882Z" transform="translate(-189.004 -82.57)" fill="#003e92"/>
        <path id="Path_16224" data-name="Path 16224" d="M281.408,123.287h.666v-1.2h.882v1.2h.8v.658h-.8v2.136c0,.364.031.549.426.549a1.487,1.487,0,0,0,.371-.031v.682c-.193.015-.379.046-.571.046-.922,0-1.092-.356-1.107-1.021v-2.361h-.666Z" transform="translate(-192.607 -83.562)" fill="#003e92"/>
        <path id="Path_16225" data-name="Path 16225" d="M291.4,128.371c.047.511.433.7.906.7.333,0,.913-.07.89-.527s-.666-.519-1.309-.666-1.284-.372-1.284-1.184c0-.875.944-1.145,1.671-1.145.821,0,1.564.34,1.672,1.23h-.921c-.078-.418-.426-.534-.813-.534-.255,0-.727.062-.727.41,0,.434.65.5,1.3.642s1.292.38,1.292,1.169c0,.952-.959,1.3-1.788,1.3-1.006,0-1.757-.448-1.773-1.393Z" transform="translate(-198.842 -85.929)" fill="#003e92"/>
        <path id="Path_16226" data-name="Path 16226" d="M307.752,126.7h-.867v-.558h-.015a1.343,1.343,0,0,1-1.138.666c-1.045,0-1.494-.527-1.494-1.571V122.7h.882v2.453c0,.7.287.96.766.96.736,0,.983-.472.983-1.092V122.7h.882Zm-2.856-5.473h.883v.836H304.9Zm2.214.836h-.883v-.836h.883Z" transform="translate(-208.233 -82.972)" fill="#003e92"/>
        <path id="Path_16227" data-name="Path 16227" d="M318.644,121.056h.882V124.2l1.6-1.618H322.2l-1.533,1.471,1.68,2.531h-1.076l-1.223-1.944-.527.511v1.433h-.882Z" transform="translate(-218.093 -82.856)" fill="#003e92"/>
        <path id="Path_16228" data-name="Path 16228" d="M339.33,127.883a1.065,1.065,0,0,0,1.076,1.185.928.928,0,0,0,.975-.666h.836a1.753,1.753,0,0,1-1.811,1.363,1.9,1.9,0,0,1-1.959-2.105,1.937,1.937,0,1,1,3.824.224Zm2.059-.581a1.03,1.03,0,1,0-2.059,0Z" transform="translate(-231.647 -85.929)" fill="#003e92"/>
        <path id="Path_16229" data-name="Path 16229" d="M356.429,129.447c0,1.2-.7,1.8-1.966,1.8-.8,0-1.71-.31-1.788-1.247h.883c.108.5.511.588.959.588a.906.906,0,0,0,1.03-1.021v-.612h-.016a1.371,1.371,0,0,1-1.2.7c-1.269,0-1.8-.959-1.8-2.105a1.847,1.847,0,0,1,1.812-2,1.257,1.257,0,0,1,1.184.658h.016v-.55h.882Zm-.882-1.881c0-.688-.31-1.323-1.076-1.323-.782,0-1.053.727-1.053,1.393s.317,1.323,1.053,1.323c.782,0,1.076-.712,1.076-1.393" transform="translate(-241.29 -85.929)" fill="#003e92"/>
        <path id="Path_16230" data-name="Path 16230" d="M366.761,125.888h.967l1.045,2.988h.015l1.014-2.988h.921l-1.556,4.218c-.287.719-.5,1.37-1.417,1.37a4.077,4.077,0,0,1-.611-.046v-.743a2.587,2.587,0,0,0,.418.054c.41,0,.511-.217.619-.558l.1-.31Z" transform="translate(-251.026 -86.163)" fill="#003e92"/>
        <path id="Path_16231" data-name="Path 16231" d="M384.794,126.7h-.867v-.558h-.016a1.344,1.344,0,0,1-1.137.666c-1.045,0-1.494-.527-1.494-1.571V122.7h.882v2.453c0,.7.287.96.766.96.735,0,.983-.472.983-1.092V122.7h.882Zm-2.856-5.473h.882v.836h-.882Zm2.214.836h-.883v-.836h.883Z" transform="translate(-260.964 -82.972)" fill="#003e92"/>
        <path id="Path_16232" data-name="Path 16232" d="M394.424,123.287h.665v-1.2h.883v1.2h.8v.658h-.8v2.136c0,.364.031.549.426.549a1.487,1.487,0,0,0,.371-.031v.682c-.193.015-.379.046-.572.046-.921,0-1.091-.356-1.107-1.021v-2.361h-.665Z" transform="translate(-269.96 -83.562)" fill="#003e92"/>
        <path id="Path_16233" data-name="Path 16233" d="M403.38,123.287h.666v-1.2h.882v1.2h.8v.658h-.8v2.136c0,.364.031.549.426.549a1.5,1.5,0,0,0,.372-.031v.682c-.194.015-.38.046-.572.046-.922,0-1.092-.356-1.107-1.021v-2.361h-.666Z" transform="translate(-276.09 -83.562)" fill="#003e92"/>
        <path id="Path_16234" data-name="Path 16234" d="M245.875,153.206h1.362l1.525,4.327h.015l1.486-4.327h1.347v5.527h-.921v-4.265h-.016l-1.533,4.265h-.8l-1.533-4.265H246.8v4.265h-.921Z" transform="translate(-168.287 -104.861)" fill="#003e92"/>
        <path id="Path_16235" data-name="Path 16235" d="M270.572,160.915c0,.217.046.3.209.3A1.226,1.226,0,0,0,271,161.2v.611a2.2,2.2,0,0,1-.558.1c-.357,0-.611-.124-.681-.488a2.051,2.051,0,0,1-1.386.488,1.217,1.217,0,0,1-1.37-1.169c0-1,.8-1.161,1.54-1.246.635-.117,1.2-.047,1.2-.565,0-.457-.472-.542-.828-.542-.5,0-.844.2-.883.635h-.882c.062-1.03.936-1.331,1.819-1.331.781,0,1.6.317,1.6,1.161Zm-.883-1.115a3.146,3.146,0,0,1-1.083.24c-.38.062-.719.2-.719.666,0,.394.5.511.812.511.387,0,.991-.2.991-.759Z" transform="translate(-182.748 -107.933)" fill="#003e92"/>
        <path id="Path_16236" data-name="Path 16236" d="M284.818,161.6c0,1.2-.7,1.8-1.965,1.8-.8,0-1.71-.31-1.788-1.246h.882c.108.5.511.588.96.588a.905.905,0,0,0,1.029-1.022V161.1h-.015a1.369,1.369,0,0,1-1.2.7c-1.27,0-1.8-.959-1.8-2.105a1.847,1.847,0,0,1,1.812-2,1.258,1.258,0,0,1,1.184.657h.015V157.8h.882Zm-.882-1.881c0-.689-.309-1.324-1.076-1.324s-1.052.728-1.052,1.394.317,1.323,1.052,1.323c.782,0,1.076-.712,1.076-1.393" transform="translate(-192.277 -107.934)" fill="#003e92"/>
        <path id="Path_16237" data-name="Path 16237" d="M295.149,158.038h.967l1.045,2.988h.015l1.015-2.988h.921l-1.556,4.218c-.286.719-.5,1.37-1.416,1.37a3.963,3.963,0,0,1-.612-.047v-.743a2.538,2.538,0,0,0,.418.055c.411,0,.511-.217.619-.558l.1-.31Z" transform="translate(-202.012 -108.168)" fill="#003e92"/>
        <path id="Path_16238" data-name="Path 16238" d="M312.161,160.915c0,.217.046.3.209.3a1.219,1.219,0,0,0,.217-.015v.611a2.2,2.2,0,0,1-.557.1c-.357,0-.612-.124-.682-.488a2.049,2.049,0,0,1-1.386.488,1.216,1.216,0,0,1-1.369-1.169c0-1,.8-1.161,1.54-1.246.635-.117,1.2-.047,1.2-.565,0-.457-.472-.542-.828-.542-.5,0-.844.2-.883.635h-.882c.062-1.03.936-1.331,1.819-1.331.781,0,1.6.317,1.6,1.161Zm-.882-1.115a3.151,3.151,0,0,1-1.083.24c-.38.062-.72.2-.72.666,0,.394.5.511.812.511.388,0,.991-.2.991-.759Z" transform="translate(-211.214 -107.933)" fill="#003e92"/>
        <path id="Path_16239" data-name="Path 16239" d="M323.36,157.8h.829v.774h.015a1.293,1.293,0,0,1,1.169-.882,2.2,2.2,0,0,1,.334.023v.852a3.178,3.178,0,0,0-.38-.039c-.6,0-1.083.487-1.083,1.37v1.9h-.883Z" transform="translate(-221.321 -107.932)" fill="#003e92"/>
        <path id="Path_16240" data-name="Path 16240" d="M331.831,159.8a2.022,2.022,0,1,1,2.02,2.113,1.932,1.932,0,0,1-2.02-2.113m3.157,0c0-.688-.347-1.409-1.138-1.409s-1.138.72-1.138,1.409.348,1.417,1.138,1.417,1.138-.72,1.138-1.417" transform="translate(-227.119 -107.933)" fill="#003e92"/>
        <path id="Path_16241" data-name="Path 16241" d="M347.254,157.8h.829v.774h.015a1.293,1.293,0,0,1,1.17-.882,2.193,2.193,0,0,1,.333.023v.852a3.179,3.179,0,0,0-.38-.039c-.6,0-1.083.487-1.083,1.37v1.9h-.883Z" transform="translate(-237.675 -107.932)" fill="#003e92"/>
        <path id="Path_16242" data-name="Path 16242" d="M356.825,160.522c.046.511.433.7.906.7.333,0,.913-.07.89-.526s-.665-.519-1.309-.667-1.284-.371-1.284-1.184c0-.875.944-1.145,1.672-1.145.82,0,1.564.34,1.672,1.23h-.921c-.077-.418-.425-.535-.812-.535-.256,0-.728.062-.728.411,0,.434.649.5,1.3.642s1.292.38,1.292,1.169c0,.952-.959,1.3-1.788,1.3-1.006,0-1.757-.448-1.772-1.393Z" transform="translate(-243.622 -107.934)" fill="#003e92"/>
        <path id="Path_16243" data-name="Path 16243" d="M369.033,158.038h3.251v.619l-2.291,2.686H372.4v.7h-3.522v-.619l2.213-2.686h-2.059Z" transform="translate(-252.476 -108.168)" fill="#003e92"/>
        <path id="Path_16244" data-name="Path 16244" d="M385.43,157.556c0,.217.046.3.209.3a1.224,1.224,0,0,0,.217-.015v.611a2.188,2.188,0,0,1-.557.1c-.357,0-.612-.124-.681-.488a2.054,2.054,0,0,1-1.387.488,1.216,1.216,0,0,1-1.369-1.169c0-1,.8-1.162,1.54-1.246.634-.116,1.2-.047,1.2-.565,0-.457-.472-.542-.828-.542-.5,0-.843.2-.883.635h-.882c.062-1.03.936-1.332,1.819-1.332.782,0,1.6.317,1.6,1.161Zm-.882-1.115a3.165,3.165,0,0,1-1.084.24c-.379.062-.719.2-.719.666,0,.394.5.511.812.511.388,0,.991-.2.991-.758Zm-.666-3.654h1.045l-1.1,1.107h-.642Z" transform="translate(-261.362 -104.574)" fill="#003e92"/>
        <path id="Path_16245" data-name="Path 16245" d="M399.676,161.6c0,1.2-.7,1.8-1.965,1.8-.8,0-1.711-.31-1.788-1.246h.882c.108.5.511.588.96.588a.905.905,0,0,0,1.029-1.022V161.1h-.016a1.368,1.368,0,0,1-1.2.7c-1.27,0-1.8-.959-1.8-2.105a1.847,1.847,0,0,1,1.812-2,1.257,1.257,0,0,1,1.183.657h.016V157.8h.882Zm-.882-1.881c0-.689-.31-1.324-1.076-1.324-.782,0-1.053.728-1.053,1.394s.318,1.323,1.053,1.323c.782,0,1.076-.712,1.076-1.393" transform="translate(-270.89 -107.934)" fill="#003e92"/>
        <path id="Path_16246" data-name="Path 16246" d="M410.69,159.8a2.022,2.022,0,1,1,2.021,2.113,1.932,1.932,0,0,1-2.021-2.113m3.158,0c0-.688-.348-1.409-1.138-1.409s-1.139.72-1.139,1.409.348,1.417,1.139,1.417,1.138-.72,1.138-1.417" transform="translate(-281.093 -107.933)" fill="#003e92"/>
        <path id="Path_16247" data-name="Path 16247" d="M424.709,155.435h.666v-1.2h.882v1.2h.8v.658h-.8v2.136c0,.364.031.549.426.549a1.488,1.488,0,0,0,.371-.031v.682c-.193.015-.379.046-.572.046-.921,0-1.092-.356-1.106-1.021v-2.361h-.666Z" transform="translate(-290.688 -105.565)" fill="#003e92"/>
        <path id="Path_16248" data-name="Path 16248" d="M434.512,157.765h1.037v.968h-1.037Zm.039-4.559h.967V154.8l-.255,2.392h-.457l-.255-2.392Z" transform="translate(-297.398 -104.861)" fill="#003e92"/>
      </g>
    </g>
  </g>
  <rect id="Rectangle_14955" data-name="Rectangle 14955" width="78.279" height="0.582" transform="translate(159.64 78.279) rotate(-90)" fill="#039"/>
  <g id="alkotoelem-02" transform="translate(172.583 5.049)">
    <g id="Group_37130" data-name="Group 37130" transform="translate(32.512 7.77)">
      <path id="Path_42383" data-name="Path 42383" d="M1160,2287.878a.368.368,0,1,1,.368-.367A.368.368,0,0,1,1160,2287.878Zm0-1.018a.649.649,0,1,0,.651.65A.65.65,0,0,0,1160,2286.86Z" transform="translate(-1159.351 -2286.86)" fill="#174895"/>
    </g>
    <g id="Group_37131" data-name="Group 37131" transform="translate(30.119 8.249)">
      <path id="Path_42384" data-name="Path 42384" d="M1109.177,2297.744a.234.234,0,1,1,0-.467.234.234,0,0,1,0,.467Zm0-.747a.514.514,0,1,0,.512.512A.513.513,0,0,0,1109.177,2297Z" transform="translate(-1108.663 -2296.998)" fill="#174895"/>
    </g>
    <g id="Group_37132" data-name="Group 37132" transform="translate(35.334 13.479)">
      <path id="Path_42385" data-name="Path 42385" d="M1220.677,2409.727c-.439,0-1.264-.123-1.264-.593a1.286,1.286,0,0,1,2.531,0C1221.944,2409.6,1221.116,2409.727,1220.677,2409.727Zm0-1.929a1.577,1.577,0,0,0-1.547,1.336c0,.645.834.873,1.547.873s1.546-.228,1.546-.873A1.575,1.575,0,0,0,1220.677,2407.8Z" transform="translate(-1219.13 -2407.798)" fill="#174895"/>
    </g>
    <g id="Group_37133" data-name="Group 37133" transform="translate(39.952 7.77)">
      <path id="Path_42386" data-name="Path 42386" d="M1317.592,2287.878a.368.368,0,1,1,.369-.367A.368.368,0,0,1,1317.592,2287.878Zm0-1.018a.649.649,0,1,0,.652.65A.65.65,0,0,0,1317.592,2286.86Z" transform="translate(-1316.943 -2286.86)" fill="#174895"/>
    </g>
    <g id="Group_37134" data-name="Group 37134" transform="translate(42.618 8.249)">
      <path id="Path_42387" data-name="Path 42387" d="M1373.94,2297.744a.234.234,0,1,1,.233-.234A.233.233,0,0,1,1373.94,2297.744Zm0-.747a.514.514,0,1,0,.513.512A.515.515,0,0,0,1373.94,2297Z" transform="translate(-1373.426 -2296.998)" fill="#174895"/>
    </g>
    <g id="Group_37135" data-name="Group 37135" transform="translate(39.871 13.583)">
      <path id="Path_42388" data-name="Path 42388" d="M1317.185,2411.719h-1.668v-1.439h1.668Zm.142-1.721h-1.952a.14.14,0,0,0-.141.139v1.72a.144.144,0,0,0,.141.144h1.952a.141.141,0,0,0,.138-.144v-1.72A.137.137,0,0,0,1317.327,2410Z" transform="translate(-1315.234 -2409.998)" fill="#174895"/>
    </g>
    <g id="Group_37136" data-name="Group 37136" transform="translate(42.585 13.585)">
      <path id="Path_42389" data-name="Path 42389" d="M1374,2411.489a.261.261,0,0,1-.262.262h-.461a.264.264,0,0,1-.264-.262v-.915a.267.267,0,0,1,.264-.264h.461a.264.264,0,0,1,.262.264Zm-.262-1.458h-.461a.544.544,0,0,0-.544.543v.915a.546.546,0,0,0,.544.543h.461a.546.546,0,0,0,.543-.543v-.915A.544.544,0,0,0,1373.735,2410.031Z" transform="translate(-1372.73 -2410.031)" fill="#174895"/>
    </g>
    <g id="Group_37137" data-name="Group 37137" transform="translate(26.233 0)">
      <path id="Path_42390" data-name="Path 42390" d="M1047.271,2157.8a1.459,1.459,0,0,0-.587-.311v-18.292h.64c0,1.569.035,15.718.035,17.25A10.5,10.5,0,0,1,1047.271,2157.8Zm-.179.969-1.01-1.012a1.046,1.046,0,0,1,.255-.033,1.156,1.156,0,0,1,.88.422C1047.182,2158.354,1047.139,2158.563,1047.092,2158.765Zm-.363,1.14-1.49-1.493a.14.14,0,0,0,.071-.062,1.231,1.231,0,0,1,.484-.485l1.214,1.213A8.547,8.547,0,0,1,1046.729,2159.905Zm-.481,1.017-3.681-3.68h1.1l2.944,2.942A7.944,7.944,0,0,1,1046.247,2160.922Zm-.587.91-4.592-4.591h1.1l3.934,3.93Q1045.891,2161.518,1045.66,2161.832Zm-.683.818-5.143-5.142a2.778,2.778,0,0,1,.157-.267h.679l4.816,4.817C1045.323,2162.266,1045.152,2162.462,1044.977,2162.65Zm-.77.732-5.626-5.625a1.2,1.2,0,0,1,.717.519.145.145,0,0,0,.142.06.139.139,0,0,0,.112-.1,3.623,3.623,0,0,1,.153-.454l5.076,5.075C1044.594,2163.038,1044.4,2163.216,1044.207,2163.381Zm-.848.652-5.912-5.914a1.192,1.192,0,0,1,.715-.388l5.829,5.829C1043.78,2163.732,1043.573,2163.885,1043.359,2164.034Zm-.919.58-5.336-5.337v-.24a1.37,1.37,0,0,1,.18-.683l5.839,5.84C1042.894,2164.346,1042.664,2164.486,1042.441,2164.614Zm-1,.5-4.339-4.335v-1.1l5.081,5.08C1041.935,2164.886,1041.69,2165.007,1041.444,2165.115Zm-1.075.426-3.264-3.265v-1.1l4.06,4.061C1040.9,2165.346,1040.63,2165.447,1040.369,2165.541Zm-1.134.369-2.13-2.133v-1.1l2.968,2.97C1039.789,2165.738,1039.507,2165.827,1039.235,2165.91Zm-.562.167c-.206.06-.4.119-.591.176l-.977-.977v-1.1l1.827,1.825C1038.844,2166.026,1038.759,2166.05,1038.672,2166.078Zm-1.568.511v-.915l.676.673C1037.537,2166.426,1037.312,2166.5,1037.1,2166.589Zm.8-27.4v18.312a1.488,1.488,0,0,0-.8.6v-18.915Zm-9.891-.668h17.958v.387h-17.958Zm8.811,3.835h-.769v-3.167h.769Zm-1.818-3.167h.768v3.167h-.768Zm-1.049,0h.769v3.167h-.769Zm-1.051,0h.768v3.167h-.768Zm-1.047,0h.769v3.167h-.769Zm-1.048,0h.768v3.167h-.768Zm-1.051,0h.768v3.167h-.768Zm-1.051,0h.769v3.167h-.769Zm8.116,6.6h-10.179c0-1.123,0-2.2.006-3.154h10.172Zm0,3.438h-.769v-3.154h.769Zm-1.818-3.154h.768v3.154h-.768Zm-1.049,0h.769v3.154h-.769Zm-1.051,0h.768v3.154h-.768Zm-1.047,0h.769v3.154h-.769Zm-1.048,0h.768v3.154h-.768Zm-1.051,0h.768v3.154h-.768Zm-1.051,0h.769v3.154h-.769Zm-1.047,0h.767v3.154h-.767Zm9.163,6.592h-10.192c0-.964,0-2.04.007-3.158h10.185Zm0,3.434h-.769v-3.155h.769Zm-1.818-3.155h.768v3.155h-.768Zm-1.049,0h.769v3.155h-.769Zm-1.051,0h.768v3.155h-.768Zm-1.047,0h.769v3.155h-.769Zm-1.048,0h.768v3.155h-.768Zm-1.051,0h.768v3.155h-.768Zm-1.051,0h.769v3.155h-.769Zm-1.047,0h.767v3.155h-.767Zm9.163,6.594h-9.7a9.4,9.4,0,0,1-.5-3.1v-.055h10.2Zm0,3.436h-.769v-3.155h.769Zm-1.818-3.156h.768v3.155h-.768Zm-1.049,0h.769v3.155h-.769Zm-1.051,0h.768v3.155h-.768Zm-1.047,0h.769v3.155h-.769Zm-1.048,0h.768v3.155h-.768Zm-1.051,0h.768v3.155h-.768Zm7.065,6.741c-.432-.168-.94-.32-1.514-.488a17.584,17.584,0,0,1-3.679-1.415,11.333,11.333,0,0,1-1.991-1.4h7.185Zm-7.346-3.584h-.141c-.215-.208-.427-.427-.628-.664v-2.493h.77Zm-1.049-1.011a8.471,8.471,0,0,1-.767-1.189v-.956h.767Zm-1.048-1.77c-.056-.122-.106-.247-.158-.375h.158Zm-.748-7.25h.748v3.155h-.755C1026.626,2155.506,1026.628,2154.368,1026.631,2152.951Zm.013-6.871h.735v3.154h-.741C1026.64,2148.189,1026.641,2147.117,1026.645,2146.079Zm.015-6.885h.72v3.167h-.727C1026.655,2140.776,1026.659,2139.588,1026.659,2139.194Zm1,0h.767v3.167h-.767Zm.039-7.211a.173.173,0,1,1,.173.175A.172.172,0,0,1,1027.7,2131.983Zm.313,4.154h.962v1.438h-.962Zm1.1,1.72a.14.14,0,0,0,.141-.139V2136a.139.139,0,0,0-.141-.14h-1.1v-.387h6.621v2.775h-6.621v-.387Zm9.952.387h-4.152v-2.775h4.152Zm6.9-3.056h-17.958v-.544h17.958Zm-17.172-2.512.549,1.687h-1.1Zm-.233-1.1a.233.233,0,1,1,.467,0,.233.233,0,0,1-.467,0Zm3.119,1.29v1.5H1029.8v-1.5a.94.94,0,0,1,1.881,0Zm2.6,1.5h-2.028l1.014-2.49Zm-4.98-2.693a7.345,7.345,0,0,1,5.329-4.074v6.767h-.045l-1.187-2.914a.14.14,0,0,0-.13-.088.134.134,0,0,0-.128.088l-1.177,2.89v-1.473a1.221,1.221,0,0,0-2.441,0v1.129l-.593-1.819a.135.135,0,0,0-.1-.089A.514.514,0,0,0,1029.3,2131.669Zm.22-1.8,4.3-2.955h.806v.392a7.822,7.822,0,0,0-5.442,3.919Zm5.392,2.579a2.076,2.076,0,0,1,4.152,0v1.915h-4.152Zm0-5.534h.633v3.673a2.354,2.354,0,0,0-.633.744Zm2.073,2.9a.471.471,0,1,1,.527-.469A.5.5,0,0,1,1036.989,2129.814Zm-1.16-2.9h2.325v3.485a2.358,2.358,0,0,0-1.106-.307.8.8,0,1,0-.115,0,2.353,2.353,0,0,0-1.1.307Zm.03-2.313h-.014a.255.255,0,0,1-.119-.028l-.879.583-.012.056a.331.331,0,0,1-.141.2.335.335,0,0,1-.471-.095.338.338,0,0,1,.45-.479l.074.044.825-.548a.042.042,0,0,1,0-.012.258.258,0,0,1,.028-.121l-.646-.977h-.073a.331.331,0,0,1-.269-.152.337.337,0,0,1,.281-.523.336.336,0,0,1,.317.451l-.023.068.648.979h.012a.286.286,0,0,1,.118.027l.82-.542-.008-.087a.336.336,0,0,1,.148-.321.341.341,0,0,1,.186-.056.335.335,0,0,1,.282.153.34.34,0,0,1-.1.469.336.336,0,0,1-.245.047l-.056-.007-.874.579v.015a.255.255,0,0,1-.027.118l.723,1.095.089-.013a.536.536,0,0,1,.528.231.52.52,0,0,1,.079.4.539.539,0,0,1-.228.343.55.55,0,0,1-.3.087.535.535,0,0,1-.447-.239.541.541,0,0,1-.007-.581l.047-.076Zm2.577,2.313h.633v4.417a2.4,2.4,0,0,0-.633-.744Zm3.289,7.448H1039.7l1.012-2.49Zm2.454-1.5v1.5h-1.88v-1.5a.94.94,0,1,1,1.88,0Zm-4.83-5.27a7.342,7.342,0,0,1,5.33,4.074.517.517,0,0,0,.47.417.134.134,0,0,0-.1.089l-.59,1.819v-1.129a1.221,1.221,0,0,0-2.441,0v1.473l-1.178-2.89a.138.138,0,0,0-.132-.088.14.14,0,0,0-.13.088l-1.185,2.914h-.047Zm0-.681h.811l4.3,2.955.334,1.356a7.823,7.823,0,0,0-5.444-3.919Zm5.837,4.427a.235.235,0,0,1,.232.235.234.234,0,0,1-.468,0A.237.237,0,0,1,1045.186,2131.341Zm.546,3.022h-1.1l.55-1.687Zm.239,3.214h-.964v-1.438h.964Zm-1.1-1.72a.14.14,0,0,0-.14.14v1.722a.14.14,0,0,0,.14.139h1.1v.387h-6.622v-2.775h6.622v.387Zm-.589,12.724h-.9v-2.5h.9Zm1.062-2.259v2.259h-.783v-2.5h.114A.917.917,0,0,1,1045.34,2146.321Zm-.783-2.485v-4.643h.783v4.4a.934.934,0,0,1-.669.242Zm-.947-3.281a.145.145,0,0,0-.113-.068v-1.294h.782v4.643h-.895v-2.273a2.026,2.026,0,0,1,.228-.866A.138.138,0,0,0,1043.609,2140.556Zm-1.177-1.362h.783v1.294h-.783Zm-1.063,0h.783v1.294h-.783Zm-.4,1.5a2.046,2.046,0,0,1,.229.866v2.273h-.894v-4.643h.779v1.294a.143.143,0,0,0-.113.068A.141.141,0,0,0,1040.975,2140.7Zm-1.731,2.9v-4.4h.783v4.643h-.11A.942.942,0,0,1,1039.243,2143.594Zm1.066,2.485h.895v2.5h-.895Zm-1.066,2.5v-2.259a.936.936,0,0,1,.673-.242h.11v2.5Zm-1.062-.247v-9.139h.782v9.386h-.129A.873.873,0,0,1,1038.182,2148.333Zm.782,2.488v6.783a1.39,1.39,0,0,0-.647-.162c-.046,0-.089,0-.135,0v-6.393a.891.891,0,0,1,.653-.232Zm6.306,3.449a.6.6,0,0,0-.277-.071.583.583,0,0,0-.436.216v-3.594h.783v3.54A.15.15,0,0,0,1045.27,2154.27Zm-.433,2.828a5.154,5.154,0,0,1,.482-2.625.132.132,0,0,0,.022-.044v3.424c-.032.033-.065.066-.094.1A3.476,3.476,0,0,0,1044.837,2157.1Zm-.24.143a3.151,3.151,0,0,1,.424.954l-.953-.954Zm-.018-.853c-.012.179-.022.366-.024.571h-4.526c0-.2-.012-.392-.024-.571Zm-3.361-.283h-.458a.3.3,0,0,1,.258-.121.334.334,0,0,1,.188.111S1041.215,2156.1,1041.218,2156.106Zm-.014-1.724a1.071,1.071,0,0,0-.323.616c0,.084.188.727.612.727a.78.78,0,0,0,.129-.01c-.024.027-.044.055-.069.078a.539.539,0,0,1-.136.115l-.012-.014a.6.6,0,0,0-.386-.19.578.578,0,0,0-.426.17.784.784,0,0,0-.063-.052.412.412,0,0,0,.218-.275c.141-.4.139-.483.09-.592l0-.012s-.2-.5-.524-.552v-3.57h.894Zm2.623,1.724h-.461l.011-.009a.351.351,0,0,1,.188-.111A.3.3,0,0,1,1043.826,2156.106Zm.452-1.715c-.318.047-.525.545-.529.552l-.005.013c-.042.107-.045.188.094.59a.417.417,0,0,0,.22.275l-.066.048a.546.546,0,0,0-.811.026.07.07,0,0,0-.013.013.541.541,0,0,1-.135-.117.955.955,0,0,1-.07-.078.81.81,0,0,0,.129.01c.408,0,.615-.605.615-.727a1.082,1.082,0,0,0-.324-.616v-3.561h.895Zm.194,1.008a.137.137,0,0,0-.166.045.322.322,0,0,1-.144.115c-.007,0-.035-.028-.062-.1-.117-.341-.1-.375-.094-.392l.006-.02c.045-.109.21-.377.316-.377.027,0,.067.033.1.089a.14.14,0,0,0,.244-.02s.125-.255.317-.255h0a5,5,0,0,0-.4,1.625h-.455a.967.967,0,0,0,.409-.557A.14.14,0,0,0,1044.473,2155.4Zm-2.573-1.092a.212.212,0,0,1-.054-.174c0-.164.339-.311.447-.335.094.023.449.162.449.335a.229.229,0,0,1-.056.177.281.281,0,0,0-.076.188v.04a.134.134,0,0,0,.049.108.141.141,0,0,0,.116.031.3.3,0,0,0,.139-.074.227.227,0,0,1,.178-.054.189.189,0,0,1,.041.008.129.129,0,0,0,.078.046.92.92,0,0,1,.213.4c-.02.094-.16.446-.332.446a.228.228,0,0,1-.178-.055.28.28,0,0,0-.185-.075h-.105a.142.142,0,0,0-.121.067.153.153,0,0,0,0,.137,2.684,2.684,0,0,0,.325.466,1.056,1.056,0,0,0,.136.122h-1.338a.8.8,0,0,0,.137-.122,2.708,2.708,0,0,0,.325-.466.141.141,0,0,0,0-.137.137.137,0,0,0-.121-.067h-.1a.284.284,0,0,0-.186.075.227.227,0,0,1-.178.055c-.171,0-.312-.354-.332-.446a.9.9,0,0,1,.217-.4.139.139,0,0,0,.074-.046.178.178,0,0,1,.041-.008.225.225,0,0,1,.178.054.317.317,0,0,0,.14.074.144.144,0,0,0,.167-.14v-.04A.284.284,0,0,0,1041.9,2154.307Zm-2.312.174h0c.192,0,.315.252.317.255a.135.135,0,0,0,.115.081.15.15,0,0,0,.126-.061c.039-.057.077-.09.108-.09.106,0,.271.263.311.377l.01.023c.008.013.021.048-.1.389a.223.223,0,0,1-.058.1.307.307,0,0,1-.144-.113.134.134,0,0,0-.166-.047.136.136,0,0,0-.085.148.953.953,0,0,0,.408.559h-.456A4.964,4.964,0,0,0,1039.588,2154.48Zm-.345-.119v-3.54h.783v3.594a.569.569,0,0,0-.434-.216.608.608,0,0,0-.277.071A.17.17,0,0,0,1039.243,2154.361Zm.024.113a5.126,5.126,0,0,1,.481,2.623,3.428,3.428,0,0,0-.391.8,1.476,1.476,0,0,0-.114-.105v-3.365A.132.132,0,0,0,1039.267,2154.474Zm7.137-3.42v6.39h-.067a1.432,1.432,0,0,0-.567.119s0,0-.007,0c-.047.021-.1.046-.142.071v-6.814h.128A.894.894,0,0,1,1046.4,2151.053Zm-.654-.514h-2.507a.143.143,0,0,0-.142.141v3.588h-.008c-.03,0-.058,0-.084,0a.646.646,0,0,0,.013-.138c0-.425-.64-.616-.728-.616-.125,0-.728.207-.728.616a.651.651,0,0,0,.012.138c-.025,0-.054,0-.084,0h-.009v-3.588a.141.141,0,0,0-.14-.141h-2.508a1.252,1.252,0,0,0-.653.167v-2.018a1.25,1.25,0,0,0,.653.17h2.508a.139.139,0,0,0,.14-.138v-2.782a.141.141,0,0,0-.14-.143h-1.427a1.308,1.308,0,0,0-.673.175v-2.026a1.33,1.33,0,0,0,.673.172h1.427a.141.141,0,0,0,.14-.143v-2.41a2.219,2.219,0,0,0-.165-.794h1.95a2.24,2.24,0,0,0-.168.794v2.41a.142.142,0,0,0,.142.143h1.429a1.315,1.315,0,0,0,.669-.172v2.026a1.293,1.293,0,0,0-.669-.175h-1.429a.143.143,0,0,0-.142.143v2.782a.141.141,0,0,0,.142.138h2.507a1.248,1.248,0,0,0,.654-.17v2.018A1.25,1.25,0,0,0,1045.749,2150.539Zm.654-11.345v9.139a.873.873,0,0,1-.654.247h-.128v-9.386Zm-.465-7.211a.172.172,0,1,1,.173.175A.172.172,0,0,1,1045.939,2131.983Zm1.666,7.07a.141.141,0,0,0-.14-.141h-1.214v-6.5a.453.453,0,1,0-.281,0v1.774l-.652-2.012a.14.14,0,0,0-.1-.089.513.513,0,0,0-.035-1.025.53.53,0,0,0-.139.02l-.326-1.33a.178.178,0,0,0-.057-.084l-4.384-3.009a.148.148,0,0,0-.078-.022h-2.64a.816.816,0,0,0-.607-1.4l-.526-.8.632-.417.048,0a.618.618,0,1,0,0-1.236.636.636,0,0,0-.343.1.619.619,0,0,0-.277.5l-.524.348-.471-.711a.626.626,0,0,0-.087-.482.619.619,0,0,0-1.032.683.632.632,0,0,0,.418.269l.469.707-.531.352a.635.635,0,0,0-.567.061.619.619,0,0,0,.684,1.031.637.637,0,0,0,.246-.32l.632-.419.526.791a.822.822,0,0,0,.056.8,1,1,0,0,0,.108.128h-2.634a.16.16,0,0,0-.079.022l-4.38,3.009a.131.131,0,0,0-.057.084l-.327,1.33a.549.549,0,0,0-.14-.02.513.513,0,0,0-.036,1.025.146.146,0,0,0-.1.089l-.652,2.012v-1.774a.454.454,0,1,0-.281,0v6.5h-1.213a.141.141,0,0,0-.14.141c0,.157-.036,15.779-.036,17.392a9.354,9.354,0,0,0,5.15,8.464,17.936,17.936,0,0,0,3.739,1.439,15.515,15.515,0,0,1,1.7.569.173.173,0,0,0,.055.011.142.142,0,0,0,.058-.011,15.532,15.532,0,0,1,1.708-.569,17.989,17.989,0,0,0,3.737-1.439,9.35,9.35,0,0,0,5.147-8.464C1047.638,2154.832,1047.6,2139.21,1047.6,2139.053Z" transform="translate(-1026.343 -2122.272)" fill="#174895"/>
    </g>
    <g id="Group_37138" data-name="Group 37138" transform="translate(31.66 13.583)">
      <path id="Path_42391" data-name="Path 42391" d="M1141.6,2410.28h1.667v1.439H1141.6Zm-.142,1.721h1.95a.143.143,0,0,0,.14-.144v-1.72a.139.139,0,0,0-.14-.139h-1.95a.139.139,0,0,0-.142.139v1.72A.143.143,0,0,0,1141.455,2412Z" transform="translate(-1141.313 -2409.998)" fill="#174895"/>
    </g>
    <g id="Group_37139" data-name="Group 37139" transform="translate(29.631 13.583)">
      <path id="Path_42392" data-name="Path 42392" d="M1098.611,2410.538a.261.261,0,0,1,.261-.262h.462a.262.262,0,0,1,.262.262v.917a.264.264,0,0,1-.262.261h-.462a.262.262,0,0,1-.261-.261Zm.261,1.46h.462a.544.544,0,0,0,.542-.543v-.917a.544.544,0,0,0-.542-.544h-.462a.545.545,0,0,0-.542.544v.917A.546.546,0,0,0,1098.872,2412Z" transform="translate(-1098.33 -2409.994)" fill="#174895"/>
    </g>
    <g id="Group_37140" data-name="Group 37140" transform="translate(0 49.868)">
      <path id="Path_42393" data-name="Path 42393" d="M478.652,3184.48c.037.33.1.844.5.971a1.965,1.965,0,0,0,.6.083c.044,0,.072.008.072.044,0,.055-.08.083-.192.083-.2,0-1.192-.028-1.529-.054-.211-.018-.257-.045-.257-.091s.016-.055.065-.066.053-.166.036-.329l-.44-4.73h-.029l-2.246,4.764c-.192.405-.218.488-.3.488-.064,0-.109-.093-.282-.422-.241-.449-1.027-2.035-1.074-2.125-.08-.168-1.108-2.365-1.209-2.614h-.035l-.37,4.253c-.007.147-.007.312-.007.47a.29.29,0,0,0,.238.281,1.618,1.618,0,0,0,.349.047c.037,0,.073.017.073.044,0,.066-.055.083-.165.083-.34,0-.78-.028-.854-.028s-.52.028-.77.028c-.09,0-.154-.017-.154-.083,0-.027.044-.044.092-.044a1.185,1.185,0,0,0,.273-.027c.3-.057.331-.414.366-.761l.662-5.975c.009-.1.045-.165.1-.165s.091.035.136.137l2.806,5.764,2.694-5.755c.037-.082.072-.146.137-.146s.093.072.111.247Z" transform="translate(-470.663 -3178.606)" fill="#174895"/>
    </g>
    <g id="Group_37141" data-name="Group 37141" transform="translate(8.972 50.883)">
      <path id="Path_42394" data-name="Path 42394" d="M664.489,3203.655c.037,0,.037-.019.029-.055l-.8-2.136c-.045-.118-.093-.118-.138,0l-.751,2.136c-.008.037,0,.055.028.055Zm-.9-3.242c.1-.257.138-.307.192-.307.083,0,.109.112.192.285.148.332,1.44,3.548,1.934,4.731.293.7.512.8.687.852a1.109,1.109,0,0,0,.32.046c.046,0,.1.018.1.065s-.093.063-.186.063c-.118,0-.712,0-1.274-.019-.152-.008-.282-.008-.282-.053s.018-.037.054-.055a.149.149,0,0,0,.075-.211l-.726-1.787c-.018-.036-.027-.046-.075-.046h-1.858a.082.082,0,0,0-.081.065l-.459,1.246a1.608,1.608,0,0,0-.119.522c0,.155.137.211.275.211h.073c.065,0,.082.029.082.065s-.046.063-.117.063c-.193,0-.635-.027-.726-.027s-.484.027-.814.027c-.1,0-.156-.019-.156-.063a.07.07,0,0,1,.072-.065,1.94,1.94,0,0,0,.24-.02c.365-.045.522-.318.678-.712Z" transform="translate(-660.705 -3200.106)" fill="#174895"/>
    </g>
    <g id="Group_37142" data-name="Group 37142" transform="translate(15.018 50.922)">
      <path id="Path_42395" data-name="Path 42395" d="M793.5,3204.953c0-.633-.02-.723-.348-.789-.065-.008-.2-.017-.275-.017a.079.079,0,0,1-.065-.066c0-.056.036-.063.129-.063.365,0,.907.016.954.016s.539-.016.787-.016c.089,0,.128.007.128.063a.083.083,0,0,1-.064.066.978.978,0,0,0-.2.017c-.22.037-.286.156-.3.432-.009.248-.009.474-.009.807v.868c0,.359-.009.368-.111.424a4.565,4.565,0,0,1-4.372-.487,2.981,2.981,0,0,1-.962-2.218,2.914,2.914,0,0,1,1.348-2.556,4.054,4.054,0,0,1,2.145-.494,6.686,6.686,0,0,1,1.24.128,3.467,3.467,0,0,0,.648.081c.082,0,.1.037.1.075,0,.109-.044.321-.044,1.1,0,.126-.038.166-.091.166s-.056-.046-.056-.119a1.162,1.162,0,0,0-.182-.515,2.313,2.313,0,0,0-1.862-.6,2.555,2.555,0,0,0-1.685.506,2.413,2.413,0,0,0-.8,1.958,3.107,3.107,0,0,0,.852,2.155,2.885,2.885,0,0,0,2.062.816,2.048,2.048,0,0,0,.873-.148c.1-.053.164-.092.164-.237Z" transform="translate(-788.784 -3200.94)" fill="#174895"/>
    </g>
    <g id="Group_37143" data-name="Group 37143" transform="translate(21.317 51.031)">
      <path id="Path_42396" data-name="Path 42396" d="M924.76,3207.116a1.414,1.414,0,0,0-.173-.8c-.065-.12-1.155-1.85-1.433-2.263a1.969,1.969,0,0,0-.529-.567.83.83,0,0,0-.339-.111.078.078,0,0,1-.082-.072c0-.037.026-.055.1-.055.156,0,.762.018.8.018.052,0,.386-.018.7-.018.093,0,.109.018.109.055s-.054.055-.128.081-.1.066-.1.129a.636.636,0,0,0,.11.3l1.465,2.429c.167-.33,1.173-2,1.321-2.255a.859.859,0,0,0,.137-.4.183.183,0,0,0-.128-.2c-.074-.02-.121-.054-.121-.09s.047-.046.129-.046c.211,0,.5.018.56.018s.633-.018.788-.018c.057,0,.1.018.1.046a.094.094,0,0,1-.1.081.838.838,0,0,0-.374.1,1.386,1.386,0,0,0-.405.385c-.263.312-1.4,2.144-1.567,2.474a1.563,1.563,0,0,0-.1.78v.668c0,.13,0,.459.027.778.018.231.073.379.311.415a3.3,3.3,0,0,0,.369.036.063.063,0,0,1,.064.065c0,.036-.046.064-.129.064-.45,0-.972-.028-1.018-.028s-.55.028-.789.028c-.09,0-.128-.019-.128-.064a.062.062,0,0,1,.066-.065,1.086,1.086,0,0,0,.236-.036c.166-.036.222-.183.238-.415.019-.319.019-.648.019-.778Z" transform="translate(-922.205 -3203.248)" fill="#174895"/>
    </g>
    <g id="Group_37144" data-name="Group 37144" transform="translate(26.43 50.883)">
      <path id="Path_42397" data-name="Path 42397" d="M1034.3,3203.655c.037,0,.037-.019.03-.055l-.8-2.136c-.044-.118-.093-.118-.137,0l-.751,2.136c-.009.037,0,.055.027.055Zm-.9-3.242c.1-.257.138-.307.193-.307.083,0,.11.112.192.285.148.332,1.44,3.548,1.934,4.731.293.7.513.8.687.852a1.111,1.111,0,0,0,.32.046c.045,0,.1.018.1.065s-.093.063-.186.063c-.117,0-.711,0-1.271-.019-.154-.008-.284-.008-.284-.053s.018-.037.054-.055a.149.149,0,0,0,.075-.211l-.725-1.787c-.019-.036-.029-.046-.073-.046h-1.861c-.036,0-.063.018-.081.065l-.459,1.246a1.616,1.616,0,0,0-.119.522c0,.155.137.211.277.211h.071c.065,0,.084.029.084.065s-.045.063-.119.063c-.193,0-.635-.027-.723-.027s-.488.027-.817.027c-.1,0-.156-.019-.156-.063a.071.071,0,0,1,.074-.065,1.926,1.926,0,0,0,.238-.02c.364-.045.522-.318.68-.712Z" transform="translate(-1030.513 -3200.106)" fill="#174895"/>
    </g>
    <g id="Group_37145" data-name="Group 37145" transform="translate(33.295 51.031)">
      <path id="Path_42398" data-name="Path 42398" d="M1177.311,3206.147a.116.116,0,0,0,.054.1,2.693,2.693,0,0,0,.888.12,1.048,1.048,0,0,0,.6-.137,1.392,1.392,0,0,0,.486-1.194,1.344,1.344,0,0,0-1.392-1.53,3.822,3.822,0,0,0-.578.045.1.1,0,0,0-.063.091Zm-.7-.66c0-1.209,0-1.429-.019-1.678s-.064-.392-.329-.428a2.139,2.139,0,0,0-.274-.02.075.075,0,0,1-.066-.064c0-.046.036-.064.13-.064.367,0,.905.019.952.019.081,0,.759-.019,1.008-.019a2.633,2.633,0,0,1,1.5.339,1.368,1.368,0,0,1,.559,1.064,2.271,2.271,0,0,1-.989,1.779c.66.824,1.218,1.529,1.685,2.014a1.47,1.47,0,0,0,.9.541,1.409,1.409,0,0,0,.286.029.068.068,0,0,1,.072.064c0,.045-.046.064-.193.064h-.5a1.613,1.613,0,0,1-.86-.158,4.081,4.081,0,0,1-1.1-1.145c-.339-.422-.7-.926-.871-1.137a.125.125,0,0,0-.109-.046l-1.027-.016c-.035,0-.054.016-.054.063v.183c0,.752,0,1.357.035,1.677.028.23.074.375.321.413a3.237,3.237,0,0,0,.358.037.058.058,0,0,1,.066.064c0,.035-.039.064-.131.064-.438,0-.952-.029-.99-.029-.009,0-.547.029-.8.029-.083,0-.128-.019-.128-.064a.06.06,0,0,1,.063-.064,1.227,1.227,0,0,0,.248-.037c.155-.038.174-.183.211-.413a15.753,15.753,0,0,0,.046-1.687Z" transform="translate(-1175.926 -3203.232)" fill="#174895"/>
    </g>
    <g id="Group_37146" data-name="Group 37146" transform="translate(39.105 50.921)">
      <path id="Path_42399" data-name="Path 42399" d="M1302.386,3206.7c.723,0,2.18-.386,2.18-2.64,0-1.869-1.136-2.85-2.408-2.85a2.237,2.237,0,0,0-2.319,2.539C1299.839,3205.562,1300.929,3206.7,1302.386,3206.7Zm-.183-5.783a2.914,2.914,0,0,1,3.188,2.926,3.122,3.122,0,0,1-3.234,3.178,2.988,2.988,0,0,1-3.152-3.061A3.084,3.084,0,0,1,1302.2,3200.915Z" transform="translate(-1299.005 -3200.915)" fill="#174895"/>
    </g>
    <g id="Group_37147" data-name="Group 37147" transform="translate(46.427 51.031)">
      <path id="Path_42400" data-name="Path 42400" d="M1455.479,3206.147a.116.116,0,0,0,.055.1,2.7,2.7,0,0,0,.888.12,1.061,1.061,0,0,0,.607-.137,1.394,1.394,0,0,0,.483-1.194,1.344,1.344,0,0,0-1.392-1.53,3.779,3.779,0,0,0-.577.045.1.1,0,0,0-.064.091Zm-.7-.66c0-1.209,0-1.429-.018-1.678s-.065-.392-.331-.428a2.11,2.11,0,0,0-.274-.02.074.074,0,0,1-.062-.064c0-.046.035-.064.127-.064.366,0,.907.019.954.019.079,0,.758-.019,1.007-.019a2.631,2.631,0,0,1,1.5.339,1.371,1.371,0,0,1,.559,1.064,2.274,2.274,0,0,1-.989,1.779c.66.824,1.217,1.529,1.685,2.014a1.472,1.472,0,0,0,.9.541,1.416,1.416,0,0,0,.286.029.067.067,0,0,1,.071.064c0,.045-.046.064-.192.064h-.5a1.613,1.613,0,0,1-.861-.158,4.065,4.065,0,0,1-1.1-1.145c-.341-.422-.7-.926-.873-1.137a.123.123,0,0,0-.107-.046l-1.028-.016c-.035,0-.055.016-.055.063v.183c0,.752,0,1.357.035,1.677.029.23.074.375.321.413a3.19,3.19,0,0,0,.359.037.057.057,0,0,1,.064.064c0,.035-.038.064-.128.064-.439,0-.952-.029-.99-.029-.009,0-.549.029-.8.029-.084,0-.129-.019-.129-.064a.061.061,0,0,1,.064-.064,1.2,1.2,0,0,0,.247-.037c.156-.038.174-.183.211-.413a15.753,15.753,0,0,0,.046-1.687Z" transform="translate(-1454.097 -3203.232)" fill="#174895"/>
    </g>
    <g id="Group_37148" data-name="Group 37148" transform="translate(52.893 50.912)">
      <path id="Path_42401" data-name="Path 42401" d="M1591.192,3206.628c-.111-.054-.12-.083-.12-.292,0-.385.036-.7.046-.826,0-.082.018-.129.064-.129s.073.03.073.093a1.118,1.118,0,0,0,.029.285,1.184,1.184,0,0,0,1.274.769c.8,0,1.21-.447,1.21-1.034,0-.56-.3-.824-1.017-1.356l-.369-.276c-.868-.652-1.154-1.127-1.154-1.668,0-.918.723-1.466,1.787-1.466a3.749,3.749,0,0,1,.835.093,1.051,1.051,0,0,0,.283.036c.065,0,.082.008.082.055a8.179,8.179,0,0,0-.037.824c0,.118-.007.176-.064.176s-.065-.039-.072-.1a1.445,1.445,0,0,0-.12-.386c-.055-.09-.321-.384-1.043-.384-.587,0-1.074.294-1.074.844,0,.493.248.779,1.045,1.317l.23.157c.979.671,1.318,1.21,1.318,1.878a1.512,1.512,0,0,1-.75,1.327,2.467,2.467,0,0,1-1.282.276A2.954,2.954,0,0,1,1591.192,3206.628Z" transform="translate(-1591.072 -3200.728)" fill="#174895"/>
    </g>
    <g id="Group_37149" data-name="Group 37149" transform="translate(57.251 50.975)">
      <path id="Path_42402" data-name="Path 42402" d="M1686.48,3207.64c.853,0,1.071-.14,1.255-.358a1.324,1.324,0,0,0,.167-.422c.017-.074.044-.119.09-.119s.063.029.063.174a4.37,4.37,0,0,1-.163.9c-.046.192-.055.2-.238.2-1.349,0-2.714-.037-4.125-.037-.092,0-.149-.008-.149-.063,0-.039.009-.093.113-.24,1.209-1.749,2.4-3.481,3.509-5.213H1685.3a2.867,2.867,0,0,0-1.146.128.882.882,0,0,0-.457.612c-.02.119-.065.139-.11.139s-.045-.038-.045-.1c0-.092.119-.8.166-1.037.009-.111.026-.148.071-.148a2.822,2.822,0,0,0,.34.055c.77.029,1.155.02,1.411.02h2.255c.12,0,.164.017.164.065a.234.234,0,0,1-.044.137c-1.175,1.8-2.348,3.537-3.567,5.307Z" transform="translate(-1683.38 -3202.057)" fill="#174895"/>
    </g>
    <g id="Group_37150" data-name="Group 37150" transform="translate(62.278 49.317)">
      <path id="Path_42403" data-name="Path 42403" d="M1794.381,3167.425c.044.084,0,.11-.037.11a1.288,1.288,0,0,0-.276,0,6.016,6.016,0,0,0-1.393.383.487.487,0,0,1-.137.049.054.054,0,0,1-.047-.058c0-.026.018-.043.065-.071.33-.23,1.182-.743,1.247-.778.156-.093.212-.121.256-.121s.045.019.093.082C1794.217,3167.115,1794.281,3167.242,1794.381,3167.425Zm-.715,4.63c.037,0,.037-.02.028-.057l-.8-2.136c-.044-.117-.09-.117-.137,0l-.752,2.136c-.008.037,0,.057.031.057Zm-.9-3.246c.1-.258.136-.3.191-.3.082,0,.11.11.192.285.148.331,1.44,3.545,1.934,4.729.293.7.513.8.687.852a1.141,1.141,0,0,0,.32.045c.048,0,.1.018.1.065s-.092.064-.183.064c-.12,0-.714,0-1.275-.019-.156-.009-.284-.009-.284-.053s.019-.038.057-.057a.148.148,0,0,0,.072-.211l-.724-1.787c-.019-.036-.027-.044-.072-.044h-1.862a.079.079,0,0,0-.079.064l-.46,1.245a1.588,1.588,0,0,0-.12.523c0,.155.136.211.275.211h.073c.064,0,.083.027.083.065s-.044.064-.12.064c-.191,0-.633-.028-.723-.028s-.484.028-.816.028c-.1,0-.156-.019-.156-.064a.071.071,0,0,1,.073-.065,2.28,2.28,0,0,0,.24-.019c.366-.046.523-.32.679-.715Z" transform="translate(-1789.881 -3166.94)" fill="#174895"/>
    </g>
    <g id="Group_37151" data-name="Group 37151" transform="translate(68.189 50.922)">
      <path id="Path_42404" data-name="Path 42404" d="M1919.791,3204.953c0-.633-.019-.723-.349-.789-.063-.008-.2-.017-.272-.017a.079.079,0,0,1-.065-.066c0-.056.036-.063.129-.063.365,0,.907.016.954.016s.539-.016.787-.016c.09,0,.129.007.129.063a.083.083,0,0,1-.064.066.973.973,0,0,0-.2.017c-.22.037-.286.156-.3.432-.008.248-.008.474-.008.807v.868c0,.359-.009.368-.111.424a4.565,4.565,0,0,1-4.372-.487,2.981,2.981,0,0,1-.962-2.218,2.914,2.914,0,0,1,1.348-2.556,4.054,4.054,0,0,1,2.145-.494,6.689,6.689,0,0,1,1.24.128,3.462,3.462,0,0,0,.648.081c.082,0,.1.037.1.075,0,.109-.044.321-.044,1.1,0,.126-.038.166-.093.166s-.055-.046-.055-.119a1.173,1.173,0,0,0-.182-.515,2.314,2.314,0,0,0-1.862-.6,2.555,2.555,0,0,0-1.685.506,2.413,2.413,0,0,0-.8,1.958,3.1,3.1,0,0,0,.852,2.155,2.884,2.884,0,0,0,2.061.816,2.051,2.051,0,0,0,.873-.148c.1-.053.163-.092.163-.237Z" transform="translate(-1915.08 -3200.94)" fill="#174895"/>
    </g>
    <g id="Group_37152" data-name="Group 37152" transform="translate(10.757 59.731)">
      <path id="Path_42405" data-name="Path 42405" d="M699.314,3390.185c0-1.431,0-1.687-.019-1.979-.017-.312-.09-.457-.394-.523a1.69,1.69,0,0,0-.311-.028c-.035,0-.073-.016-.073-.055s.046-.073.147-.073c.412,0,.952.028,1.006.028.084,0,.616-.028.89-.028.1,0,.147.02.147.073s-.037.055-.075.055a1.362,1.362,0,0,0-.227.028c-.248.045-.321.2-.34.523-.016.292-.016.548-.016,1.979v.55h.036c.156-.175,1.815-1.86,2.146-2.216.256-.267.493-.5.493-.662a.181.181,0,0,0-.118-.192c-.047-.017-.083-.036-.083-.073s.045-.065.111-.065c.182,0,.466.028.688.028.045,0,.647-.028.879-.028.1,0,.137.02.137.065s-.018.064-.09.064a1.377,1.377,0,0,0-.514.129,3.393,3.393,0,0,0-.989.789c-.232.219-1.823,1.776-2.018,2.008.24.264,2.145,2.235,2.521,2.583a4.243,4.243,0,0,0,1.366,1.044,1.661,1.661,0,0,0,.568.119c.064,0,.118.019.118.056s-.046.071-.2.071h-.468c-.257,0-.43,0-.632-.015a1.9,1.9,0,0,1-1.11-.562c-.411-.337-2.354-2.438-2.794-2.976h-.045v.9c0,.881,0,1.605.045,1.99.027.265.083.468.356.5a2.96,2.96,0,0,0,.358.036c.058,0,.074.028.074.056,0,.046-.046.071-.147.071-.447,0-.979-.026-1.054-.026s-.6.026-.879.026c-.1,0-.147-.015-.147-.071,0-.029.019-.056.074-.056a1.323,1.323,0,0,0,.274-.036c.183-.036.229-.239.266-.5.046-.384.046-1.109.046-1.99Z" transform="translate(-698.517 -3387.527)" fill="#174895"/>
    </g>
    <g id="Group_37153" data-name="Group 37153" transform="translate(17.256 60.657)">
      <path id="Path_42406" data-name="Path 42406" d="M839.56,3412.935c.723,0,2.18-.386,2.18-2.639,0-1.87-1.136-2.851-2.408-2.851a2.237,2.237,0,0,0-2.319,2.539C837.013,3411.8,838.1,3412.935,839.56,3412.935Zm-.184-5.783a2.915,2.915,0,0,1,3.19,2.924,3.123,3.123,0,0,1-3.234,3.18,2.988,2.988,0,0,1-3.152-3.061A3.083,3.083,0,0,1,839.376,3407.152Z" transform="translate(-836.18 -3407.152)" fill="#174895"/>
    </g>
    <g id="Group_37154" data-name="Group 37154" transform="translate(24.578 60.767)">
      <path id="Path_42407" data-name="Path 42407" d="M992.676,3412.385a.116.116,0,0,0,.055.1,2.692,2.692,0,0,0,.888.121,1.062,1.062,0,0,0,.607-.137,1.4,1.4,0,0,0,.484-1.193,1.345,1.345,0,0,0-1.392-1.53,3.5,3.5,0,0,0-.578.045.1.1,0,0,0-.063.09Zm-.7-.661c0-1.207,0-1.428-.019-1.677s-.063-.392-.329-.428a2.111,2.111,0,0,0-.274-.021.074.074,0,0,1-.064-.064c0-.045.035-.065.128-.065.366,0,.9.019.954.019.079,0,.758-.019,1.006-.019a2.636,2.636,0,0,1,1.5.339,1.372,1.372,0,0,1,.559,1.064,2.273,2.273,0,0,1-.99,1.779c.659.824,1.218,1.529,1.686,2.014a1.483,1.483,0,0,0,.9.541,1.439,1.439,0,0,0,.286.029.068.068,0,0,1,.071.065c0,.043-.046.063-.192.063h-.5a1.618,1.618,0,0,1-.86-.156,4.078,4.078,0,0,1-1.1-1.145c-.34-.422-.7-.926-.871-1.138a.121.121,0,0,0-.109-.047l-1.026-.015c-.035,0-.055.015-.055.062v.184c0,.752,0,1.357.035,1.677.028.23.074.375.321.413a3.145,3.145,0,0,0,.357.037.058.058,0,0,1,.066.065c0,.035-.039.063-.13.063-.438,0-.951-.027-.991-.027-.009,0-.547.027-.794.027-.084,0-.129-.019-.129-.062a.061.061,0,0,1,.063-.065,1.209,1.209,0,0,0,.248-.037c.156-.038.174-.183.211-.413a16.089,16.089,0,0,0,.045-1.687Z" transform="translate(-991.292 -3409.469)" fill="#174895"/>
    </g>
    <g id="Group_37155" data-name="Group 37155" transform="translate(30.931 60.658)">
      <path id="Path_42408" data-name="Path 42408" d="M1132.924,3412.154c.028.277.083.7.413.806a1.711,1.711,0,0,0,.521.073c.038,0,.066.02.066.056s-.073.073-.166.073c-.182,0-1.08-.016-1.374-.043-.193-.02-.229-.046-.229-.086a.068.068,0,0,1,.055-.062c.045-.01.055-.128.037-.274l-.386-3.942h-.018l-1.943,3.978c-.165.34-.213.413-.284.413s-.12-.073-.275-.359c-.212-.384-.744-1.382-.943-1.805-.239-.493-.891-1.8-1.027-2.125h-.039l-.31,3.521c-.01.117-.01.264-.01.393a.217.217,0,0,0,.193.219,1.206,1.206,0,0,0,.311.045c.028,0,.066.029.066.056,0,.057-.055.073-.148.073-.3,0-.686-.026-.751-.026s-.459.026-.677.026c-.083,0-.139-.016-.139-.073,0-.027.038-.056.084-.056a1.491,1.491,0,0,0,.235-.025c.266-.048.277-.331.313-.624l.586-5.085c.01-.084.045-.138.093-.138a.181.181,0,0,1,.164.12l2.438,4.839,2.346-4.83c.038-.075.074-.129.128-.129s.1.065.122.211Z" transform="translate(-1125.868 -3407.16)" fill="#174895"/>
    </g>
    <g id="Group_37156" data-name="Group 37156" transform="translate(39.273 59.055)">
      <path id="Path_42409" data-name="Path 42409" d="M1307.058,3373.682c.044.084,0,.111-.037.111a1.219,1.219,0,0,0-.276,0,5.847,5.847,0,0,0-1.391.384.572.572,0,0,1-.139.047.054.054,0,0,1-.047-.056c0-.028.02-.045.066-.071.329-.23,1.181-.745,1.246-.78.156-.092.212-.119.256-.119s.045.017.092.08C1306.893,3373.371,1306.957,3373.5,1307.058,3373.682Zm-.715,4.63c.037,0,.037-.018.028-.056l-.8-2.135c-.044-.118-.091-.118-.136,0l-.753,2.135c-.008.038,0,.056.031.056Zm-.9-3.244c.1-.257.137-.3.191-.3.084,0,.11.109.192.284.148.332,1.44,3.547,1.935,4.729.292.7.514.8.688.852a1.061,1.061,0,0,0,.32.046c.047,0,.1.019.1.064s-.094.064-.184.064c-.12,0-.714,0-1.275-.019-.156-.009-.284-.009-.284-.053s.02-.037.057-.056a.147.147,0,0,0,.072-.211l-.724-1.787c-.018-.037-.026-.045-.073-.045H1304.6a.082.082,0,0,0-.079.065l-.46,1.243a1.591,1.591,0,0,0-.119.524c0,.156.136.211.274.211h.073c.064,0,.083.028.083.064s-.045.064-.119.064c-.192,0-.634-.028-.725-.028s-.482.028-.815.028c-.1,0-.154-.019-.154-.064a.07.07,0,0,1,.071-.064,2.074,2.074,0,0,0,.24-.018c.367-.045.523-.32.679-.716Z" transform="translate(-1302.559 -3373.198)" fill="#174895"/>
    </g>
    <g id="Group_37157" data-name="Group 37157" transform="translate(46.134 60.657)">
      <path id="Path_42410" data-name="Path 42410" d="M1449.03,3412.083c.018.642.092.835.311.888a1.767,1.767,0,0,0,.4.046.064.064,0,0,1,.066.066c0,.046-.055.063-.148.063-.458,0-.779-.025-.852-.025s-.41.025-.778.025c-.083,0-.13-.008-.13-.063a.065.065,0,0,1,.066-.066,1.159,1.159,0,0,0,.328-.046c.2-.052.23-.264.23-.969v-4.463c0-.31.045-.395.109-.395.092,0,.229.156.311.237.129.13,1.3,1.377,2.549,2.658.8.824,1.659,1.751,1.906,2.008l-.083-3.905c-.008-.5-.056-.678-.3-.722a2.3,2.3,0,0,0-.394-.039.063.063,0,0,1-.065-.072c0-.046.065-.055.157-.055.365,0,.749.019.841.019s.359-.019.687-.019c.082,0,.147.01.147.055a.089.089,0,0,1-.092.072.836.836,0,0,0-.191.02c-.267.055-.286.211-.286.676l-.016,4.566c0,.511-.009.561-.065.561-.082,0-.167-.066-.614-.478-.084-.074-1.246-1.218-2.1-2.108-.934-.981-1.84-1.932-2.089-2.208Z" transform="translate(-1447.901 -3407.145)" fill="#174895"/>
    </g>
    <g id="Group_37158" data-name="Group 37158" transform="translate(53.193 60.766)">
      <path id="Path_42411" data-name="Path 42411" d="M1599.973,3413.33a1.415,1.415,0,0,0-.173-.8c-.065-.12-1.155-1.851-1.433-2.264a1.962,1.962,0,0,0-.53-.567.777.777,0,0,0-.338-.111.079.079,0,0,1-.082-.073c0-.036.025-.055.1-.055.156,0,.762.02.8.02s.385-.02.7-.02c.091,0,.108.02.108.055s-.052.056-.126.083a.134.134,0,0,0-.1.128.646.646,0,0,0,.11.3l1.466,2.428c.167-.329,1.173-2,1.32-2.254a.848.848,0,0,0,.138-.4.18.18,0,0,0-.127-.2c-.074-.02-.121-.055-.121-.092s.047-.046.129-.046c.211,0,.5.02.56.02s.632-.02.787-.02c.057,0,.1.02.1.046a.093.093,0,0,1-.1.083.821.821,0,0,0-.374.1,1.377,1.377,0,0,0-.406.385c-.263.312-1.4,2.144-1.567,2.475a1.559,1.559,0,0,0-.1.779V3414c0,.129,0,.459.029.778.019.232.072.377.311.415a3.3,3.3,0,0,0,.367.036.063.063,0,0,1,.065.065c0,.036-.046.062-.129.062-.449,0-.972-.025-1.016-.025s-.551.025-.791.025c-.09,0-.126-.016-.126-.062a.062.062,0,0,1,.066-.065,1.117,1.117,0,0,0,.235-.036c.165-.038.222-.183.238-.415.02-.319.02-.648.02-.778Z" transform="translate(-1597.418 -3409.461)" fill="#174895"/>
    </g>
    <g id="Group_37159" data-name="Group 37159" transform="translate(58.305 60.619)">
      <path id="Path_42412" data-name="Path 42412" d="M1709.489,3409.892c.037,0,.037-.02.029-.055l-.8-2.136c-.044-.118-.091-.118-.137,0l-.751,2.136c-.008.035,0,.055.028.055Zm-.9-3.243c.1-.258.138-.306.191-.306.084,0,.11.113.193.285.148.332,1.438,3.548,1.934,4.729.293.7.513.8.688.852a1.116,1.116,0,0,0,.319.046c.047,0,.1.019.1.064s-.094.065-.186.065c-.118,0-.712,0-1.273-.02-.154-.008-.282-.008-.282-.053s.019-.037.054-.056a.148.148,0,0,0,.074-.21l-.725-1.787c-.019-.037-.027-.045-.075-.045h-1.858a.085.085,0,0,0-.082.064l-.458,1.246a1.627,1.627,0,0,0-.119.523c0,.155.137.21.274.21h.073c.065,0,.082.028.082.064s-.046.065-.117.065c-.193,0-.636-.028-.726-.028s-.485.028-.814.028c-.1,0-.156-.02-.156-.065a.07.07,0,0,1,.072-.064,2.267,2.267,0,0,0,.24-.019c.365-.046.521-.319.678-.714Z" transform="translate(-1705.705 -3406.344)" fill="#174895"/>
    </g>
    <g id="Group_37160" data-name="Group 37160" transform="translate(96.461 0.015)">
      <rect id="Rectangle_15693" data-name="Rectangle 15693" width="66.506" height="44.453" transform="translate(0)" fill="#174895"/>
    </g>
    <g id="Group_37161" data-name="Group 37161" transform="translate(127.311 4.78)">
      <path id="Path_42413" data-name="Path 42413" d="M3169.9,2227.073l-1.5,1.03.575-1.691-1.541-1.091h1.915l.608-1.789.559,1.789h1.905l-1.567,1.1.519,1.7Z" transform="translate(-3167.428 -2223.531)" fill="#ffcb27"/>
    </g>
    <g id="Group_37162" data-name="Group 37162" transform="translate(127.311 35.16)">
      <path id="Path_42414" data-name="Path 42414" d="M3169.9,2870.6l-1.5,1.033.575-1.692-1.541-1.093h1.915l.608-1.792.559,1.792h1.905l-1.567,1.095.519,1.7Z" transform="translate(-3167.428 -2867.057)" fill="#ffcb27"/>
    </g>
    <g id="Group_37163" data-name="Group 37163" transform="translate(112.158 19.949)">
      <path id="Path_42415" data-name="Path 42415" d="M2848.937,2548.377l-1.5,1.032.575-1.691-1.544-1.094h1.918l.608-1.79.557,1.79h1.906l-1.564,1.1.515,1.7Z" transform="translate(-2846.464 -2544.835)" fill="#ffcb27"/>
    </g>
    <g id="Group_37164" data-name="Group 37164" transform="translate(114.315 12.211)">
      <path id="Path_42416" data-name="Path 42416" d="M2894.627,2384.47l-1.505,1.031.577-1.691-1.543-1.091h1.916l.608-1.792.556,1.792h1.908l-1.567,1.095.517,1.7Z" transform="translate(-2892.156 -2380.927)" fill="#ffcb27"/>
    </g>
    <g id="Group_37165" data-name="Group 37165" transform="translate(119.669 6.769)">
      <path id="Path_42417" data-name="Path 42417" d="M3008.035,2269.189l-1.5,1.033.576-1.693-1.543-1.091h1.918l.6-1.791.558,1.791h1.91l-1.567,1.095.519,1.7Z" transform="translate(-3005.565 -2265.647)" fill="#ffcb27"/>
    </g>
    <g id="Group_37166" data-name="Group 37166" transform="translate(134.689 6.769)">
      <path id="Path_42418" data-name="Path 42418" d="M3326.189,2269.189l-1.5,1.033.576-1.693-1.543-1.091h1.917l.6-1.791.558,1.791h1.91l-1.567,1.095.515,1.7Z" transform="translate(-3323.719 -2265.647)" fill="#ffcb27"/>
    </g>
    <g id="Group_37167" data-name="Group 37167" transform="translate(140.174 12.211)">
      <path id="Path_42419" data-name="Path 42419" d="M3442.388,2384.47l-1.505,1.031.577-1.691-1.545-1.091h1.917l.608-1.792.558,1.792h1.908l-1.567,1.095.516,1.7Z" transform="translate(-3439.915 -2380.927)" fill="#ffcb27"/>
    </g>
    <g id="Group_37168" data-name="Group 37168" transform="translate(114.25 27.49)">
      <path id="Path_42420" data-name="Path 42420" d="M2893.244,2708.115l-1.505,1.034.575-1.7-1.541-1.09h1.914l.609-1.792.559,1.792h1.905l-1.567,1.094.519,1.7Z" transform="translate(-2890.773 -2704.573)" fill="#ffcb27"/>
    </g>
    <g id="Group_37169" data-name="Group 37169" transform="translate(119.605 33.13)">
      <path id="Path_42421" data-name="Path 42421" d="M3006.671,2827.588l-1.5,1.034.575-1.693-1.541-1.092h1.915l.608-1.789.557,1.789h1.909l-1.57,1.1.518,1.7Z" transform="translate(-3004.202 -2824.048)" fill="#ffcb27"/>
    </g>
    <g id="Group_37170" data-name="Group 37170" transform="translate(134.822 33.13)">
      <path id="Path_42422" data-name="Path 42422" d="M3329,2827.588l-1.507,1.034.577-1.693-1.541-1.092h1.913l.61-1.789.559,1.789h1.905l-1.567,1.1.518,1.7Z" transform="translate(-3326.531 -2824.048)" fill="#ffcb27"/>
    </g>
    <g id="Group_37171" data-name="Group 37171" transform="translate(140.242 27.49)">
      <path id="Path_42423" data-name="Path 42423" d="M3443.813,2708.115l-1.5,1.034.575-1.7-1.542-1.09h1.914l.608-1.792.557,1.792h1.907l-1.565,1.094.515,1.7Z" transform="translate(-3441.344 -2704.573)" fill="#ffcb27"/>
    </g>
    <g id="Group_37172" data-name="Group 37172" transform="translate(142.265 19.949)">
      <path id="Path_42424" data-name="Path 42424" d="M3486.669,2548.377l-1.5,1.032.576-1.691-1.543-1.094h1.917l.606-1.79.558,1.79h1.909l-1.571,1.1.518,1.7Z" transform="translate(-3484.198 -2544.835)" fill="#ffcb27"/>
    </g>
    <g id="Group_37173" data-name="Group 37173" transform="translate(96.455 50.977)">
      <path id="Path_42425" data-name="Path 42425" d="M2515.543,3205.591h2.016l-.62-1.648q-.284-.75-.422-1.233a7.516,7.516,0,0,1-.321,1.137Zm-1.716,2.443,2.284-5.949h.848l2.435,5.949h-.9l-.694-1.8h-2.488l-.652,1.8Z" transform="translate(-2513.827 -3202.085)" fill="#174895"/>
    </g>
    <g id="Group_37174" data-name="Group 37174" transform="translate(102.949 52.615)">
      <path id="Path_42426" data-name="Path 42426" d="M2651.394,3241.112v-.592l2.744-3.15c-.312.016-.585.025-.824.025h-1.757v-.593h3.523v.483l-2.334,2.735-.449.5c.327-.025.634-.037.921-.037h1.993v.629Z" transform="translate(-2651.394 -3236.802)" fill="#174895"/>
    </g>
    <g id="Group_37175" data-name="Group 37175" transform="translate(110.94 50.977)">
      <path id="Path_42427" data-name="Path 42427" d="M2820.665,3208.034v-5.949h4.3v.7h-3.514v1.822h3.291v.7h-3.291v2.024h3.651v.7Z" transform="translate(-2820.665 -3202.085)" fill="#174895"/>
    </g>
    <g id="Group_37176" data-name="Group 37176" transform="translate(116.681 52.615)">
      <path id="Path_42428" data-name="Path 42428" d="M2945.1,3241.112v-.633a1.577,1.577,0,0,1-1.367.73,1.73,1.73,0,0,1-.712-.146,1.177,1.177,0,0,1-.492-.367,1.385,1.385,0,0,1-.225-.542,3.815,3.815,0,0,1-.044-.682v-2.67h.73v2.391a4.256,4.256,0,0,0,.044.771.767.767,0,0,0,.292.452.9.9,0,0,0,.553.164,1.19,1.19,0,0,0,.616-.169.927.927,0,0,0,.408-.458,2.29,2.29,0,0,0,.12-.842v-2.31h.729v4.31Z" transform="translate(-2942.261 -3236.802)" fill="#174895"/>
    </g>
    <g id="Group_37177" data-name="Group 37177" transform="translate(121.75 52.518)">
      <path id="Path_42429" data-name="Path 42429" d="M3049.631,3239.139v-4.309h.657v.653a1.8,1.8,0,0,1,.464-.6.82.82,0,0,1,.469-.146,1.428,1.428,0,0,1,.75.236l-.252.678a1.047,1.047,0,0,0-.535-.158.7.7,0,0,0-.43.144.783.783,0,0,0-.271.4,2.839,2.839,0,0,0-.123.852v2.256Z" transform="translate(-3049.631 -3234.731)" fill="#174895"/>
    </g>
    <g id="Group_37178" data-name="Group 37178" transform="translate(124.731 50.944)">
      <path id="Path_42430" data-name="Path 42430" d="M3114.4,3202.525l.539-1.135h.958l-.892,1.135Zm-.865,2.691a1.832,1.832,0,0,0,.362,1.24,1.2,1.2,0,0,0,1.814,0,1.872,1.872,0,0,0,.362-1.262,1.778,1.778,0,0,0-.364-1.212,1.2,1.2,0,0,0-1.812,0A1.821,1.821,0,0,0,3113.531,3205.216Zm-.75,0a2.221,2.221,0,0,1,.666-1.773,2.008,2.008,0,0,1,1.356-.479,1.931,1.931,0,0,1,1.452.583,2.216,2.216,0,0,1,.563,1.609,2.855,2.855,0,0,1-.249,1.308,1.756,1.756,0,0,1-.727.742,2.111,2.111,0,0,1-1.04.263,1.937,1.937,0,0,1-1.463-.58A2.315,2.315,0,0,1,3112.781,3205.216Z" transform="translate(-3112.781 -3201.39)" fill="#174895"/>
    </g>
    <g id="Group_37179" data-name="Group 37179" transform="translate(130.11 52.517)">
      <path id="Path_42431" data-name="Path 42431" d="M3227.386,3237a1.866,1.866,0,0,0,.336,1.228,1.032,1.032,0,0,0,.816.4,1.057,1.057,0,0,0,.833-.411,1.962,1.962,0,0,0,.347-1.278,1.9,1.9,0,0,0-.339-1.233,1.021,1.021,0,0,0-.81-.409,1.05,1.05,0,0,0-.825.436A1.948,1.948,0,0,0,3227.386,3237Zm-.663,3.782v-5.963h.666v.561a1.645,1.645,0,0,1,.533-.493,1.45,1.45,0,0,1,.718-.166,1.706,1.706,0,0,1,.974.285,1.739,1.739,0,0,1,.636.8,3.11,3.11,0,0,1-.021,2.326,1.8,1.8,0,0,1-1.642,1.093,1.388,1.388,0,0,1-.655-.153,1.5,1.5,0,0,1-.477-.39v2.1Z" transform="translate(-3226.723 -3234.723)" fill="#174895"/>
    </g>
    <g id="Group_37180" data-name="Group 37180" transform="translate(134.933 52.517)">
      <path id="Path_42432" data-name="Path 42432" d="M3331.884,3236.964a5.356,5.356,0,0,1-1.192.277,2.741,2.741,0,0,0-.638.146.638.638,0,0,0-.288.237.646.646,0,0,0,.12.834.952.952,0,0,0,.648.2,1.51,1.51,0,0,0,.75-.185,1.141,1.141,0,0,0,.483-.505,1.786,1.786,0,0,0,.116-.731Zm.062,1.632a2.714,2.714,0,0,1-.781.488,2.28,2.28,0,0,1-.806.141,1.564,1.564,0,0,1-1.093-.347,1.141,1.141,0,0,1-.381-.886,1.171,1.171,0,0,1,.144-.577,1.189,1.189,0,0,1,.376-.421,1.79,1.79,0,0,1,.526-.24,5.457,5.457,0,0,1,.649-.11,6.671,6.671,0,0,0,1.3-.251c0-.1.005-.164.005-.19a.807.807,0,0,0-.208-.63,1.223,1.223,0,0,0-.831-.248,1.286,1.286,0,0,0-.761.181,1.113,1.113,0,0,0-.365.64l-.712-.1a1.744,1.744,0,0,1,.321-.739,1.39,1.39,0,0,1,.644-.434,2.877,2.877,0,0,1,.98-.154,2.594,2.594,0,0,1,.9.131,1.188,1.188,0,0,1,.506.327,1.134,1.134,0,0,1,.228.5,4.206,4.206,0,0,1,.036.672v.976a9.8,9.8,0,0,0,.049,1.289,1.607,1.607,0,0,0,.183.516h-.762A1.5,1.5,0,0,1,3331.946,3238.6Z" transform="translate(-3328.886 -3234.719)" fill="#174895"/>
    </g>
    <g id="Group_37181" data-name="Group 37181" transform="translate(140.246 50.976)">
      <path id="Path_42433" data-name="Path 42433" d="M3441.427,3203.716h.73v4.31h-.73Zm0-1.639h.73v.84h-.73Z" transform="translate(-3441.427 -3202.077)" fill="#174895"/>
    </g>
    <g id="Group_37182" data-name="Group 37182" transform="translate(145.532 50.976)">
      <path id="Path_42434" data-name="Path 42434" d="M3557.3,3202.082h.788v3.438a4.054,4.054,0,0,1-.2,1.425,1.731,1.731,0,0,1-.733.858,2.592,2.592,0,0,1-1.389.33,2.857,2.857,0,0,1-1.368-.288,1.64,1.64,0,0,1-.759-.834,3.967,3.967,0,0,1-.227-1.49v-3.437h.787v3.433a3.315,3.315,0,0,0,.146,1.142,1.088,1.088,0,0,0,.495.567,1.719,1.719,0,0,0,.858.2,1.65,1.65,0,0,0,1.239-.393,2.276,2.276,0,0,0,.368-1.515Z" transform="translate(-3553.407 -3202.082)" fill="#174895"/>
    </g>
    <g id="Group_37183" data-name="Group 37183" transform="translate(151.898 52.518)">
      <path id="Path_42435" data-name="Path 42435" d="M3688.261,3239.139v-4.309h.657v.613a1.552,1.552,0,0,1,1.373-.711,1.793,1.793,0,0,1,.716.141,1.129,1.129,0,0,1,.49.366,1.431,1.431,0,0,1,.226.54,4.08,4.08,0,0,1,.041.71v2.65h-.731v-2.621a1.974,1.974,0,0,0-.085-.668.692.692,0,0,0-.3-.353.95.95,0,0,0-.509-.132,1.189,1.189,0,0,0-.806.3,1.465,1.465,0,0,0-.338,1.124v2.354Z" transform="translate(-3688.261 -3234.731)" fill="#174895"/>
    </g>
    <g id="Group_37184" data-name="Group 37184" transform="translate(156.962 50.976)">
      <path id="Path_42436" data-name="Path 42436" d="M3795.528,3203.716h.73v4.31h-.73Zm0-1.639h.73v.84h-.73Z" transform="translate(-3795.528 -3202.077)" fill="#174895"/>
    </g>
    <g id="Group_37185" data-name="Group 37185" transform="translate(159.03 50.944)">
      <path id="Path_42437" data-name="Path 42437" d="M3840.938,3202.525l.54-1.135h.958l-.893,1.135Zm-.864,2.691a1.83,1.83,0,0,0,.362,1.24,1.2,1.2,0,0,0,1.813,0,1.875,1.875,0,0,0,.362-1.262,1.781,1.781,0,0,0-.363-1.212,1.2,1.2,0,0,0-1.812,0A1.818,1.818,0,0,0,3840.074,3205.216Zm-.75,0a2.22,2.22,0,0,1,.665-1.773,2.007,2.007,0,0,1,1.356-.479,1.932,1.932,0,0,1,1.452.583,2.215,2.215,0,0,1,.563,1.609,2.851,2.851,0,0,1-.249,1.308,1.761,1.761,0,0,1-.727.742,2.1,2.1,0,0,1-1.039.263,1.937,1.937,0,0,1-1.464-.58A2.317,2.317,0,0,1,3839.324,3205.216Z" transform="translate(-3839.324 -3201.39)" fill="#174895"/>
    </g>
    <g id="Group_37186" data-name="Group 37186" transform="translate(85.317 60.9)">
      <path id="Path_42438" data-name="Path 42438" d="M2279.886,3417.452l.1.646a2.7,2.7,0,0,1-.552.063,1.259,1.259,0,0,1-.617-.125.7.7,0,0,1-.309-.33,2.611,2.611,0,0,1-.089-.862v-2.48h-.535v-.568h.535v-1.068l.726-.438v1.506h.736v.568h-.736v2.521a1.271,1.271,0,0,0,.039.4.319.319,0,0,0,.125.142.493.493,0,0,0,.25.052A2.269,2.269,0,0,0,2279.886,3417.452Z" transform="translate(-2277.889 -3412.29)" fill="#174895"/>
    </g>
    <g id="Group_37187" data-name="Group 37187" transform="translate(88.447 60.734)">
      <path id="Path_42439" data-name="Path 42439" d="M2345.775,3409.914l.539-1.137h.959l-.893,1.137Zm1.421,2.682a5.317,5.317,0,0,1-1.194.276,2.766,2.766,0,0,0-.637.147.638.638,0,0,0-.168,1.071.952.952,0,0,0,.647.194,1.5,1.5,0,0,0,.751-.185,1.136,1.136,0,0,0,.483-.5,1.794,1.794,0,0,0,.117-.731Zm.061,1.631a2.719,2.719,0,0,1-.781.488,2.267,2.267,0,0,1-.806.143,1.575,1.575,0,0,1-1.092-.348,1.146,1.146,0,0,1-.381-.888,1.194,1.194,0,0,1,.143-.577,1.172,1.172,0,0,1,.378-.419,1.744,1.744,0,0,1,.525-.24,5.126,5.126,0,0,1,.649-.109,6.687,6.687,0,0,0,1.3-.252c0-.1,0-.164,0-.191a.81.81,0,0,0-.207-.629,1.228,1.228,0,0,0-.832-.247,1.283,1.283,0,0,0-.76.18,1.1,1.1,0,0,0-.364.64l-.714-.1a1.791,1.791,0,0,1,.32-.741,1.4,1.4,0,0,1,.645-.433,2.9,2.9,0,0,1,.979-.152,2.6,2.6,0,0,1,.9.13,1.2,1.2,0,0,1,.507.326,1.164,1.164,0,0,1,.226.5,4.014,4.014,0,0,1,.037.674v.974a10.27,10.27,0,0,0,.046,1.289,1.605,1.605,0,0,0,.185.518h-.763A1.548,1.548,0,0,1,2347.257,3414.227Z" transform="translate(-2344.197 -3408.777)" fill="#174895"/>
    </g>
    <g id="Group_37188" data-name="Group 37188" transform="translate(93.876 62.309)">
      <path id="Path_42440" data-name="Path 42440" d="M2459.2,3446.547v-4.309h.657v.652a1.791,1.791,0,0,1,.465-.6.813.813,0,0,1,.468-.145,1.426,1.426,0,0,1,.75.235l-.251.679a1.046,1.046,0,0,0-.535-.159.69.69,0,0,0-.43.145.775.775,0,0,0-.272.4,2.83,2.83,0,0,0-.122.851v2.257Z" transform="translate(-2459.197 -3442.14)" fill="#174895"/>
    </g>
    <g id="Group_37189" data-name="Group 37189" transform="translate(97.029 62.309)">
      <path id="Path_42441" data-name="Path 42441" d="M2525.981,3445.26l.723-.113a1.009,1.009,0,0,0,.339.666,1.183,1.183,0,0,0,.777.231,1.143,1.143,0,0,0,.748-.206.614.614,0,0,0,.243-.48.444.444,0,0,0-.215-.39,3.181,3.181,0,0,0-.747-.247,7.039,7.039,0,0,1-1.114-.351,1.062,1.062,0,0,1-.631-.989,1.115,1.115,0,0,1,.132-.534,1.181,1.181,0,0,1,.36-.407,1.444,1.444,0,0,1,.464-.213,2.185,2.185,0,0,1,.631-.087,2.525,2.525,0,0,1,.891.145,1.228,1.228,0,0,1,.566.4,1.552,1.552,0,0,1,.251.669l-.714.1a.784.784,0,0,0-.282-.521,1.043,1.043,0,0,0-.66-.186,1.189,1.189,0,0,0-.718.166.484.484,0,0,0-.215.39.4.4,0,0,0,.088.256.656.656,0,0,0,.28.194c.073.027.288.088.646.187a8.973,8.973,0,0,1,1.081.338,1.111,1.111,0,0,1,.481.384,1.081,1.081,0,0,1,.174.625,1.225,1.225,0,0,1-.213.688,1.374,1.374,0,0,1-.615.5,2.25,2.25,0,0,1-.908.177,2.026,2.026,0,0,1-1.281-.35A1.627,1.627,0,0,1,2525.981,3445.26Z" transform="translate(-2525.981 -3442.14)" fill="#174895"/>
    </g>
    <g id="Group_37190" data-name="Group 37190" transform="translate(101.58 60.665)">
      <path id="Path_42442" data-name="Path 42442" d="M2623.03,3413.366v-3.743h-.645v-.567h.645v-.459a1.985,1.985,0,0,1,.077-.646.939.939,0,0,1,.373-.46,1.34,1.34,0,0,1,.744-.177,3.605,3.605,0,0,1,.681.073l-.109.638a2.4,2.4,0,0,0-.43-.04.634.634,0,0,0-.47.141.77.77,0,0,0-.139.532v.4h.839v.567h-.839v3.743Z" transform="translate(-2622.385 -3407.315)" fill="#174895"/>
    </g>
    <g id="Group_37191" data-name="Group 37191" transform="translate(105.151 60.767)">
      <path id="Path_42443" data-name="Path 42443" d="M2698.031,3411.112h.731v4.31h-.731Zm0-1.639h.731v.839h-.731Z" transform="translate(-2698.031 -3409.473)" fill="#174895"/>
    </g>
    <g id="Group_37192" data-name="Group 37192" transform="translate(107.557 62.309)">
      <path id="Path_42444" data-name="Path 42444" d="M2748.989,3446.547v-4.309h.658v.612a1.55,1.55,0,0,1,1.373-.71,1.793,1.793,0,0,1,.715.14,1.132,1.132,0,0,1,.49.367,1.409,1.409,0,0,1,.226.54,4.164,4.164,0,0,1,.04.71v2.65h-.729v-2.622a1.941,1.941,0,0,0-.085-.667.7.7,0,0,0-.3-.353.952.952,0,0,0-.51-.133,1.185,1.185,0,0,0-.805.3,1.46,1.46,0,0,0-.338,1.124v2.354Z" transform="translate(-2748.989 -3442.14)" fill="#174895"/>
    </g>
    <g id="Group_37193" data-name="Group 37193" transform="translate(112.497 62.309)">
      <path id="Path_42445" data-name="Path 42445" d="M2856.631,3444.372a5.436,5.436,0,0,1-1.194.276,2.75,2.75,0,0,0-.636.146.641.641,0,0,0-.289.237.647.647,0,0,0,.119.834.954.954,0,0,0,.648.2,1.5,1.5,0,0,0,.75-.185,1.145,1.145,0,0,0,.484-.5,1.779,1.779,0,0,0,.117-.732Zm.061,1.631a2.73,2.73,0,0,1-.782.488,2.283,2.283,0,0,1-.806.142,1.565,1.565,0,0,1-1.091-.348,1.144,1.144,0,0,1-.382-.887,1.21,1.21,0,0,1,.521-1,1.774,1.774,0,0,1,.527-.238,5.144,5.144,0,0,1,.647-.111,6.664,6.664,0,0,0,1.3-.252c0-.1,0-.164,0-.19a.808.808,0,0,0-.207-.63,1.224,1.224,0,0,0-.832-.247,1.289,1.289,0,0,0-.76.181,1.094,1.094,0,0,0-.363.639l-.714-.1a1.766,1.766,0,0,1,.32-.74,1.392,1.392,0,0,1,.645-.433,2.877,2.877,0,0,1,.979-.153,2.589,2.589,0,0,1,.9.13,1.191,1.191,0,0,1,.507.327,1.166,1.166,0,0,1,.228.5,4.152,4.152,0,0,1,.037.674v.974a10.193,10.193,0,0,0,.046,1.289,1.64,1.64,0,0,0,.184.518h-.763A1.573,1.573,0,0,1,2856.692,3446Z" transform="translate(-2853.632 -3442.127)" fill="#174895"/>
    </g>
    <g id="Group_37194" data-name="Group 37194" transform="translate(117.931 62.309)">
      <path id="Path_42446" data-name="Path 42446" d="M2968.74,3446.547v-4.309h.657v.612a1.549,1.549,0,0,1,1.373-.71,1.788,1.788,0,0,1,.715.14,1.129,1.129,0,0,1,.49.367,1.421,1.421,0,0,1,.227.54,4.237,4.237,0,0,1,.04.71v2.65h-.73v-2.622a1.934,1.934,0,0,0-.085-.667.7.7,0,0,0-.3-.353.951.951,0,0,0-.509-.133,1.18,1.18,0,0,0-.8.3,1.455,1.455,0,0,0-.34,1.124v2.354Z" transform="translate(-2968.74 -3442.14)" fill="#174895"/>
    </g>
    <g id="Group_37195" data-name="Group 37195" transform="translate(122.818 62.309)">
      <path id="Path_42447" data-name="Path 42447" d="M3072.273,3445.26l.722-.113a1.016,1.016,0,0,0,.339.666,1.183,1.183,0,0,0,.777.231,1.143,1.143,0,0,0,.748-.206.609.609,0,0,0,.243-.48.444.444,0,0,0-.215-.39,3.173,3.173,0,0,0-.747-.247,7.066,7.066,0,0,1-1.114-.351,1.066,1.066,0,0,1-.631-.989,1.12,1.12,0,0,1,.131-.534,1.173,1.173,0,0,1,.36-.407,1.444,1.444,0,0,1,.464-.213,2.183,2.183,0,0,1,.631-.087,2.515,2.515,0,0,1,.89.145,1.221,1.221,0,0,1,.567.4,1.556,1.556,0,0,1,.251.669l-.714.1a.783.783,0,0,0-.282-.521,1.04,1.04,0,0,0-.659-.186,1.192,1.192,0,0,0-.718.166.483.483,0,0,0-.215.39.41.41,0,0,0,.088.256.649.649,0,0,0,.281.194c.072.027.287.088.645.187a8.906,8.906,0,0,1,1.081.338,1.111,1.111,0,0,1,.481.384,1.081,1.081,0,0,1,.174.625,1.217,1.217,0,0,1-.214.688,1.365,1.365,0,0,1-.613.5,2.254,2.254,0,0,1-.909.177,2.028,2.028,0,0,1-1.281-.35A1.62,1.62,0,0,1,3072.273,3445.26Z" transform="translate(-3072.273 -3442.14)" fill="#174895"/>
    </g>
    <g id="Group_37196" data-name="Group 37196" transform="translate(127.5 62.407)">
      <path id="Path_42448" data-name="Path 42448" d="M3171.444,3448.521v-.593l2.742-3.15c-.31.018-.585.025-.824.025h-1.757v-.592h3.523v.481l-2.333,2.736-.451.5q.491-.037.922-.037h1.992v.629Z" transform="translate(-3171.444 -3444.211)" fill="#174895"/>
    </g>
    <g id="Group_37197" data-name="Group 37197" transform="translate(132.688 60.733)">
      <path id="Path_42449" data-name="Path 42449" d="M3281.376,3410.425h.73v4.31h-.73Zm-.036-.535.54-1.138h.957l-.892,1.138Z" transform="translate(-3281.34 -3408.752)" fill="#174895"/>
    </g>
    <g id="Group_37198" data-name="Group 37198" transform="translate(135.249 62.309)">
      <path id="Path_42450" data-name="Path 42450" d="M3335.59,3446.547v-4.309h.658v.652a1.785,1.785,0,0,1,.465-.6.811.811,0,0,1,.468-.145,1.425,1.425,0,0,1,.75.235l-.252.679a1.042,1.042,0,0,0-.534-.159.7.7,0,0,0-.431.145.774.774,0,0,0-.272.4,2.83,2.83,0,0,0-.121.851v2.257Z" transform="translate(-3335.59 -3442.14)" fill="#174895"/>
    </g>
    <g id="Group_37199" data-name="Group 37199" transform="translate(138.348 62.309)">
      <path id="Path_42451" data-name="Path 42451" d="M3401.981,3444.4a1.837,1.837,0,0,0,.361,1.24,1.2,1.2,0,0,0,1.814,0,1.871,1.871,0,0,0,.362-1.262,1.776,1.776,0,0,0-.364-1.211,1.2,1.2,0,0,0-1.812,0A1.827,1.827,0,0,0,3401.981,3444.4Zm-.75,0a2.226,2.226,0,0,1,.665-1.775,2.01,2.01,0,0,1,1.355-.477,1.929,1.929,0,0,1,1.453.582,2.207,2.207,0,0,1,.565,1.608,2.867,2.867,0,0,1-.249,1.31,1.777,1.777,0,0,1-.727.741,2.121,2.121,0,0,1-1.042.263,1.937,1.937,0,0,1-1.462-.58A2.314,2.314,0,0,1,3401.231,3444.4Z" transform="translate(-3401.231 -3442.144)" fill="#174895"/>
    </g>
    <g id="Group_37200" data-name="Group 37200" transform="translate(143.368 62.407)">
      <path id="Path_42452" data-name="Path 42452" d="M3507.565,3448.521v-.593l2.742-3.15c-.311.018-.585.025-.824.025h-1.757v-.592h3.522v.481l-2.333,2.736-.45.5q.491-.037.922-.037h1.993v.629Z" transform="translate(-3507.565 -3444.211)" fill="#174895"/>
    </g>
    <g id="Group_37201" data-name="Group 37201" transform="translate(148.313 60.734)">
      <path id="Path_42453" data-name="Path 42453" d="M3613.894,3409.914l.54-1.137h.957l-.892,1.137Zm1.421,2.682a5.313,5.313,0,0,1-1.194.276,2.758,2.758,0,0,0-.636.147.621.621,0,0,0-.39.583.621.621,0,0,0,.221.488.949.949,0,0,0,.646.194,1.5,1.5,0,0,0,.751-.185,1.133,1.133,0,0,0,.484-.5,1.772,1.772,0,0,0,.118-.731Zm.06,1.631a2.7,2.7,0,0,1-.78.488,2.27,2.27,0,0,1-.807.143,1.574,1.574,0,0,1-1.091-.348,1.147,1.147,0,0,1-.382-.888,1.192,1.192,0,0,1,.144-.577,1.175,1.175,0,0,1,.378-.419,1.744,1.744,0,0,1,.525-.24,5.131,5.131,0,0,1,.648-.109,6.7,6.7,0,0,0,1.3-.252c0-.1,0-.164,0-.191a.808.808,0,0,0-.206-.629,1.225,1.225,0,0,0-.832-.247,1.286,1.286,0,0,0-.761.18,1.1,1.1,0,0,0-.364.64l-.714-.1a1.769,1.769,0,0,1,.32-.741,1.4,1.4,0,0,1,.645-.433,2.891,2.891,0,0,1,.979-.152,2.6,2.6,0,0,1,.9.13,1.193,1.193,0,0,1,.507.326,1.156,1.156,0,0,1,.228.5,4.057,4.057,0,0,1,.037.674v.974a10.181,10.181,0,0,0,.046,1.289,1.608,1.608,0,0,0,.184.518h-.762A1.564,1.564,0,0,1,3615.375,3414.227Z" transform="translate(-3612.315 -3408.777)" fill="#174895"/>
    </g>
    <g id="Group_37202" data-name="Group 37202" transform="translate(153.447 62.309)">
      <path id="Path_42454" data-name="Path 42454" d="M3721.057,3445.26l.723-.113a1.015,1.015,0,0,0,.338.666,1.185,1.185,0,0,0,.778.231,1.139,1.139,0,0,0,.747-.206.612.612,0,0,0,.244-.48.444.444,0,0,0-.215-.39,3.175,3.175,0,0,0-.748-.247,7.054,7.054,0,0,1-1.113-.351,1.1,1.1,0,0,1-.471-.411,1.085,1.085,0,0,1-.161-.578,1.107,1.107,0,0,1,.133-.534,1.165,1.165,0,0,1,.36-.407,1.426,1.426,0,0,1,.464-.213,2.18,2.18,0,0,1,.631-.087,2.511,2.511,0,0,1,.89.145,1.228,1.228,0,0,1,.567.4,1.556,1.556,0,0,1,.251.669l-.714.1a.788.788,0,0,0-.281-.521,1.043,1.043,0,0,0-.66-.186,1.2,1.2,0,0,0-.718.166.483.483,0,0,0-.215.39.405.405,0,0,0,.09.256.644.644,0,0,0,.28.194c.073.027.288.088.646.187a8.967,8.967,0,0,1,1.082.338,1.11,1.11,0,0,1,.48.384,1.074,1.074,0,0,1,.174.625,1.225,1.225,0,0,1-.213.688,1.371,1.371,0,0,1-.614.5,2.25,2.25,0,0,1-.909.177,2.025,2.025,0,0,1-1.28-.35A1.627,1.627,0,0,1,3721.057,3445.26Z" transform="translate(-3721.057 -3442.14)" fill="#174895"/>
    </g>
    <g id="Group_37203" data-name="Group 37203" transform="translate(158.254 60.734)">
      <path id="Path_42455" data-name="Path 42455" d="M3824.468,3409.914l.54-1.137h.958l-.893,1.137Zm1.42,2.682a5.3,5.3,0,0,1-1.193.276,2.773,2.773,0,0,0-.637.147.616.616,0,0,0-.389.583.624.624,0,0,0,.22.488.953.953,0,0,0,.647.194,1.5,1.5,0,0,0,.751-.185,1.134,1.134,0,0,0,.484-.5,1.775,1.775,0,0,0,.117-.731Zm.06,1.631a2.687,2.687,0,0,1-.78.488,2.264,2.264,0,0,1-.806.143,1.568,1.568,0,0,1-1.09-.348,1.143,1.143,0,0,1-.382-.888,1.191,1.191,0,0,1,.144-.577,1.177,1.177,0,0,1,.378-.419,1.744,1.744,0,0,1,.525-.24,5.186,5.186,0,0,1,.649-.109,6.669,6.669,0,0,0,1.3-.252c0-.1,0-.164,0-.191a.807.807,0,0,0-.207-.629,1.228,1.228,0,0,0-.832-.247,1.292,1.292,0,0,0-.761.18,1.106,1.106,0,0,0-.363.64l-.714-.1a1.775,1.775,0,0,1,.32-.741,1.408,1.408,0,0,1,.646-.433,2.886,2.886,0,0,1,.978-.152,2.6,2.6,0,0,1,.9.13,1.2,1.2,0,0,1,.506.326,1.15,1.15,0,0,1,.227.5,4.041,4.041,0,0,1,.037.674v.974a10.057,10.057,0,0,0,.047,1.289,1.629,1.629,0,0,0,.183.518h-.762A1.6,1.6,0,0,1,3825.949,3414.227Z" transform="translate(-3822.89 -3408.777)" fill="#174895"/>
    </g>
    <g id="Group_37204" data-name="Group 37204" transform="translate(163.116 62.407)">
      <path id="Path_42456" data-name="Path 42456" d="M3927.522,3448.521l-1.64-4.309h.771l.926,2.58c.1.279.191.568.276.868q.1-.341.271-.819l.958-2.629h.75l-1.631,4.309Z" transform="translate(-3925.882 -3444.211)" fill="#174895"/>
    </g>
    <g id="Group_37205" data-name="Group 37205" transform="translate(167.936 62.309)">
      <path id="Path_42457" data-name="Path 42457" d="M4030.977,3444.372a5.427,5.427,0,0,1-1.193.276,2.74,2.74,0,0,0-.636.146.645.645,0,0,0-.289.237.649.649,0,0,0,.119.834.958.958,0,0,0,.648.2,1.5,1.5,0,0,0,.75-.185,1.142,1.142,0,0,0,.484-.5,1.78,1.78,0,0,0,.117-.732Zm.062,1.631a2.732,2.732,0,0,1-.782.488,2.28,2.28,0,0,1-.8.142,1.566,1.566,0,0,1-1.092-.348,1.143,1.143,0,0,1-.382-.887,1.212,1.212,0,0,1,.522-1,1.773,1.773,0,0,1,.527-.238,5.177,5.177,0,0,1,.647-.111,6.657,6.657,0,0,0,1.3-.252c0-.1,0-.164,0-.19a.809.809,0,0,0-.206-.63,1.225,1.225,0,0,0-.833-.247,1.288,1.288,0,0,0-.76.181,1.1,1.1,0,0,0-.363.639l-.714-.1a1.782,1.782,0,0,1,.32-.74,1.391,1.391,0,0,1,.645-.433,2.874,2.874,0,0,1,.978-.153,2.593,2.593,0,0,1,.9.13,1.2,1.2,0,0,1,.507.327,1.157,1.157,0,0,1,.228.5,4.219,4.219,0,0,1,.037.674v.974a10.193,10.193,0,0,0,.046,1.289,1.64,1.64,0,0,0,.184.518h-.763A1.568,1.568,0,0,1,4031.039,3446Z" transform="translate(-4027.978 -3442.127)" fill="#174895"/>
    </g>
    <g id="Group_37206" data-name="Group 37206" transform="translate(173.357 60.767)">
      <rect id="Rectangle_15694" data-name="Rectangle 15694" width="0.731" height="5.949" fill="#174895"/>
    </g>
  </g>
</svg>
